<svg width="55" height="55" viewBox="0 0 55 55" fill="none" xmlns="http://www.w3.org/2000/svg">
<path fill-rule="evenodd" clip-rule="evenodd" d="M35.866 31.0377C46.263 32.8438 55 39.4786 55 49.7493C55 51.1429 54.4259 52.476 53.4079 53.4619C52.39 54.4477 51.0077 55 49.5651 55H5.43487C3.99235 55 2.61252 54.4477 1.59209 53.4619C0.57413 52.4784 0 51.143 0 49.7493C0 39.4786 8.73947 32.8597 19.1315 31.0377C24.5422 30.0892 30.4551 30.0962 35.866 31.0377ZM27.5002 0C35.4634 0 41.9278 6.24596 41.9278 13.9387C41.9278 21.6315 35.4628 27.8774 27.5002 27.8774C19.5376 27.8774 13.0725 21.6315 13.0725 13.9387C13.0725 6.24596 19.5376 0 27.5002 0Z" fill="#1A1C1B" fill-opacity="0.3"/>
</svg>
