<svg width="32" height="32" viewBox="0 0 32 32" fill="none" xmlns="http://www.w3.org/2000/svg">
<path d="M16 0C7.176 0 0 7.176 0 16C0 24.824 7.176 32 16 32C24.824 32 32 24.824 32 16C32 7.176 24.824 0 16 0ZM16 30.4C8.06 30.4 1.6 23.94 1.6 16C1.6 8.06 8.06 1.6 16 1.6C23.94 1.6 30.4 8.06 30.4 16C30.4 23.94 23.94 30.4 16 30.4Z" fill="#631015"/>
<path d="M17.1541 17.7172V10H14.8393V17.7172L12.7295 15.2963L11 16.862L15.1336 21.6027C15.3519 21.8552 15.6693 22 16 22C16.3307 22 16.6448 21.8552 16.8664 21.6027L21 16.862L19.2705 15.2963L17.1607 17.7172H17.1541Z" fill="#631015"/>
</svg>
