<svg width="23" height="33" viewBox="0 0 23 33" fill="none" xmlns="http://www.w3.org/2000/svg">
<path fill-rule="evenodd" clip-rule="evenodd" d="M21.2509 21.9058C20.6748 20.9717 19.826 20.2334 18.8314 19.7989C19.3389 19.3616 19.6656 18.7092 19.6656 17.9797C19.6656 16.6675 18.6141 15.6 17.3248 15.6C16.0327 15.6 14.9841 16.6675 14.9841 17.9797C14.9841 18.5387 15.1737 19.0516 15.4916 19.4579C14.9184 19.5646 14.3715 19.7663 13.8625 20.0584C13.6977 19.9813 13.5256 19.9131 13.355 19.8537C14.3 19.0057 14.5815 17.6223 14.02 16.4614L15.4653 12.2847C15.7235 12.2714 15.9699 12.2165 16.2033 12.129C17.8499 13.6532 19.7925 15.2026 21.9612 15.7364L21.2509 21.9058ZM15.9686 17.9796C15.9686 18.7402 16.5768 19.3585 17.325 19.3585C18.0732 19.3585 18.6813 18.7402 18.6813 17.9796C18.6813 17.219 18.0732 16.6007 17.325 16.6007C16.5768 16.6007 15.9686 17.219 15.9686 17.9796ZM20.9623 24.3995L21.0046 24.0229C20.6721 21.9368 18.868 20.3711 16.7853 20.3711C16.0619 20.3711 15.5791 20.3889 14.8704 20.6765C16.1232 21.6551 16.9326 23.1911 16.9326 24.917V28.4013L19.5198 26.7333C20.3453 26.198 20.8471 25.3914 20.9623 24.3995ZM15.9481 29.0358V24.9168C15.9481 22.5209 14.0303 20.5713 11.675 20.5713H11.325C8.96671 20.5713 7.04743 22.5209 7.04743 24.9168V29.0358L11.5001 31.9063L15.9481 29.0358ZM6.06269 28.4013L3.47834 26.7333C2.64848 26.198 2.1468 25.3915 2.03303 24.3996L1.99074 24.023C2.32326 21.9369 4.12736 20.3712 6.21007 20.3712C6.93491 20.3712 7.41475 20.389 8.1279 20.6766C6.87509 21.6552 6.06278 23.1912 6.06278 24.9171L6.06269 28.4013ZM7.02525 17.9796C7.02525 18.7403 6.41709 19.3585 5.66891 19.3585C4.92074 19.3585 4.31258 18.7403 4.31258 17.9796C4.31258 17.219 4.92074 16.6008 5.66891 16.6008C6.41709 16.6008 7.02525 17.219 7.02525 17.9796ZM1.02948 15.7364C3.20254 15.2041 5.1424 13.6547 6.7919 12.1291C7.07046 12.2358 7.36068 12.2892 7.67572 12.2892L9.00289 16.3991C8.3991 17.5644 8.67329 18.9893 9.63585 19.8537C9.46375 19.913 9.29166 19.9812 9.1283 20.0583C8.62076 19.7662 8.07241 19.5631 7.49923 19.4578C7.81716 19.0516 8.00677 18.5371 8.00677 17.9796C8.00677 16.6675 6.95816 15.6 5.666 15.6C4.37821 15.6 3.32523 16.6675 3.32523 17.9796C3.32523 18.7091 3.65046 19.3615 4.16237 19.7989C3.16334 20.2318 2.316 20.9716 1.73991 21.9057L1.02948 15.7364ZM13.3242 17.7142C13.3242 18.7387 12.5045 19.572 11.4982 19.572C10.489 19.572 9.66937 18.7387 9.66937 17.7142C9.66937 16.6897 10.489 15.8565 11.4982 15.8565C12.5045 15.8565 13.3242 16.6897 13.3242 17.7142ZM13.3023 15.5258L14.4224 12.2877L8.71111 12.2892L9.74222 15.4843C10.7908 14.6318 12.277 14.6481 13.3023 15.5258ZM16.7734 10.2385C16.5663 10.8479 15.996 11.2883 15.3281 11.2883H7.66564C6.99621 11.2883 6.42743 10.8479 6.22033 10.2385H16.7734ZM10.1739 2.47689C10.0062 3.54737 9.95222 4.62528 10.0528 5.38589C10.1418 6.07088 10.502 7.25997 11.4661 7.71218C12.6751 8.27856 13.941 7.3682 14.0431 6.03084C14.0825 5.5223 13.9717 4.71869 13.8783 4.25904C14.8904 5.33844 15.0305 6.88929 15.0028 7.85451C14.9882 8.33341 14.8744 8.8049 14.6702 9.23634L8.24137 9.23931C8.04449 8.82566 7.93364 8.3853 7.90885 7.92269C7.82281 6.10197 9.04363 4.00994 10.1739 2.47689ZM22.5896 14.8468C20.5638 14.491 18.6809 13.0454 17.068 11.5746C17.5434 11.1105 17.838 10.4596 17.838 9.73904C17.838 9.46178 17.6192 9.23938 17.348 9.23938H15.7379C15.8881 8.80497 15.9741 8.34828 15.9887 7.88719C16.0587 5.5787 15.2055 3.44823 13.1083 2.52893C12.6898 2.34508 12.2712 2.79136 12.4681 3.205C12.7758 3.85291 12.9042 4.2666 12.9946 4.91155C13.0588 5.34004 13.0836 5.72996 13.0661 5.95534C13.0034 6.77675 12.1516 7.24228 11.5522 6.54545C11.2912 6.24743 11.0972 5.76408 11.0301 5.25554C10.8799 4.10946 11.1453 2.05004 11.6208 0.665132C11.6995 0.441252 11.6106 0.192161 11.4093 0.0705875C11.2095 -0.0509897 10.9513 -0.0124415 10.7939 0.162513C9.29022 1.83494 6.79182 5.07441 6.93183 7.97312C6.95371 8.40457 7.03538 8.83306 7.17831 9.24078H5.64985C5.37712 9.24078 5.15982 9.46466 5.15982 9.74044C5.15982 10.461 5.45734 11.1119 5.92987 11.576C4.31976 13.0468 2.43691 14.4924 0.411257 14.8482C0.150197 14.8927 -0.0248255 15.1343 0.00287767 15.3983C0.34415 18.4347 0.716067 21.4773 1.05877 24.5164C1.20899 25.8182 1.86381 26.8769 2.95181 27.5781L11.237 32.9216C11.396 33.0254 11.6031 33.0269 11.7635 32.9216L20.0487 27.5781C21.1367 26.8768 21.7916 25.8167 21.9418 24.5164L21.9913 24.0731L22.9977 15.3983C23.0225 15.1343 22.8477 14.8913 22.5896 14.8468Z" fill="#631015"/>
</svg>
