<svg width="100" height="42" viewBox="0 0 100 42" fill="none" xmlns="http://www.w3.org/2000/svg">
<g clip-path="url(#clip0_57_2351)">
<rect width="100" height="42" fill="white"/>
<path fill-rule="evenodd" clip-rule="evenodd" d="M0.156738 0.247314H27.6463V31.5495H0.156738V0.247314Z" fill="#1B4E9B"/>
<path fill-rule="evenodd" clip-rule="evenodd" d="M18.9056 17.5906L10.9182 9.49205L10.9413 5.77163C10.9912 5.44003 10.8456 4.99084 10.2288 5.07374L4.98354 5.14404L4.90025 10.4971C4.89556 10.8475 5.05673 11.1208 5.5251 11.1247L9.26631 11.1535L20.8687 22.9935L23.1065 22.9924C23.0954 22.3931 22.6306 20.9402 21.5801 19.9153L22.5345 18.9234L22.1893 18.5703L21.938 18.8208L21.6655 18.5513L22.0301 18.1821L21.4941 17.6346L20.7369 18.3946L20.2503 17.8956L20.8105 17.3134L19.9938 16.4888L18.9056 17.5906Z" fill="#D4EDFC"/>
<path fill-rule="evenodd" clip-rule="evenodd" d="M7.26442 7.47823C6.47443 8.29919 5.9938 8.99233 5.57446 9.79539L7.10091 10.0406C8.10165 8.6034 8.60698 8.09724 9.8969 7.27044L9.62071 5.73022C8.67495 6.20626 7.93381 6.80079 7.26424 7.47823H7.26442Z" fill="#1B4E9B"/>
<path fill-rule="evenodd" clip-rule="evenodd" d="M9.11084 17.5661L17.0982 9.46768L17.0753 5.74708C17.0252 5.41566 17.1707 4.96647 17.7874 5.0501L23.0329 5.11967L23.1173 10.4723C23.1209 10.822 22.9604 11.0961 22.4912 11.101L18.7503 11.129L7.11079 22.9867L4.90991 22.9669C4.92109 22.3866 5.40316 20.9155 6.43618 19.8909L5.48195 18.8979L5.82719 18.5446L6.0785 18.7973L6.35108 18.5267L5.98637 18.1577L6.52271 17.6101L7.27954 18.3688L7.7663 17.8712L7.20616 17.2898L8.02302 16.4641L9.11084 17.5659V17.5661Z" fill="#D4EDFC"/>
<path fill-rule="evenodd" clip-rule="evenodd" d="M20.7217 7.48476C21.5115 8.30572 21.992 8.99868 22.4102 9.80211L20.884 10.0481C19.8843 8.60993 19.3788 8.10359 18.0889 7.27715L18.3642 5.73767C19.311 6.21297 20.0512 6.80751 20.7219 7.48476H20.7217Z" fill="#1B4E9B"/>
<path fill-rule="evenodd" clip-rule="evenodd" d="M21.2713 15.9233C22.8859 16.1808 23.598 16.8325 24.3226 17.5437C25.0199 15.6246 25.0477 12.8688 24.3464 10.8363C23.2447 12.0376 22.0819 12.3185 21.2369 12.4461C17.9931 12.6077 15.6635 10.3901 15.7246 7.07718C15.8461 5.59869 16.522 4.41893 17.3929 3.65348C15.1486 2.87452 12.808 2.87105 10.5536 3.60436C11.4689 4.32964 12.1877 5.56381 12.2951 7.11662C12.3887 9.49678 11.2917 10.4368 10.8678 11.0184C8.99631 12.804 7.02835 12.5672 5.92665 12.2931C4.70524 11.9147 3.88803 11.1095 3.5024 10.6813C2.79119 12.7976 2.78362 15.4135 3.5134 17.5955C4.06254 16.9594 5.19489 16.0203 6.93262 15.901C11.711 15.6529 14.1338 21.4783 10.5959 24.7134C12.7956 25.4235 15.077 25.4942 17.2815 24.6476C15.1614 22.7324 15.1466 19.4562 17.1366 17.3768C18.1689 16.1866 19.9329 15.8004 21.271 15.9235L21.2713 15.9233Z" fill="#FEFEFE"/>
<path fill-rule="evenodd" clip-rule="evenodd" d="M16.3239 14.2044L15.2482 14.5482L15.1507 14.7701L15.0813 14.9296L15.3501 15.6031L14.634 15.3657L14.3235 15.5101L13.9469 16.4739L13.6141 15.5127L13.2469 15.3675L12.604 15.5589L12.8229 14.9494L12.6736 14.5781L11.6033 14.2044L12.6624 13.8428L12.8176 13.4963L12.6114 12.851L13.2653 13.0556L13.5972 12.9101L13.9516 11.8636L14.3122 12.9174L14.634 13.0286L15.3131 12.8444L15.0766 13.4983L15.2277 13.8089L16.3239 14.2044Z" fill="#1B4E9B"/>
<path fill-rule="evenodd" clip-rule="evenodd" d="M99.9556 31.7044C99.8034 31.7269 99.6947 31.7391 99.6262 31.7391C99.4326 31.7391 99.2959 31.696 99.2164 31.6095C99.1367 31.5229 99.0967 31.3739 99.0967 31.1634V29.4061H98.7325V29.0398H99.0967V28.2922H99.5391V29.0398H99.9556V29.4061H99.5391V31.1634L99.6087 31.3053L99.7985 31.3581H99.9554V31.7046L99.9556 31.7044ZM96.1738 31.7074V29.0396H96.3833H96.5947V29.4344L96.693 29.3009C96.8841 29.0745 97.126 28.9598 97.4145 28.9598C97.7038 28.9598 97.9285 29.0396 98.0869 29.1983C98.2438 29.3588 98.3235 29.5843 98.3235 29.8794V31.7074H98.1017H97.8801V30.0315C97.8801 29.797 97.8354 29.6279 97.7455 29.5244C97.6564 29.4201 97.5118 29.3676 97.3103 29.3676C97.0983 29.3676 96.9274 29.4494 96.804 29.6139C96.6789 29.7769 96.6166 29.9988 96.6166 30.2785L96.6167 31.7074H96.3952H96.1734H96.1738ZM95.1693 30.1688C95.1572 29.9217 95.0961 29.7291 94.9884 29.59C94.8687 29.438 94.6935 29.3617 94.4617 29.3617C94.2291 29.3617 94.0423 29.4492 93.9031 29.6248C93.7932 29.764 93.727 29.944 93.7039 30.1688H95.1693ZM94.4312 31.7797C94.0593 31.7797 93.7679 31.6593 93.5548 31.4207C93.3405 31.1811 93.2337 30.8504 93.2337 30.4277C93.2341 29.9789 93.3468 29.6217 93.5725 29.3568C93.7979 29.092 94.1011 28.9595 94.48 28.9595C94.8253 28.9595 95.1035 29.0891 95.3158 29.3484C95.5264 29.6075 95.632 29.9486 95.632 30.3704L95.6272 30.5302H93.7039C93.7216 30.7958 93.7829 30.9987 93.8838 31.1388C94.0082 31.3078 94.2047 31.3924 94.4746 31.3924C94.6425 31.3924 94.7907 31.3444 94.9169 31.2476C95.0431 31.1517 95.12 31.0288 95.1469 30.8787H95.5855C95.5195 31.1716 95.389 31.3942 95.1911 31.5483C94.9947 31.7021 94.7406 31.7795 94.4308 31.7795L94.4312 31.7797ZM89.1506 31.7074V29.0396H89.3593H89.5719V29.4362L89.6627 29.3159C89.861 29.0792 90.0976 28.9598 90.373 28.9598C90.6096 28.9598 90.7978 29.0303 90.9368 29.1722L91.0825 29.3882L91.1537 29.296C91.3431 29.0723 91.5701 28.9598 91.8346 28.9598C92.1111 28.9598 92.3241 29.0349 92.4746 29.1881C92.6248 29.3404 92.699 29.5555 92.699 29.8346V31.7075H92.4786H92.2566V29.9878C92.2566 29.7828 92.2159 29.6307 92.1333 29.5255C92.0515 29.4211 91.9319 29.3677 91.7742 29.3677C91.5824 29.3677 91.4293 29.4439 91.3163 29.5962C91.2032 29.7463 91.1457 29.9522 91.1457 30.2088V31.7079H90.9249H90.7033V29.8799C90.7033 29.7136 90.6669 29.5869 90.5917 29.5005C90.5169 29.4121 90.4082 29.3679 90.2656 29.3679C90.0693 29.3679 89.9076 29.4534 89.7806 29.6225C89.6573 29.7926 89.5931 30.0116 89.5931 30.2789L89.5933 31.7077H89.3725H89.1506V31.7074ZM88.1464 30.1688C88.1323 29.9217 88.073 29.7291 87.9636 29.59C87.8448 29.438 87.6686 29.3617 87.4379 29.3617C87.206 29.3617 87.0185 29.4492 86.8794 29.6248C86.7694 29.764 86.7032 29.944 86.6811 30.1688H88.1464ZM87.4081 31.7797C87.0355 31.7797 86.7431 31.6593 86.53 31.4207C86.3167 31.1811 86.2109 30.8504 86.2109 30.4277C86.2109 29.9789 86.323 29.6217 86.5484 29.3568C86.7741 29.092 87.077 28.9595 87.4573 28.9595C87.8026 28.9595 88.0804 29.0891 88.292 29.3484C88.5037 29.6075 88.6101 29.9486 88.6101 30.3704L88.6038 30.5302H86.6811C86.6989 30.7958 86.7588 30.9987 86.8601 31.1388C86.9852 31.3078 87.1817 31.3924 87.4516 31.3924C87.6196 31.3924 87.7658 31.3444 87.8931 31.2476C88.0193 31.1517 88.0961 31.0288 88.1249 30.8787H88.5627C88.496 31.1716 88.3651 31.3942 88.1684 31.5483C87.9711 31.7021 87.7177 31.7795 87.4079 31.7795L87.4081 31.7797ZM84.573 29.3674C84.3257 29.3674 84.1427 29.4483 84.0304 29.6069C83.9166 29.7674 83.8591 30.0202 83.8591 30.3676C83.8591 30.6954 83.9204 30.9483 84.0444 31.1249C84.1699 31.3022 84.345 31.3906 84.573 31.3906C84.7883 31.3906 84.9608 31.308 85.0915 31.1464C85.2235 30.983 85.288 30.7679 85.288 30.5002C85.2884 30.1224 85.2296 29.839 85.1101 29.6511C84.9916 29.462 84.8113 29.3674 84.573 29.3674ZM84.487 32.4615C84.741 32.4615 84.9336 32.3799 85.0675 32.2194C85.2002 32.0559 85.2667 31.8209 85.2667 31.51L85.2669 31.4227L85.2651 31.4256C85.0812 31.6604 84.8436 31.7799 84.5498 31.7799C84.1966 31.7799 83.9164 31.6453 83.7086 31.3796C83.4993 31.1117 83.396 30.7531 83.396 30.2984C83.3961 29.8984 83.498 29.5752 83.703 29.3292C83.908 29.0829 84.1771 28.96 84.5072 28.96C84.8252 28.96 85.0755 29.099 85.2612 29.3761L85.2938 29.424V29.0398H85.709V31.5102C85.7072 31.961 85.6069 32.2928 85.4086 32.5097C85.2101 32.7257 84.9049 32.8336 84.4941 32.8336C84.1948 32.8336 83.9581 32.7631 83.7818 32.6242C83.6065 32.4841 83.5009 32.2822 83.4648 32.0165H83.9173C83.9433 32.1593 84.0073 32.2681 84.1054 32.3461C84.2049 32.423 84.3318 32.4615 84.4868 32.4615H84.487ZM82.3197 30.6505V30.3614C82.2371 30.4016 82.1461 30.4279 82.0471 30.444L81.64 30.5031C81.4278 30.5323 81.2717 30.5822 81.1725 30.6543C81.0752 30.7237 81.026 30.8207 81.026 30.9406C81.0262 31.0911 81.0651 31.2058 81.1466 31.2867C81.2264 31.3674 81.3402 31.4077 81.4879 31.4077C81.7206 31.4077 81.9175 31.344 82.0788 31.2151C82.1891 31.1258 82.2613 31.0244 82.2975 30.9118L82.3116 30.8092L82.32 30.6505H82.3197ZM81.4013 31.7797C81.1426 31.7797 80.9394 31.7103 80.7894 31.57C80.6373 31.43 80.5612 31.2414 80.5612 31.0045C80.5614 30.7652 80.6335 30.5745 80.7745 30.4336C80.9167 30.2919 81.124 30.2033 81.3959 30.1688L81.9997 30.0927L82.1398 30.0673L82.2724 29.9772L82.3199 29.8082V29.7848C82.3199 29.6416 82.2668 29.531 82.1603 29.4494C82.0539 29.3687 81.9041 29.3292 81.7143 29.3292C81.5326 29.3292 81.3896 29.3712 81.2867 29.4578C81.1846 29.5423 81.1224 29.6701 81.1003 29.8392H80.6934C80.7137 29.5471 80.8163 29.3274 80.9973 29.1808C81.1792 29.0332 81.4415 28.96 81.7801 28.96C82.1008 28.96 82.3437 29.0305 82.5117 29.1714C82.6777 29.3115 82.7612 29.5162 82.7612 29.7848L82.7614 31.2511L82.8018 31.3599L82.9123 31.4011L82.9707 31.3955L83.0534 31.3812V31.7052L82.918 31.7435L82.7974 31.7589C82.6296 31.7589 82.5088 31.7127 82.4327 31.6197C82.3839 31.5576 82.3483 31.4716 82.3273 31.3577L82.2142 31.4769C81.9925 31.678 81.7217 31.7795 81.4015 31.7795L81.4013 31.7797ZM77.8939 31.7074V29.0396H78.1027H78.3144V29.4344L78.4128 29.3009C78.6046 29.0745 78.8447 28.9598 79.133 28.9598C79.4236 28.9598 79.6479 29.0396 79.8064 29.1983C79.9632 29.3588 80.0418 29.5843 80.0418 29.8794L80.0422 31.7074H79.8215H79.5996V30.0315C79.5996 29.797 79.5549 29.6279 79.4649 29.5244C79.376 29.4201 79.2305 29.3676 79.0301 29.3676C78.8168 29.3676 78.6477 29.4494 78.5226 29.6139C78.3975 29.7769 78.3351 29.9988 78.3351 30.2785L78.3355 31.7074H78.1155H77.8936H77.8939ZM76.6904 30.6505V30.3614C76.6089 30.4016 76.5168 30.4279 76.4178 30.444L76.0109 30.5031C75.7993 30.5323 75.6426 30.5822 75.545 30.6543C75.4461 30.7237 75.3969 30.8207 75.3969 30.9406C75.3969 31.0911 75.4369 31.2058 75.5173 31.2867C75.5971 31.3674 75.7111 31.4077 75.8595 31.4077C76.0931 31.4077 76.2891 31.344 76.4495 31.2151C76.5599 31.1258 76.6341 31.0244 76.6693 30.9118L76.6842 30.8092L76.6907 30.6505H76.6904ZM75.7733 31.7797C75.5155 31.7797 75.3105 31.7103 75.1601 31.57C75.0102 31.43 74.9337 31.2414 74.9337 31.0045C74.9339 30.7652 75.0044 30.5745 75.1472 30.4336C75.2882 30.2919 75.4958 30.2033 75.7675 30.1688L76.3704 30.0927L76.5106 30.0673L76.6433 29.9772L76.6906 29.8082V29.7848C76.6906 29.6416 76.6376 29.531 76.531 29.4494C76.4246 29.3687 76.2759 29.3292 76.0859 29.3292C75.9031 29.3292 75.7614 29.3712 75.6574 29.4578C75.5553 29.5423 75.4933 29.6701 75.4728 29.8392H75.0641C75.0853 29.5471 75.1874 29.3274 75.3702 29.1808C75.5521 29.0332 75.8122 28.96 76.1515 28.96C76.4717 28.96 76.7147 29.0305 76.8824 29.1714C77.0506 29.3115 77.1337 29.5162 77.1337 29.7848L77.1339 31.2511L77.1739 31.3599L77.2842 31.4011L77.3426 31.3955L77.4248 31.3812V31.7052L77.2887 31.7435L77.1679 31.7589C77.0003 31.7589 76.8804 31.7127 76.8045 31.6197C76.7546 31.5576 76.719 31.4716 76.6989 31.3577L76.5851 31.4769C76.3641 31.678 76.0933 31.7795 75.7735 31.7795L75.7733 31.7797ZM71.3856 31.7074H71.1494H70.9113V28.0421H71.2625H71.6144L72.6501 31.1607H72.6492L73.6746 28.0421H74.0262H74.3788V31.7074H74.1423H73.9041V28.6056H73.903L72.883 31.7074H72.6458H72.4103L71.3872 28.616H71.3861V31.7074H71.3856ZM68.6094 29.4116V31.7074H68.3875H68.1658V29.4116H67.8025V29.0396H68.1658V28.586C68.1658 28.3888 68.2242 28.2404 68.3383 28.1409C68.4533 28.0412 68.6248 27.9908 68.855 27.9908L69.0497 27.9983V28.4029L68.8744 28.3954C68.7899 28.3954 68.7239 28.4235 68.6769 28.479C68.6314 28.5336 68.6091 28.6132 68.6091 28.7168L68.6094 29.0396H69.0497V29.4116H68.6094ZM66.3157 31.3926C66.5493 31.3926 66.7349 31.3014 66.8724 31.1165C67.0103 30.9322 67.079 30.6835 67.079 30.3707C67.079 30.0578 67.0103 29.81 66.8724 29.6239C66.735 29.4388 66.5495 29.346 66.3157 29.346C66.084 29.346 65.8994 29.439 65.7621 29.6239C65.624 29.8102 65.5564 30.058 65.5564 30.3707C65.5564 30.6837 65.6238 30.9326 65.7621 31.1165C65.8996 31.3016 66.0839 31.3926 66.3157 31.3926ZM66.3157 31.7797C65.9523 31.7797 65.6564 31.65 65.432 31.3906C65.2055 31.1305 65.0934 30.7913 65.0934 30.3706C65.0936 29.9488 65.2055 29.6077 65.432 29.3486C65.6564 29.0893 65.9523 28.9596 66.3157 28.9596C66.684 28.9596 66.9799 29.0893 67.2052 29.3486C67.4297 29.6077 67.542 29.9488 67.542 30.3706C67.542 30.7913 67.4297 31.1305 67.2052 31.3906C66.9799 31.65 66.6838 31.7797 66.3157 31.7797ZM62.7214 31.7074V28.0421H62.943H63.1647V31.7074H62.943H62.7214ZM60.9704 31.3926C61.2029 31.3926 61.3886 31.3014 61.5267 31.1165C61.6643 30.9322 61.7346 30.6835 61.7346 30.3707C61.7346 30.0578 61.6643 29.81 61.5267 29.6239C61.3886 29.4388 61.2031 29.346 60.9704 29.346C60.7374 29.346 60.5528 29.439 60.4167 29.6239C60.2793 29.8102 60.2106 30.058 60.2106 30.3707C60.2108 30.6837 60.2793 30.9326 60.4167 31.1165C60.5532 31.3016 60.7372 31.3926 60.9704 31.3926ZM60.9704 31.7797C60.6069 31.7797 60.3109 31.65 60.0864 31.3906C59.8604 31.1305 59.7471 30.7913 59.7471 30.3706C59.7471 29.9488 59.86 29.6077 60.0864 29.3486C60.3111 29.0893 60.6069 28.9596 60.9704 28.9596C61.3394 28.9596 61.6343 29.0893 61.8597 29.3486C62.0843 29.6077 62.1963 29.9488 62.1963 30.3706C62.1964 30.7913 62.084 31.1305 61.8597 31.3906C61.6343 31.65 61.3394 31.7797 60.9704 31.7797ZM58.1567 31.3926C58.3894 31.3926 58.5739 31.3014 58.7121 31.1165C58.8504 30.9322 58.9187 30.6835 58.9187 30.3707C58.9191 30.0578 58.8502 29.81 58.7121 29.6239C58.5739 29.4388 58.3894 29.346 58.1563 29.346C57.9241 29.346 57.7392 29.439 57.602 29.6239C57.4646 29.8102 57.3961 30.058 57.3961 30.3707C57.3961 30.6837 57.4646 30.9326 57.602 31.1165C57.7392 31.3016 57.9236 31.3926 58.1567 31.3926ZM58.1567 31.7797C57.7923 31.7797 57.497 31.65 57.2717 31.3906C57.0456 31.1305 56.9331 30.7913 56.9331 30.3706C56.9331 29.9488 57.0453 29.6077 57.2717 29.3486C57.497 29.0893 57.792 28.9596 58.1563 28.9596C58.5248 28.9596 58.8196 29.0893 59.0449 29.3486C59.2696 29.6077 59.3817 29.9488 59.3817 30.3706C59.3817 30.7913 59.2696 31.1305 59.0449 31.3906C58.8196 31.65 58.5247 31.7797 58.1567 31.7797ZM54.27 31.7074V28.0421H54.4916H54.7124V29.4013L54.7883 29.3009C54.9805 29.0745 55.2213 28.9598 55.5098 28.9598C55.7992 28.9598 56.0245 29.0396 56.1822 29.1983C56.3389 29.3588 56.4177 29.5843 56.4177 29.8794L56.4181 31.7074H56.1968H55.9755V29.9922C55.9755 29.7706 55.9335 29.6119 55.8491 29.5142C55.7667 29.4163 55.6302 29.3674 55.4411 29.3674C55.2177 29.3674 55.0405 29.4492 54.9087 29.6137C54.778 29.7768 54.7122 29.9986 54.7122 30.2784L54.7124 31.7072H54.4916H54.27V31.7074ZM53.8157 30.7473C53.7699 31.0834 53.6522 31.3391 53.4638 31.5149C53.275 31.6904 53.0234 31.7799 52.7098 31.7799C52.3603 31.7799 52.081 31.6528 51.8733 31.3982C51.6658 31.1437 51.5607 30.8011 51.5607 30.3707C51.5607 29.9404 51.6682 29.5985 51.8843 29.3433C52.0996 29.0876 52.3898 28.9598 52.7542 28.9598C53.0706 28.9598 53.3246 29.0471 53.5128 29.2229C53.701 29.3986 53.8013 29.6398 53.8151 29.9471H53.3897C53.3718 29.7556 53.3051 29.6079 53.193 29.5038C53.0792 29.3984 52.9285 29.3458 52.7396 29.3458C52.5171 29.3458 52.3408 29.4369 52.2146 29.6194C52.0877 29.8005 52.0237 30.0516 52.0237 30.3707C52.0237 30.7096 52.0823 30.9653 52.2009 31.1362C52.3186 31.3073 52.4948 31.3927 52.7277 31.3927C52.8993 31.3927 53.0437 31.3372 53.1598 31.2248C53.2757 31.1119 53.3516 30.9531 53.3899 30.7474L53.8157 30.7473ZM50.6242 29.1044C50.604 28.8744 50.5138 28.6951 50.3561 28.5702C50.1967 28.4453 49.9843 28.3823 49.7172 28.3823C49.4421 28.3823 49.2329 28.4359 49.0901 28.5448C48.9481 28.6516 48.8767 28.8105 48.8767 29.0172C48.8769 29.159 48.9232 29.2653 49.0188 29.3338C49.1145 29.4043 49.3052 29.4727 49.5917 29.5414L50.2216 29.6933C50.5593 29.7744 50.8003 29.8944 50.9449 30.0532C51.0898 30.2119 51.1621 30.4365 51.1621 30.7248C51.1621 31.0573 51.0377 31.3204 50.7893 31.5147C50.5409 31.7097 50.2041 31.8067 49.7794 31.8067C49.3065 31.8067 48.9373 31.6942 48.671 31.4705C48.4116 31.2487 48.2825 30.9465 48.2825 30.5621V30.5349H48.7325C48.7409 30.8009 48.8354 31.0064 49.0179 31.1501C49.1999 31.2947 49.454 31.3672 49.7794 31.3672C50.079 31.3672 50.3069 31.3144 50.4639 31.2092C50.6195 31.1059 50.6965 30.952 50.6965 30.75C50.6965 30.5734 50.6454 30.4429 50.5436 30.3583C50.4417 30.2758 50.2364 30.1958 49.9276 30.1208L49.2973 29.9694C48.9784 29.8925 48.751 29.7864 48.6144 29.6502C48.479 29.5142 48.4116 29.3263 48.4116 29.0847C48.4116 28.7341 48.5293 28.4564 48.7638 28.2508C48.9996 28.0461 49.3175 27.9427 49.7173 27.9427C50.1244 27.9427 50.4489 28.0461 50.6892 28.2515C50.9303 28.4582 51.0583 28.742 51.0749 29.1048L50.6243 29.1044H50.6242ZM45.3365 31.7074V29.0396H45.546H45.7576V29.4959L45.8779 29.3016C46.0448 29.0745 46.2514 28.9598 46.4954 28.9598L46.6208 28.9812V29.4417L46.5309 29.4386C46.2907 29.4386 46.105 29.5111 45.9751 29.6568C45.8444 29.8014 45.7796 30.0099 45.7796 30.2784V31.7072H45.5579H45.3363L45.3365 31.7074ZM44.2718 30.1688C44.2579 29.9217 44.1968 29.7291 44.0891 29.59C43.9694 29.438 43.7942 29.3617 43.5623 29.3617C43.3309 29.3617 43.1441 29.4492 43.0049 29.6248C42.8946 29.764 42.8277 29.944 42.8055 30.1688H44.2718ZM43.533 31.7797C43.161 31.7797 42.8686 31.6593 42.6553 31.4207C42.4419 31.1811 42.3355 30.8504 42.3355 30.4277C42.3355 29.9789 42.4475 29.6217 42.6739 29.3568C42.8995 29.092 43.2014 28.9595 43.5818 28.9595C43.9271 28.9595 44.2051 29.0891 44.4165 29.3484C44.6289 29.6075 44.7335 29.9486 44.7335 30.3704L44.729 30.5302H42.8055C42.8234 30.7958 42.8832 30.9987 42.9856 31.1388C43.1097 31.3078 43.3062 31.3924 43.5762 31.3924C43.7441 31.3924 43.8914 31.3444 44.0185 31.2476C44.1447 31.1517 44.2216 31.0288 44.2494 30.8787H44.6871C44.6215 31.1716 44.4906 31.3942 44.293 31.5483C44.0965 31.7021 43.8432 31.7795 43.5328 31.7795L43.533 31.7797ZM41.3395 28.0419H41.7922V28.5512H41.3395V28.0419ZM41.3443 31.7072V29.0394H41.567H41.7877V31.7072H41.567H41.3443ZM38.511 29.0394H38.7697H39.0286L39.7342 31.2233H39.7333L40.4642 29.0394H40.706H40.952L39.9697 31.7072H39.7342H39.4961L38.5112 29.0394H38.511ZM37.5966 30.6503V30.3613C37.5141 30.4014 37.4232 30.4277 37.3232 30.4438L36.917 30.5029C36.7046 30.5322 36.5479 30.582 36.4495 30.6541C36.3522 30.7235 36.3022 30.8205 36.3022 30.9405C36.3022 31.0909 36.343 31.2056 36.4236 31.2865C36.5025 31.3672 36.6174 31.4075 36.7648 31.4075C36.9977 31.4075 37.1944 31.3438 37.3556 31.2149C37.4652 31.1256 37.5395 31.0243 37.5746 30.9116L37.5896 30.809L37.597 30.6503H37.5966ZM36.6786 31.7795C36.4208 31.7795 36.2166 31.7101 36.0666 31.5699C35.9155 31.4298 35.8391 31.2412 35.8391 31.0044C35.8393 30.765 35.9094 30.5743 36.0514 30.4334C36.1946 30.2917 36.4012 30.2031 36.6729 30.1686L37.2768 30.0925L37.4171 30.0671L37.5496 29.9771L37.5968 29.808V29.7846C37.5968 29.6415 37.544 29.5308 37.4373 29.4492C37.3307 29.3685 37.1813 29.329 36.9902 29.329C36.8085 29.329 36.6668 29.371 36.5638 29.4576C36.4607 29.5421 36.3987 29.6699 36.3781 29.839H35.9701C35.9907 29.5469 36.0935 29.3272 36.2754 29.1806C36.4574 29.033 36.7176 28.9598 37.058 28.9598C37.3778 28.9598 37.621 29.0303 37.7877 29.1713C37.9561 29.3113 38.0391 29.516 38.0391 29.7846L38.0394 31.2509L38.0802 31.3597L38.1898 31.401L38.2482 31.3953L38.3297 31.3811V31.705L38.1952 31.7433L38.0735 31.7587C37.9065 31.7587 37.7859 31.7125 37.71 31.6195C37.6612 31.5575 37.6257 31.4714 37.6044 31.3575L37.4915 31.4767C37.2696 31.6778 36.9988 31.7793 36.679 31.7793L36.6786 31.7795ZM32.3804 31.7072L33.6645 29.8763L32.4615 28.0417H32.7649H33.0672L33.9551 29.4722L34.9083 28.0417H35.2014H35.4973L34.2302 29.8441L35.5492 31.707H35.2496H34.9499L33.9566 30.2314L32.9737 31.707H32.678H32.3804V31.7072Z" fill="#9D9E9E"/>
<path fill-rule="evenodd" clip-rule="evenodd" d="M26.2711 32.8316H26.5057L26.9515 33.797L27.3975 32.8316H27.6323L27.0572 34.0152V34.7617H26.8457V34.0152L26.2709 32.8316H26.2711ZM25.0211 32.8315H26.2246V33.0257H25.7278V34.7615H25.517V33.0257H25.0211V32.8315ZM24.5269 32.8313H24.7375V34.7613H24.5269V32.8313ZM23.8481 33.3694C23.8481 33.1401 23.7144 33.0256 23.4485 33.0256H23.1526V33.7235H23.4836C23.7268 33.7235 23.848 33.6051 23.8481 33.3692V33.3694ZM24.1505 34.7613H23.9002C23.877 34.6741 23.86 34.5952 23.8526 34.5247L23.8406 34.3087C23.8406 34.1725 23.8108 34.0729 23.7524 34.011C23.694 33.9479 23.6141 33.917 23.5132 33.917H23.1526V34.7613H22.941V32.8313H23.4418C23.6801 32.8313 23.8453 32.8773 23.9323 32.9673C24.0207 33.0595 24.0639 33.1844 24.0639 33.3471C24.0643 33.6148 23.9408 33.7686 23.6931 33.8082C23.8231 33.825 23.9103 33.8619 23.9565 33.917C24.0043 33.9714 24.0299 34.0523 24.0344 34.1604C24.0376 34.257 24.0513 34.396 24.0753 34.578C24.0901 34.6646 24.1151 34.7097 24.1503 34.7153L24.1505 34.7613ZM21.8942 33.9594V33.7658H22.5211V34.7811H22.3597V34.4692C22.2984 34.6967 22.1508 34.8112 21.9182 34.8112C21.7208 34.8112 21.5696 34.7352 21.4666 34.584C21.363 34.4317 21.3109 34.1772 21.3109 33.8204C21.311 33.453 21.3619 33.1872 21.4648 33.0256C21.5679 32.8621 21.7253 32.7814 21.937 32.7814C22.1169 32.7814 22.2568 32.8351 22.3559 32.9439C22.4555 33.05 22.5045 33.1976 22.5045 33.3846H22.2873C22.277 33.111 22.1584 32.9752 21.9312 32.9752C21.7886 32.9752 21.6857 33.0382 21.6233 33.1621C21.5605 33.287 21.5286 33.5085 21.5286 33.8288C21.5288 34.1314 21.56 34.339 21.6233 34.4515C21.6857 34.5623 21.7857 34.618 21.9218 34.618C22.0722 34.6176 22.1742 34.5566 22.2279 34.4365C22.2838 34.3162 22.3098 34.1577 22.3098 33.9594H21.8944H21.8942ZM20.0896 34.7613V32.8313H21.0347V33.0256H20.3002V33.6634H20.9892V33.8567H20.3002V34.5676H21.041V34.7612H20.0896V34.7613ZM18.6726 32.8311H19.8756V33.0254H19.3793V34.7612H19.1687V33.0254H18.6726V32.8311ZM17.2756 32.8309H17.6217L18.2284 34.5798V32.8309H18.4386V34.761H18.093L17.4864 33.0046V34.761H17.2756V32.8309ZM16.6261 32.8307H16.8375V34.7608H16.6261V32.8307ZM14.7926 33.5509L14.9586 33.3935L15.0105 33.2169L14.9613 33.0639L14.8285 33.0026L14.6942 33.0639L14.6421 33.2065C14.6421 33.2958 14.6924 33.4103 14.7924 33.5511L14.7926 33.5509ZM14.7203 33.8133C14.6237 33.8798 14.555 33.9486 14.5153 34.018C14.4746 34.0865 14.4538 34.1655 14.4538 34.2565C14.4542 34.372 14.4872 34.4602 14.5541 34.5223C14.6211 34.5855 14.7136 34.6174 14.8313 34.6174C14.9649 34.6171 15.0659 34.5572 15.1346 34.4369L14.7203 33.8133ZM14.6302 33.6665C14.5086 33.506 14.4473 33.3614 14.4473 33.2326C14.4475 33.1154 14.4818 33.0194 14.5505 32.9443C14.6201 32.8683 14.7089 32.8307 14.8176 32.8307C14.9383 32.8307 15.0356 32.8673 15.1068 32.9396C15.1811 33.0119 15.2172 33.1048 15.2172 33.2167C15.2173 33.3847 15.1048 33.5452 14.8795 33.6975L15.246 34.2386L15.3006 34.0357L15.3194 33.8761H15.506C15.5031 33.9634 15.4872 34.0585 15.4613 34.1624C15.4355 34.2659 15.4054 34.3505 15.3702 34.4124L15.6248 34.7701H15.3684L15.2462 34.5955C15.1432 34.7392 14.9985 34.8106 14.8121 34.8106C14.6282 34.8106 14.4856 34.7619 14.3862 34.6624C14.2862 34.5636 14.237 34.4239 14.237 34.2433C14.2371 34.1213 14.2665 34.0189 14.3253 33.9333C14.3839 33.8489 14.4845 33.7605 14.6303 33.6665H14.6302ZM12.3276 34.7608V32.8307H13.2726V33.025H12.5391V33.6628H13.2274V33.8562H12.5391V34.5671H13.2793V34.7606H12.3276V34.7608ZM11.7959 34.0676H12.0134L11.9926 34.2966C11.9778 34.4507 11.9232 34.5738 11.8286 34.6689C11.7339 34.7637 11.6113 34.8106 11.4613 34.8106C11.2501 34.8106 11.0979 34.7356 11.0031 34.5853C10.9095 34.435 10.863 34.2134 10.863 33.9221L10.8632 33.7793C10.8632 33.4421 10.9113 33.1904 11.0096 33.0268C11.1071 32.8627 11.2591 32.7809 11.4648 32.7809C11.6299 32.7809 11.7624 32.8335 11.8617 32.9385C11.9627 33.0447 12.0128 33.181 12.0128 33.3482L12.013 33.4037H11.7956C11.7857 33.1172 11.6705 32.9744 11.4518 32.9744C11.3341 32.9744 11.243 33.0325 11.1781 33.1481C11.1125 33.2655 11.0797 33.5042 11.0797 33.8666C11.08 34.1157 11.1094 34.3027 11.1678 34.4294C11.2273 34.5543 11.32 34.6174 11.4489 34.6174C11.6427 34.6171 11.753 34.484 11.7797 34.2172L11.7956 34.0678L11.7959 34.0676ZM9.37098 32.8304H9.71694L10.323 34.5793V32.8304H10.5347V34.7604H10.1887L9.58227 33.004V34.7604H9.37098V32.8304ZM8.09386 34.7604V32.8304H9.03764V33.0246H8.30335V33.6625H8.9922V33.8558H8.30335V34.5667H9.04431V34.7602H8.09386V34.7604ZM6.84721 32.8302H7.05778V34.5667H7.83137V34.7602H6.84721V32.8302ZM5.57587 32.83H5.78716V34.5665H6.56165V34.7601H5.57587V32.83ZM4.28198 34.7601V32.83H5.22792V33.0243H4.49363V33.6621H5.18159V33.8555H4.49363V34.5663H5.23459V34.7599H4.28198V34.7601ZM3.75051 34.0669H3.96775L3.94792 34.2959C3.93242 34.45 3.87743 34.5731 3.78278 34.6682C3.68832 34.763 3.5659 34.8099 3.41555 34.8099C3.20444 34.8099 3.0521 34.7349 2.95854 34.5846C2.86479 34.4343 2.81756 34.2126 2.81756 33.9214V33.7786C2.81756 33.4413 2.86677 33.1897 2.96376 33.0261C3.06148 32.862 3.21327 32.7802 3.41916 32.7802C3.58447 32.7802 3.71698 32.8327 3.81596 32.9377C3.91727 33.044 3.96703 33.1802 3.96703 33.3475L3.96739 33.403H3.75015C3.74006 33.1165 3.62504 32.9737 3.40599 32.9737C3.28935 32.9737 3.19723 33.0318 3.13251 33.1474C3.06707 33.2648 3.03407 33.5034 3.03407 33.8659C3.03425 34.1149 3.06292 34.3019 3.12241 34.4286C3.1819 34.5535 3.27529 34.6167 3.40419 34.6167C3.59709 34.6164 3.70761 34.4832 3.73519 34.2165L3.75015 34.0671L3.75051 34.0669ZM1.31328 34.7601L1.85215 33.7718L1.32915 32.8298H1.58046L1.97564 33.5838H1.97636L2.37262 32.8298H2.62393L2.1013 33.7718L2.6398 34.7601H2.38199L1.97654 33.9533L1.56424 34.7601H1.31364H1.31328ZM0.186523 34.7601V32.83H1.13156V33.0243H0.397093V33.6621H1.08613V33.8555H0.397093V34.5663H1.13787V34.7599H0.186523V34.7601Z" fill="#1B4E9B"/>
<path fill-rule="evenodd" clip-rule="evenodd" d="M15.6302 28.1118C15.6302 28.2508 15.6569 28.3549 15.7099 28.4244C15.7638 28.4938 15.8415 28.5289 15.9472 28.5289C16.1521 28.5289 16.2551 28.3868 16.2551 28.1005C16.2553 27.7923 16.1487 27.6375 15.9362 27.6375C15.7312 27.6375 15.6302 27.7952 15.6302 28.112V28.1118ZM15.4521 28.9777H15.6757C15.6757 29.162 15.7627 29.2529 15.9362 29.2529C16.0485 29.2529 16.1329 29.1946 16.1866 29.0783C16.2405 28.9616 16.272 28.7599 16.2794 28.4732C16.2053 28.6423 16.0827 28.7259 15.9113 28.7259C15.7481 28.7259 15.6227 28.6695 15.5365 28.555C15.4505 28.4403 15.4067 28.2994 15.4067 28.1332C15.4069 27.9313 15.4521 27.764 15.545 27.6345C15.6378 27.5049 15.7647 27.4401 15.9281 27.4401C16.1238 27.4401 16.2666 27.5095 16.3566 27.6495C16.4474 27.7875 16.492 28.0185 16.492 28.343C16.4922 28.744 16.4474 29.0294 16.3555 29.1977C16.2648 29.3668 16.1163 29.4503 15.9075 29.4503C15.7665 29.4503 15.6562 29.407 15.5767 29.3195C15.4977 29.2323 15.4559 29.1187 15.4525 28.9777H15.4521ZM14.2419 28.7204H14.7874V27.7682L14.2419 28.7204ZM14.0702 28.7157L14.8045 27.4401H15.003V28.7204H15.1784V28.9176H15.003V29.4105H14.7872V28.9176H14.0701V28.7157H14.0702ZM13.0334 28.1118C13.0334 28.2508 13.0601 28.3549 13.1131 28.4244C13.167 28.4938 13.2458 28.5289 13.3504 28.5289C13.5557 28.5289 13.6585 28.3868 13.6585 28.1005C13.6585 27.7923 13.5527 27.6375 13.3394 27.6375C13.1355 27.6375 13.0334 27.7952 13.0334 28.112V28.1118ZM12.8553 28.9777H13.0789C13.0789 29.162 13.166 29.2529 13.3394 29.2529C13.4528 29.2529 13.5361 29.1946 13.5909 29.0783C13.6448 28.9616 13.6753 28.7599 13.6826 28.4732C13.6094 28.6423 13.487 28.7259 13.3145 28.7259C13.1524 28.7259 13.027 28.6695 12.9399 28.555C12.8548 28.4403 12.8101 28.2994 12.8101 28.1332C12.8101 27.9313 12.8564 27.764 12.9493 27.6345C13.0412 27.5049 13.1683 27.4401 13.3313 27.4401C13.5271 27.4401 13.6698 27.5095 13.7609 27.6495C13.851 27.7875 13.8963 28.0185 13.8963 28.343C13.8963 28.744 13.8507 29.0294 13.7589 29.1977C13.668 29.3668 13.5195 29.4503 13.3118 29.4503C13.1701 29.4503 13.0598 29.407 12.9808 29.3195C12.9013 29.2323 12.8595 29.1187 12.8557 28.9777H12.8553ZM11.6033 27.8047C11.7684 27.8047 11.8823 27.7775 11.9427 27.7229C12.0042 27.6674 12.043 27.5735 12.0578 27.4402H12.2256V29.4107H12.0085V27.9736H11.6033V27.8047Z" fill="#FEFEFE"/>
<path fill-rule="evenodd" clip-rule="evenodd" d="M98.8864 38.6602C98.6469 38.6602 98.4726 38.737 98.3612 38.8922C98.251 39.046 98.1961 39.2914 98.1961 39.6277C98.1961 39.9444 98.2548 40.1876 98.3742 40.3594C98.4939 40.5303 98.6646 40.6169 98.8862 40.6169C99.0913 40.6169 99.2583 40.5382 99.3852 40.3791C99.5114 40.2225 99.5741 40.0139 99.5741 39.7546C99.5743 39.4041 99.5148 39.1347 99.3953 38.9448C99.2768 38.7553 99.1059 38.6605 98.8864 38.6605V38.6602ZM98.8611 40.9848C98.5218 40.9848 98.2519 40.8563 98.0504 40.6006C97.8503 40.3432 97.7491 39.9968 97.7491 39.56C97.7493 39.1749 97.8463 38.863 98.0412 38.6264C98.2359 38.3897 98.4883 38.2703 98.8016 38.2703C99.1124 38.2701 99.3591 38.4045 99.5406 38.6715L99.5741 38.7202V37.3884H99.7878H99.9998V40.9165H99.8033H99.6048V40.5659L99.5501 40.645C99.3758 40.8723 99.1458 40.985 98.8611 40.985V40.9848ZM96.2551 40.6138C96.4798 40.6138 96.6582 40.5245 96.79 40.3472C96.9236 40.1695 96.9896 39.9299 96.9896 39.6294C96.9896 39.3288 96.9236 39.0894 96.79 38.911C96.6582 38.7323 96.4792 38.6432 96.2551 38.6432C96.0316 38.6432 95.8535 38.7323 95.7219 38.911C95.5892 39.0894 95.5234 39.3288 95.5234 39.6294C95.5234 39.9299 95.5892 40.1695 95.7219 40.3472C95.8535 40.5245 96.0316 40.6138 96.2551 40.6138ZM96.2551 40.9848C95.9047 40.9848 95.6207 40.8608 95.4037 40.611C95.1866 40.3611 95.0772 40.0344 95.0772 39.6294C95.0774 39.2229 95.1866 38.895 95.4037 38.645C95.6207 38.3952 95.9043 38.2703 96.2551 38.2703C96.6101 38.2701 96.8941 38.3952 97.1109 38.645C97.326 38.8946 97.4345 39.2227 97.4345 39.6294C97.4345 40.0342 97.326 40.3611 97.1109 40.611C96.8939 40.8608 96.6101 40.9848 96.2551 40.9848ZM93.5832 40.6138C93.8078 40.6138 93.9867 40.5245 94.1192 40.3472C94.2509 40.1695 94.3177 39.9299 94.3177 39.6294C94.3177 39.3288 94.2509 39.0894 94.1192 38.911C93.9867 38.7323 93.8076 38.6432 93.5832 38.6432C93.3596 38.6432 93.1819 38.7323 93.049 38.911C92.9185 39.0894 92.8518 39.3288 92.8518 39.6294C92.8518 39.9299 92.9185 40.1695 93.049 40.3472C93.1819 40.5245 93.3598 40.6138 93.5832 40.6138ZM93.5832 40.9848C93.2316 40.9848 92.9488 40.8608 92.7319 40.611C92.5139 40.3611 92.4063 40.0344 92.4063 39.6294C92.4065 39.2229 92.5139 38.895 92.7319 38.645C92.9488 38.3952 93.2316 38.2703 93.5832 38.2703C93.9376 38.2701 94.2223 38.3952 94.439 38.645C94.6551 38.8946 94.7626 39.2227 94.7626 39.6294C94.7629 40.0342 94.6551 40.3611 94.439 40.611C94.2221 40.8608 93.9374 40.9848 93.5832 40.9848ZM90.8903 38.664C90.652 38.664 90.4776 38.7409 90.3689 38.8941C90.2579 39.048 90.2029 39.2925 90.2029 39.6268C90.2031 39.9425 90.2624 40.1858 90.3819 40.3556C90.5018 40.5258 90.6702 40.6112 90.8901 40.6112C91.0973 40.6112 91.2639 40.5321 91.3901 40.3766C91.517 40.2186 91.5794 40.0121 91.5794 39.7546C91.5794 39.3913 91.5224 39.1188 91.4084 38.9366C91.2936 38.7553 91.1211 38.6642 90.8901 38.6642L90.8903 38.664ZM90.8078 41.6423C91.0526 41.6423 91.2379 41.5644 91.367 41.4086C91.4941 41.2527 91.5588 41.0263 91.5588 40.7275V40.6421L91.5563 40.645C91.3809 40.8723 91.1517 40.985 90.8687 40.985C90.5285 40.985 90.2586 40.8564 90.0581 40.6008C89.8578 40.3433 89.7565 39.997 89.7565 39.5602C89.7569 39.1751 89.856 38.8632 90.0534 38.6266C90.251 38.3899 90.5087 38.2705 90.8278 38.2705C91.1341 38.2703 91.3749 38.4047 91.5532 38.6717L91.5846 38.7177V38.3485H91.9841V40.727C91.9823 41.1599 91.8867 41.4802 91.6958 41.6887C91.5051 41.8963 91.2109 42.0006 90.8148 42.0006C90.5265 42.0006 90.2983 41.933 90.1293 41.7996C89.9606 41.6643 89.8586 41.47 89.8231 41.2136H90.2593C90.2842 41.3518 90.3444 41.4568 90.44 41.5319C90.5368 41.6062 90.6579 41.6425 90.8074 41.6425L90.8078 41.6423ZM87.2921 40.9163V38.3483H87.4933H87.6973V38.7871L87.8122 38.6001C87.9735 38.3802 88.172 38.2705 88.4084 38.2705L88.529 38.292V38.7343L88.441 38.7325C88.2099 38.7325 88.032 38.8011 87.9068 38.9421C87.7806 39.0818 87.7175 39.2821 87.7175 39.5414V40.9163H87.5055H87.2921ZM86.3045 39.4351C86.2904 39.1966 86.2329 39.0115 86.128 38.878C86.0142 38.7316 85.8444 38.6583 85.6216 38.6583C85.3984 38.6581 85.2185 38.742 85.0838 38.9118C84.9782 39.0453 84.914 39.2191 84.8927 39.4351H86.3045ZM85.5942 40.9848C85.2343 40.9848 84.9531 40.8701 84.7481 40.6393C84.5412 40.4089 84.4402 40.0904 84.4402 39.6849C84.4402 39.2527 84.5476 38.9089 84.7656 38.6536C84.9828 38.399 85.2738 38.2703 85.6402 38.2703C85.9722 38.2701 86.2394 38.3952 86.4442 38.645C86.6474 38.8946 86.7494 39.2227 86.7494 39.6294L86.7447 39.7835H84.8929C84.9095 40.0388 84.9677 40.2342 85.0651 40.3687C85.1857 40.5311 85.3741 40.6136 85.6347 40.6136C85.7972 40.6136 85.9378 40.5667 86.0602 40.4737C86.181 40.3815 86.2558 40.2634 86.283 40.1186H86.7031C86.6407 40.4001 86.5147 40.6152 86.3245 40.763C86.1356 40.9114 85.8915 40.9846 85.594 40.9846L85.5942 40.9848ZM84.1703 40.9136C84.0257 40.9359 83.9201 40.9474 83.8534 40.9474C83.6677 40.9474 83.5361 40.905 83.4589 40.8225C83.3823 40.7387 83.3441 40.5959 83.3441 40.3923V38.7003H82.9929V38.3481H83.3441V37.6276H83.7708V38.3481H84.1703V38.7003H83.7708V40.3923L83.8375 40.5294L84.0194 40.58H84.1703V40.9136ZM82.1191 39.8982V39.6203C82.0401 39.6588 81.9529 39.6849 81.8564 39.699L81.4652 39.7574C81.2611 39.7855 81.1098 39.8343 81.0161 39.902C80.9218 39.9707 80.8733 40.0629 80.8733 40.1792C80.8733 40.3229 80.9123 40.4337 80.9892 40.5117C81.0662 40.5897 81.1766 40.628 81.3193 40.628C81.5429 40.628 81.7322 40.5657 81.8876 40.4429C81.9927 40.3565 82.0641 40.2588 82.0983 40.15L82.1122 40.0512L82.1189 39.8982H82.1191ZM81.2351 40.9848C80.9876 40.9848 80.7909 40.9182 80.6463 40.784C80.5005 40.6494 80.4284 40.4673 80.4284 40.2393C80.4284 40.009 80.4958 39.826 80.6332 39.6896C80.7697 39.5532 80.9689 39.4678 81.2315 39.4351L81.8119 39.3619L81.9465 39.3367L82.0745 39.2501L82.1191 39.0878V39.0661C82.1191 38.928 82.0688 38.821 81.966 38.7431C81.864 38.6651 81.7203 38.6267 81.5357 38.6267C81.3613 38.6266 81.2238 38.6669 81.1248 38.7505C81.0267 38.8334 80.9663 38.9552 80.9458 39.1188H80.5535C80.5741 38.8371 80.6719 38.6249 80.8466 38.4838C81.0221 38.3421 81.2741 38.2707 81.6006 38.2707C81.9085 38.2705 82.1429 38.3392 82.3042 38.4745C82.4649 38.6098 82.5453 38.807 82.5453 39.0663L82.5456 40.477L82.5844 40.5822L82.69 40.6209L82.7457 40.6171L82.8258 40.6019V40.914L82.6958 40.9523L82.579 40.9675C82.4174 40.9675 82.3017 40.9222 82.2281 40.8331C82.1811 40.7728 82.1467 40.6894 82.1261 40.5804L82.0177 40.695C81.8043 40.8893 81.5434 40.9852 81.235 40.9852L81.2351 40.9848ZM79.6382 39.4351C79.6263 39.1966 79.5677 39.0115 79.4639 38.878C79.348 38.7316 79.1792 38.6583 78.9573 38.6583C78.7328 38.6581 78.5529 38.742 78.4193 38.9118C78.314 39.0453 78.2488 39.2191 78.2275 39.4351H79.6382ZM78.9279 40.9848C78.5699 40.9848 78.2886 40.8701 78.0818 40.6393C77.877 40.4089 77.775 40.0904 77.775 39.6849C77.775 39.2527 77.8832 38.9089 78.1004 38.6536C78.3167 38.399 78.6097 38.2703 78.975 38.2703C79.307 38.2701 79.5749 38.3952 79.779 38.645C79.9822 38.8946 80.0831 39.2227 80.0831 39.6294L80.0797 39.7835H78.2273C78.2454 40.0388 78.3025 40.2342 78.3999 40.3687C78.5197 40.5311 78.7099 40.6136 78.9692 40.6136C79.1316 40.6136 79.2733 40.5667 79.395 40.4737C79.5165 40.3815 79.5906 40.2634 79.6175 40.1186H80.0386C79.9757 40.4001 79.8495 40.6152 79.6593 40.763C79.4713 40.9114 79.2263 40.9846 78.9279 40.9846V40.9848ZM76.3654 40.9163V38.3483H76.5677H76.7705V38.7871L76.8866 38.6001C77.047 38.3802 77.247 38.2705 77.4819 38.2705L77.6014 38.292V38.7343L77.5152 38.7325C77.2837 38.7325 77.1054 38.8011 76.981 38.9421C76.8559 39.0818 76.7919 39.2821 76.7919 39.5414V40.9163H76.5787H76.3654ZM74.6462 38.664C74.4086 38.664 74.2332 38.7409 74.1239 38.8941C74.0138 39.048 73.9588 39.2925 73.9588 39.6268C73.9588 39.9425 74.0192 40.1858 74.1387 40.3556C74.2575 40.5258 74.4263 40.6112 74.646 40.6112C74.8537 40.6112 75.0199 40.5321 75.1469 40.3766C75.273 40.2186 75.3361 40.0121 75.3361 39.7546C75.3361 39.3913 75.2785 39.1188 75.1643 38.9366C75.0506 38.7553 74.8768 38.6642 74.6462 38.6642V38.664ZM74.5633 41.6423C74.8083 41.6423 74.9938 41.5644 75.1225 41.4086C75.2509 41.2527 75.3143 41.0263 75.3143 40.7275L75.3147 40.6421L75.3118 40.645C75.1364 40.8723 74.9083 40.985 74.6253 40.985C74.2851 40.985 74.0152 40.8564 73.8137 40.6008C73.6137 40.3433 73.5131 39.997 73.5131 39.5602C73.5135 39.1751 73.6116 38.8632 73.8092 38.6266C74.0077 38.3899 74.2646 38.2705 74.5844 38.2705C74.8896 38.2703 75.1306 38.4047 75.3087 38.6717L75.3405 38.7177V38.3485H75.7411V40.727C75.7393 41.1599 75.6424 41.4802 75.4506 41.6887C75.2606 41.8963 74.9664 42.0006 74.5703 42.0006C74.2822 42.0006 74.0538 41.933 73.8851 41.7996C73.7165 41.6643 73.6141 41.47 73.5797 41.2136H74.0152C74.0408 41.3518 74.101 41.4568 74.1966 41.5319C74.2912 41.6062 74.4138 41.6425 74.5629 41.6425L74.5633 41.6423ZM71.5996 39.4351C71.5872 39.1966 71.529 39.0115 71.424 38.878C71.3103 38.7316 71.1405 38.6583 70.9176 38.6583C70.6941 38.6581 70.5145 38.742 70.3798 38.9118C70.2753 39.0453 70.21 39.2191 70.1887 39.4351H71.5996ZM70.89 40.9848C70.5313 40.9848 70.25 40.8701 70.0442 40.6393C69.8386 40.4089 69.7362 40.0904 69.7362 39.6849C69.7362 39.2527 69.8437 38.9089 70.0627 38.6536C70.2789 38.399 70.5709 38.2703 70.9371 38.2703C71.2694 38.2701 71.5362 38.3952 71.7403 38.645C71.9436 38.8946 72.0455 39.2227 72.0455 39.6294L72.0402 39.7835H70.1889C70.2057 40.0388 70.2648 40.2342 70.3613 40.3687C70.481 40.5311 70.6712 40.6136 70.9306 40.6136C71.0929 40.6136 71.2338 40.5667 71.3563 40.4737C71.4779 40.3815 71.5529 40.2634 71.5791 40.1186H72.0002C71.9371 40.4001 71.8107 40.6152 71.6216 40.763C71.4327 40.9114 71.1864 40.9846 70.89 40.9846V40.9848ZM67.1862 40.9163V37.3882H67.3996H67.6118V38.6958L67.6852 38.5988C67.8698 38.3801 68.1013 38.2703 68.3803 38.2703C68.6594 38.2701 68.8756 38.3481 69.0268 38.5013C69.1779 38.6554 69.2552 38.8732 69.2552 39.1561V40.9163H69.042H68.8287V39.2642C68.8287 39.0518 68.7878 38.8988 68.707 38.8039C68.6266 38.7107 68.4964 38.664 68.3136 38.664C68.0978 38.664 67.928 38.7427 67.8025 38.9006C67.6749 39.0582 67.6118 39.2715 67.6118 39.5412V40.9162H67.3996H67.1862V40.9163ZM66.7948 40.9136C66.6489 40.9359 66.5452 40.9474 66.4775 40.9474C66.2912 40.9474 66.1605 40.905 66.0834 40.8225C66.0064 40.7387 65.9682 40.5959 65.9682 40.3923L65.9685 38.7003H65.6177V38.3481H65.9685V37.6276H66.3953V38.3481H66.7948V38.7003H66.3953V40.3923L66.462 40.5294L66.6435 40.58H66.7948V40.9136ZM63.1799 40.9163V38.3483H63.382H63.5852V38.7871L63.7011 38.6001C63.8625 38.3802 64.0595 38.2705 64.2962 38.2705L64.4168 38.292V38.7343L64.3289 38.7325C64.0981 38.7325 63.9207 38.8011 63.7945 38.9421C63.6694 39.0818 63.6056 39.2821 63.6056 39.5414V40.9163H63.3934H63.1799ZM61.4817 40.6138C61.7063 40.6138 61.8851 40.5245 62.0177 40.3472C62.1494 40.1695 62.2172 39.9299 62.2172 39.6294C62.2172 39.3288 62.1494 39.0894 62.0177 38.911C61.8851 38.7323 61.7061 38.6432 61.4817 38.6432C61.2585 38.6432 61.0804 38.7323 60.9475 38.911C60.8161 39.0894 60.7503 39.3288 60.7503 39.6294C60.7503 39.9299 60.8159 40.1695 60.9475 40.3472C61.0804 40.5245 61.2583 40.6138 61.4817 40.6138ZM61.4817 40.9848C61.1312 40.9848 60.8473 40.8608 60.6304 40.611C60.4124 40.3611 60.3048 40.0344 60.3048 39.6294C60.3048 39.2229 60.4124 38.895 60.6304 38.645C60.8476 38.3952 61.1312 38.2703 61.4817 38.2703C61.8361 38.2701 62.1208 38.3952 62.3377 38.645C62.5529 38.8946 62.6622 39.2227 62.6622 39.6294C62.6625 40.0342 62.5529 40.3611 62.3377 40.611C62.1206 40.8608 61.8359 40.9848 61.4817 40.9848ZM57.8569 40.9163V37.3882H60.2687V37.5996V37.8109H58.3285V38.8884H60.0268V39.0988V39.3102H58.3285V40.9163H58.094H57.8569Z" fill="#1B4E9B"/>
<path fill-rule="evenodd" clip-rule="evenodd" d="M32.6653 34.3037H99.9455V34.7177H32.6653V34.3037Z" fill="#9D9E9E"/>
<path fill-rule="evenodd" clip-rule="evenodd" d="M95.2444 7.69499L95.2129 0.18457L99.9399 3.9406L95.2444 7.69499Z" fill="#BCCF17"/>
<path fill-rule="evenodd" clip-rule="evenodd" d="M70.8757 21.2418H62.1452V0.373474H57.3794L57.4238 25.261H70.8699L70.8757 21.2418ZM53.7765 0.373474H48.1048L43.2342 8.47862L38.4318 0.373474H32.76L40.6244 12.9599L32.3374 25.261H38.0092L43.0598 16.9784L47.9972 25.3061H53.5636L45.6698 12.602L53.7769 0.373291L53.7765 0.373474Z" fill="#9D9E9E"/>
<path fill-rule="evenodd" clip-rule="evenodd" d="M85.7758 8.23699C85.7704 9.1078 85.6041 9.82906 85.2861 10.4115C84.9665 10.9893 84.534 11.444 83.9933 11.7783C83.4473 12.1126 82.8314 12.3549 82.1424 12.4939C81.4589 12.6378 80.741 12.7072 80.0019 12.7017H78.4976V4.11942C78.9141 4.06665 79.3464 4.02155 79.796 3.99233C80.2458 3.9633 80.6788 3.9465 81.0944 3.9465C81.6304 3.93974 82.1764 4.0095 82.7182 4.14717C83.2644 4.2854 83.7709 4.51657 84.2317 4.84524C84.6881 5.16826 85.0635 5.60704 85.3426 6.1667C85.622 6.71997 85.7704 7.41165 85.7758 8.23699ZM91.4811 25.2635L86.1515 15.2968C87.0797 14.8929 87.8773 14.3745 88.5489 13.7272C89.2269 13.0819 89.745 12.3033 90.1088 11.3864C90.4741 10.4753 90.6558 9.41292 90.6614 8.20212C90.6504 6.74335 90.3998 5.49128 89.9046 4.45321C89.4088 3.41478 88.7194 2.56752 87.8485 1.90962C86.9723 1.25245 85.9631 0.767658 84.8242 0.462355C83.6798 0.150478 82.4613 -0.00546054 81.1631 1.73834e-05C80.491 1.73834e-05 79.8018 0.017912 79.0893 0.0527881C78.384 0.0874816 77.6955 0.127836 77.0289 0.179511C76.3618 0.236846 75.7471 0.288339 75.1952 0.352431C74.6427 0.409766 74.1815 0.467832 73.8171 0.519508L73.8175 25.2635H78.4978V16.5423H79.6941C80.0361 16.5423 80.3767 16.5298 80.7135 16.5132C81.0445 16.4953 81.3679 16.4727 81.6758 16.438L86.2888 25.2635H91.4813H91.4811Z" fill="#9D9E9E"/>
<path fill-rule="evenodd" clip-rule="evenodd" d="M99.9315 25.2193V5.34851L95.2334 9.14252V25.2193H99.9315Z" fill="#9D9E9E"/>
</g>
<defs>
<clipPath id="clip0_57_2351">
<rect width="100" height="42" fill="white"/>
</clipPath>
</defs>
</svg>
