<svg width="20" height="23" viewBox="0 0 20 23" fill="none" xmlns="http://www.w3.org/2000/svg">
<path d="M10.0939 22.9988C9.61548 22.9988 9.13805 22.8807 8.69963 22.6436L5.50948 20.9217C2.1109 19.0869 0 15.4832 0 11.519V2.31837L9.85877 0L19.7133 2.31837V11.6822C19.7133 15.5366 17.6866 19.0931 14.4257 20.9619L11.5518 22.6088C11.0979 22.8696 10.5969 23 10.0948 23L10.0939 22.9988ZM1.64296 3.61824V11.5191C1.64296 14.8806 3.42331 17.9301 6.2911 19.4783L9.48125 21.2001C9.87552 21.4127 10.3458 21.4075 10.7349 21.1847L13.6088 19.5378C16.3616 17.9608 18.0711 14.9515 18.0711 11.6822V3.61814L9.85935 1.68581L1.64296 3.61824Z" fill="#631015"/>
</svg>
