<svg width="42" height="42" viewBox="0 0 42 42" fill="none" xmlns="http://www.w3.org/2000/svg">
<rect width="42" height="42" fill="#C9A96E" fill-opacity="0.1"/>
<path fill-rule="evenodd" clip-rule="evenodd" d="M35.5 12.861C35.5 11.603 34.48 10.583 33.222 10.583H8.77802C7.52002 10.583 6.5 11.603 6.5 12.861V29.139C6.5 30.397 7.52002 31.417 8.77802 31.417H33.222C34.48 31.417 35.5 30.397 35.5 29.139V12.861ZM7.5 12.992V29.139C7.5 29.844 8.07202 30.416 8.77802 30.417H33.222C33.928 30.416 34.5 29.844 34.5 29.138V12.992L22.679 22.702C21.703 23.504 20.297 23.504 19.321 22.702L7.5 12.992ZM34.152 11.984C33.919 11.737 33.588 11.583 33.222 11.583H8.77802C8.41202 11.583 8.08099 11.737 7.84799 11.984L19.956 21.93C20.563 22.428 21.437 22.428 22.044 21.93L34.152 11.984Z" fill="#631015"/>
</svg>
