<svg width="35" height="26" viewBox="0 0 35 26" fill="none" xmlns="http://www.w3.org/2000/svg">
<path d="M1.07004 2.58782e-05C0.786044 -0.00197399 0.512068 0.112025 0.312029 0.312028C0.11003 0.514027 -0.00197047 0.786028 2.63291e-05 1.07004C-0.00197354 1.35405 0.110025 1.62802 0.312029 1.83006C0.512027 2.03005 0.786028 2.14206 1.07004 2.14206H33.07C33.354 2.14206 33.628 2.03006 33.8281 1.83006C34.0301 1.62806 34.1421 1.35406 34.1401 1.07004C34.1421 0.786043 34.0301 0.514063 33.8281 0.312028C33.6281 0.11203 33.3541 -0.00197092 33.07 2.58782e-05H1.07004Z" fill="#707070"/>
<path d="M5.58984 7.82593C5.30584 7.82593 5.03186 7.93793 4.83182 8.13793C4.62982 8.33993 4.51782 8.61193 4.51782 8.89794C4.51782 9.18194 4.62982 9.45392 4.83182 9.65595C5.03182 9.85595 5.30582 9.96995 5.58984 9.96796H28.55C28.834 9.96996 29.1079 9.85596 29.308 9.65595C29.51 9.45396 29.622 9.18196 29.622 8.89794C29.622 8.61194 29.51 8.33996 29.308 8.13793C29.108 7.93793 28.834 7.82593 28.55 7.82593H5.58984Z" fill="#707070"/>
<path d="M10.1096 15.6539C9.82561 15.6519 9.55163 15.7639 9.3496 15.9659C9.1496 16.1659 9.0376 16.4399 9.0376 16.7239C9.0436 17.3099 9.5236 17.7819 10.1096 17.7799H24.0314H24.0294C24.6154 17.7819 25.0954 17.3099 25.1014 16.7239C25.1014 16.4399 24.9894 16.1659 24.7894 15.9659C24.5874 15.7639 24.3134 15.6519 24.0294 15.6539H10.1096Z" fill="#707070"/>
<path d="M14.6139 23.4803C14.0339 23.4863 13.5639 23.9563 13.5579 24.5363C13.5559 25.1223 14.0279 25.6003 14.6139 25.6063H19.5279H19.5259C20.1119 25.6003 20.5839 25.1223 20.5819 24.5363C20.5759 23.9564 20.1059 23.4863 19.5259 23.4803H14.6139Z" fill="#707070"/>
</svg>
