<svg width="57" height="64" viewBox="0 0 57 64" fill="none" xmlns="http://www.w3.org/2000/svg">
<path fill-rule="evenodd" clip-rule="evenodd" d="M28.4896 1.63238e-05C31.7093 -0.00276299 34.7992 1.28692 37.0769 3.57719C39.355 5.8703 40.6334 8.98055 40.6334 12.2211C40.6307 15.462 39.3494 18.5722 37.0714 20.8629C36.4611 21.4799 35.7846 22.0302 35.0556 22.5H43.5383C44.5351 22.4889 45.5126 22.7529 46.3658 23.2671C47.1583 23.748 47.7658 24.4817 48.0916 25.3517L56.6104 42.3563V42.3591C57.0991 43.4654 57.1295 44.7245 56.6932 45.8558C56.2597 46.987 55.3927 47.8959 54.2909 48.3851L44.4439 52.7406C43.6377 53.1047 42.7402 53.2159 41.8704 53.0602C40.7852 55.1587 39.3494 57.0543 37.6291 58.6664C35.3759 60.7232 32.8106 62.4048 30.03 63.6473C29.0608 64.117 27.9314 64.117 26.9622 63.6473C24.1816 62.4048 21.6164 60.7232 19.3632 58.6664C17.6456 57.0543 16.2098 55.1615 15.1218 53.0658C14.2713 53.2075 13.3988 53.1047 12.6063 52.7683L12.5013 52.7183L2.68756 48.3851C0.412217 47.365 -0.617724 44.6829 0.381891 42.387C0.392936 42.3536 0.406743 42.323 0.426072 42.2952L8.90877 25.3319C9.75372 23.6003 11.5099 22.5108 13.4262 22.5274H21.9089C21.1771 22.0577 20.5034 21.5101 19.8932 20.8903C17.604 18.5999 16.3173 15.4841 16.3145 12.235C16.3118 8.98577 17.593 5.86997 19.8766 3.57401C22.163 1.27813 25.2614 -0.00837996 28.4896 1.63238e-05ZM25.9023 49.6164C26.3689 50.0472 27.0841 50.0472 27.5507 49.6164L34.7547 42.3593H34.7519C34.9756 42.1369 35.1026 41.8339 35.0998 41.5198C35.0998 41.2002 34.9756 40.8972 34.7519 40.6721C34.5338 40.4692 34.2493 40.358 33.9539 40.358C33.6391 40.358 33.3354 40.4831 33.1117 40.7082L27.4207 46.4006C27.0479 46.7759 26.4404 46.7759 26.0648 46.4006L23.9442 44.266C23.7205 44.0408 23.4195 43.9158 23.102 43.9158C22.7872 43.9158 22.4862 44.0436 22.2653 44.266C22.0444 44.4911 21.9201 44.7969 21.9229 45.1109C21.9201 45.4278 22.0444 45.7308 22.2681 45.9504L25.9433 49.6582L25.9023 49.6164ZM26.7085 51.865C27.5314 51.8678 28.3239 51.5398 28.9065 50.9534L36.1161 43.6963C37.3311 42.4705 37.3311 40.4887 36.1161 39.263L36.0526 39.2074C35.4783 38.6626 34.7217 38.3568 33.9319 38.3513C33.1063 38.3485 32.3138 38.6765 31.7257 39.2629L26.7222 44.2994L25.3084 42.8763V42.879C24.723 42.2926 23.9278 41.9646 23.1022 41.9674C21.8458 41.9674 20.7109 42.7317 20.2304 43.8991C19.7499 45.0693 20.015 46.4146 20.9042 47.3096L24.6098 51.0396C25.1814 51.5844 25.9408 51.8902 26.7305 51.8929L26.7085 51.865ZM40.0759 52.3431V52.3403C39.3772 51.8622 38.8278 51.1979 38.4853 50.4197C37.483 48.1238 38.513 45.4444 40.7883 44.4215L42.6273 43.6183C42.7626 42.4369 42.8399 41.214 42.8675 39.9549C42.8951 38.4984 42.8703 36.9781 42.7902 35.3937V35.391C42.7819 35.2159 42.7184 35.0463 42.6052 34.9073C42.4892 34.7711 42.3346 34.6766 42.1606 34.6377C39.7335 34.1874 37.3642 33.4731 35.0917 32.5031C32.8772 31.4191 30.8338 30.0182 29.0197 28.3394C28.7104 28.0864 28.2686 28.0864 27.9593 28.3394C26.1452 30.0182 24.1018 31.419 21.8873 32.5031C19.6148 33.4731 17.2455 34.1874 14.8184 34.6377C14.6444 34.6766 14.4898 34.7711 14.3738 34.9073C14.2606 35.0463 14.1971 35.2158 14.1888 35.391C14.1142 36.9697 14.0866 38.4901 14.1115 39.9521C14.1115 41.2112 14.2164 42.4342 14.3517 43.6155L16.1603 44.4187V44.4215C18.4136 45.4333 19.449 48.0738 18.4937 50.3641L18.4384 50.4864V50.4836C18.0933 51.2341 17.5548 51.8761 16.8756 52.3403C17.8531 54.1803 19.126 55.8397 20.642 57.2573C22.7626 59.1807 25.1704 60.7483 27.783 61.9046C28.2303 62.113 28.7494 62.113 29.1967 61.9046C31.7841 60.7344 34.1699 59.1556 36.2657 57.2295C37.7816 55.8091 39.0546 54.1498 40.0321 52.3125L40.0759 52.3431ZM44.6127 42.693L48.415 41.0003H48.4177C48.9037 40.7835 49.4698 41.0059 49.6852 41.4951C49.9006 41.9843 49.6797 42.5541 49.1937 42.7709L41.6165 46.1729L41.5254 46.2146C40.2635 46.8122 39.6947 48.302 40.2304 49.5945V49.6807C40.5148 50.2921 41.0201 50.7674 41.6441 51.012H41.7077C42.3345 51.2427 43.0276 51.2205 43.6378 50.9481L53.4926 46.5565C54.1166 46.2841 54.6081 45.7727 54.8567 45.1334C55.1024 44.4886 55.0831 43.7742 54.807 43.1405L46.3243 26.1772L46.2829 26.0549V26.0576C46.1089 25.5768 45.7776 25.1682 45.3413 24.9041C44.7918 24.5845 44.1677 24.4205 43.5326 24.4261H13.4459C12.8633 24.4233 12.2917 24.5817 11.7919 24.8819C11.3004 25.1932 10.9028 25.6379 10.6488 26.1633L2.16607 43.1266C1.88718 43.7575 1.87061 44.4746 2.11636 45.1195C2.36488 45.7588 2.85365 46.2702 3.48045 46.5426L13.3352 50.9342L13.3325 50.9314C13.9427 51.2038 14.6358 51.2288 15.2626 51.0037H15.3344C15.964 50.7508 16.4693 50.2616 16.7482 49.639C17.0271 49.0052 17.0409 48.2881 16.7896 47.646C16.5383 47.0095 16.0496 46.4981 15.4255 46.2229L7.78475 42.7986C7.55004 42.6958 7.36779 42.504 7.27667 42.2622C7.18279 42.0231 7.18831 41.7563 7.29324 41.5228C7.50862 41.0336 8.0747 40.8112 8.56069 41.028L12.3657 42.6929C12.2884 41.7952 12.2442 40.8919 12.2249 39.9607C12.2249 38.4376 12.2249 36.8811 12.2967 35.2718H12.294C12.3326 34.6769 12.5563 34.1127 12.9373 33.6569C13.3212 33.1899 13.8486 32.8647 14.4367 32.7313C16.7176 32.2949 18.9459 31.614 21.0804 30.6967C23.1292 29.6877 25.0207 28.3869 26.6996 26.8332C27.724 25.9299 29.2538 25.9299 30.2782 26.8332C31.9571 28.3869 33.8486 29.6877 35.8974 30.6967C38.0319 31.614 40.2603 32.2949 42.5411 32.7313C43.1292 32.8647 43.6566 33.1899 44.0405 33.6569C44.4243 34.1211 44.648 34.6964 44.6756 35.2996C44.7529 36.9089 44.7805 38.4654 44.7474 39.9885C44.7474 40.9197 44.6839 41.823 44.6065 42.7208L44.6127 42.693ZM35.7129 4.98092C33.468 2.72118 30.3063 1.63998 27.1581 2.0541C24.0103 2.47103 21.2324 4.33882 19.6446 7.10724C18.0568 9.8756 17.8359 13.2277 19.0509 16.1823C20.2659 19.1341 22.7759 21.3522 25.8437 22.1805C28.9087 23.0088 32.1837 22.3528 34.7046 20.4099C37.2256 18.4643 38.7029 15.4485 38.7029 12.252C38.7084 9.52537 37.6321 6.9073 35.7129 4.98092Z" fill="#631015"/>
</svg>
