<svg width="18" height="18" viewBox="0 0 18 18" fill="none" xmlns="http://www.w3.org/2000/svg">
<path d="M14.9914 18H3.00863C1.35277 18 0 16.6472 0 14.9914V3.00862C0 1.35277 1.35277 0 3.00863 0H14.9914C16.6472 0 18 1.35277 18 3.00862V14.9914C18 16.6546 16.6546 18 14.9914 18Z" fill="#631015"/>
<path d="M9.00391 13.6238C7.76941 13.6238 6.60884 13.1433 5.73656 12.271C4.86428 11.3987 4.38379 10.2382 4.38379 9.00367C4.38379 7.76917 4.86428 6.6086 5.73656 5.73632C6.60884 4.86404 7.76941 4.38354 9.00391 4.38354C10.2384 4.38354 11.399 4.86404 12.2713 5.73632C13.1435 6.6086 13.624 7.76917 13.624 9.00367C13.624 10.2382 13.1435 11.3987 12.2713 12.271C11.3916 13.1433 10.2384 13.6238 9.00391 13.6238ZM9.00391 5.36671C7.00063 5.36671 5.36695 6.99299 5.36695 9.00367C5.36695 11.007 6.99323 12.6406 9.00391 12.6406C11.0072 12.6406 12.6409 11.0143 12.6409 9.00367C12.6335 7.00038 11.0072 5.36671 9.00391 5.36671Z" fill="white"/>
<path d="M14.5248 4.23181C15.0147 4.23181 15.4119 3.83465 15.4119 3.34473C15.4119 2.8548 15.0147 2.45764 14.5248 2.45764C14.0349 2.45764 13.6377 2.8548 13.6377 3.34473C13.6377 3.83465 14.0349 4.23181 14.5248 4.23181Z" fill="white"/>
</svg>
