<svg width="54" height="54" viewBox="0 0 54 54" fill="none" xmlns="http://www.w3.org/2000/svg">
<mask id="path-1-outside-1_49_3163" maskUnits="userSpaceOnUse" x="15.5" y="10" width="23" height="34" fill="black">
<rect fill="white" x="15.5" y="10" width="23" height="34"/>
<path d="M27.5583 25.1058C28.7222 25.1058 29.6695 24.0889 29.6695 22.839C29.6695 21.5892 28.7221 20.5722 27.5583 20.5722C26.3944 20.5722 25.4471 21.5892 25.4471 22.839C25.4471 24.0889 26.3944 25.1058 27.5583 25.1058ZM27.5583 21.0001C28.491 21.0001 29.2496 21.8247 29.2496 22.839C29.2496 23.8532 28.491 24.6778 27.5583 24.6778C26.6256 24.6778 25.8669 23.8532 25.8669 22.839C25.8669 21.8247 26.6256 21.0001 27.5583 21.0001ZM37.4604 28.3203L34.7846 24.4895C34.8444 24.2417 34.8231 23.9722 34.7062 23.7217L34.6942 23.696C34.56 23.4089 34.3448 23.2112 34.0512 23.1042C33.9582 23.0704 33.8665 23.0514 33.7735 23.0419L25.4203 11.0867C25.4203 11.0853 25.419 11.0853 25.419 11.0853C25.4123 11.0758 25.4044 11.0664 25.3951 11.0582C25.3924 11.0555 25.3884 11.0528 25.3857 11.0501C25.3791 11.0447 25.3725 11.0393 25.3658 11.0352C25.3618 11.0325 25.3592 11.0311 25.3552 11.0284C25.3459 11.023 25.3353 11.0176 25.326 11.0135C25.3246 11.0135 25.3246 11.0122 25.3233 11.0122C25.3113 11.0081 25.3007 11.0054 25.2888 11.0027C25.2848 11.0014 25.2821 11.0014 25.2781 11.0014C25.2688 11 25.2609 11 25.2516 11H25.2396C25.2303 11 25.221 11.0014 25.2117 11.0041C25.209 11.0054 25.2051 11.0054 25.2024 11.0054H25.1997C23.3702 11.4617 22.0562 12.7522 20.7849 14.002C19.5798 15.1855 18.3336 16.4096 16.6503 16.9147C16.5852 16.9337 16.5347 16.9838 16.5121 17.0488C16.4895 17.1138 16.4988 17.1855 16.5374 17.241L20.3624 22.8672C20.4023 22.9254 20.4674 22.9593 20.5352 22.9593C20.5551 22.9593 20.575 22.9565 20.5949 22.9511C22.378 22.4163 23.6734 21.1502 24.9261 19.9247C26.1963 18.683 27.3974 17.509 29.0621 17.0378L33.3031 23.1069C33.2646 23.1205 33.2261 23.1367 33.1875 23.1557L29.0421 25.18C28.8162 25.2897 28.6023 25.3398 28.3459 25.3398H25.7245C25.4535 25.3398 25.0509 25.371 24.6895 25.6418L22.2594 27.4658C22.0522 27.6215 21.9073 27.8232 21.7904 28.1198L20.6359 31.0379C20.5243 31.3209 20.5309 31.6161 20.6558 31.8923C20.7807 32.1699 20.9973 32.3662 21.2803 32.4637L21.3347 32.4827C21.8595 32.6628 22.4375 32.3947 22.6501 31.8733L23.5934 29.5592C23.6665 29.3791 23.7847 29.2559 23.9773 29.092L24.7493 28.4339L24.1301 32.1958C24.0584 32.6331 24.2218 33.0678 24.5938 33.4537C24.5859 33.4659 24.5792 33.4781 24.5726 33.4916L21.2789 40.9661C21.0863 41.4021 21.1115 41.8693 21.348 42.281C21.5845 42.694 21.9711 42.9445 22.4388 42.9892L22.4853 42.9932C22.5305 42.9973 22.5743 43 22.6195 43C23.1576 43 23.6452 42.6926 23.8857 42.1916L27.1541 35.3616L28.0775 36.0318C28.3485 36.2282 28.4508 36.5586 28.4003 37.0691L28.0004 41.0989C27.9167 41.9479 28.2103 42.5803 28.8082 42.8349L28.864 42.8592C29.0434 42.9351 29.2267 42.9743 29.4101 42.9743C29.616 42.9743 29.8219 42.9256 30.0199 42.8281C30.4637 42.6101 30.7228 42.2878 30.7719 41.8951L31.4881 36.1227C31.5771 35.4037 31.4256 34.8674 31.0217 34.4829L28.9291 32.4829C28.8056 32.365 28.7538 32.212 28.7817 32.0414L29.4128 28.0237C29.438 27.8626 29.527 27.738 29.6692 27.6622L34.2116 25.2424C34.3591 25.1639 34.4813 25.0569 34.577 24.9323L37.1213 28.5735C37.1625 28.6318 37.2263 28.6629 37.2927 28.6629C37.3352 28.6629 37.3777 28.6494 37.4136 28.6236C37.5066 28.5505 37.5282 28.4164 37.4604 28.3203ZM24.6339 19.6135C23.4527 20.7685 22.2317 21.9615 20.6187 22.4923L17.0432 17.2329C18.6854 16.6561 19.8998 15.4631 21.0768 14.3067C22.3297 13.0758 23.5148 11.9113 25.1624 11.4549L28.8028 16.6655C27.1088 17.1935 25.8519 18.4231 24.6335 19.6133L24.6339 19.6135ZM23.5059 42.0022C23.3199 42.3895 22.9439 42.6062 22.5214 42.5669L22.4749 42.5628C22.1427 42.5317 21.877 42.3597 21.7082 42.0645C21.5395 41.7707 21.5236 41.4511 21.6604 41.1397L24.9208 33.7394C24.9315 33.7475 24.9421 33.757 24.9541 33.7638L26.8048 35.1084L23.5059 42.0022ZM34.0151 24.8579L29.4727 27.2777C29.2123 27.4159 29.0436 27.6555 28.9971 27.9507L28.366 31.9684C28.3168 32.2812 28.4151 32.5723 28.641 32.789L30.7336 34.789C31.0352 35.0774 31.1428 35.4823 31.0697 36.0646L30.3536 41.837C30.315 42.143 30.0507 42.3326 29.8354 42.4382C29.5684 42.5696 29.296 42.5764 29.0223 42.4599L28.9665 42.4355C28.3992 42.1945 28.3779 41.5188 28.4151 41.1383L28.8151 37.1085C28.8815 36.4382 28.7194 35.971 28.3182 35.6799L25.1959 33.4131C24.9142 33.2086 24.4545 32.7875 24.5409 32.2621L25.2544 27.9304C25.269 27.8424 25.2278 27.7543 25.1521 27.7097C25.1188 27.6907 25.0843 27.6812 25.0484 27.6812C25.0006 27.6812 24.9528 27.6988 24.9142 27.7313L23.7065 28.7591C23.5165 28.9202 23.3212 29.103 23.2043 29.3901L22.261 31.7043C22.1321 32.0198 21.784 32.1809 21.4665 32.0712L21.412 32.0523C21.2353 31.9913 21.113 31.8789 21.0346 31.707C20.9576 31.535 20.9523 31.3657 21.0227 31.191L22.1773 28.2729C22.2649 28.0509 22.3633 27.91 22.5054 27.8031L24.9355 25.9791C25.1374 25.8274 25.3792 25.7597 25.7207 25.7597H28.342C28.6596 25.7597 28.9386 25.6961 29.2203 25.558L33.3657 23.5336C33.5451 23.4456 33.7231 23.4361 33.9092 23.5038C34.0965 23.5715 34.228 23.692 34.3144 23.8748L34.3263 23.9005C34.4087 24.0779 34.4154 24.2702 34.3596 24.4422C34.3582 24.4462 34.3569 24.449 34.3556 24.453C34.2984 24.6236 34.1812 24.7699 34.0151 24.8579Z"/>
</mask>
<path d="M27.5583 25.1058C28.7222 25.1058 29.6695 24.0889 29.6695 22.839C29.6695 21.5892 28.7221 20.5722 27.5583 20.5722C26.3944 20.5722 25.4471 21.5892 25.4471 22.839C25.4471 24.0889 26.3944 25.1058 27.5583 25.1058ZM27.5583 21.0001C28.491 21.0001 29.2496 21.8247 29.2496 22.839C29.2496 23.8532 28.491 24.6778 27.5583 24.6778C26.6256 24.6778 25.8669 23.8532 25.8669 22.839C25.8669 21.8247 26.6256 21.0001 27.5583 21.0001ZM37.4604 28.3203L34.7846 24.4895C34.8444 24.2417 34.8231 23.9722 34.7062 23.7217L34.6942 23.696C34.56 23.4089 34.3448 23.2112 34.0512 23.1042C33.9582 23.0704 33.8665 23.0514 33.7735 23.0419L25.4203 11.0867C25.4203 11.0853 25.419 11.0853 25.419 11.0853C25.4123 11.0758 25.4044 11.0664 25.3951 11.0582C25.3924 11.0555 25.3884 11.0528 25.3857 11.0501C25.3791 11.0447 25.3725 11.0393 25.3658 11.0352C25.3618 11.0325 25.3592 11.0311 25.3552 11.0284C25.3459 11.023 25.3353 11.0176 25.326 11.0135C25.3246 11.0135 25.3246 11.0122 25.3233 11.0122C25.3113 11.0081 25.3007 11.0054 25.2888 11.0027C25.2848 11.0014 25.2821 11.0014 25.2781 11.0014C25.2688 11 25.2609 11 25.2516 11H25.2396C25.2303 11 25.221 11.0014 25.2117 11.0041C25.209 11.0054 25.2051 11.0054 25.2024 11.0054H25.1997C23.3702 11.4617 22.0562 12.7522 20.7849 14.002C19.5798 15.1855 18.3336 16.4096 16.6503 16.9147C16.5852 16.9337 16.5347 16.9838 16.5121 17.0488C16.4895 17.1138 16.4988 17.1855 16.5374 17.241L20.3624 22.8672C20.4023 22.9254 20.4674 22.9593 20.5352 22.9593C20.5551 22.9593 20.575 22.9565 20.5949 22.9511C22.378 22.4163 23.6734 21.1502 24.9261 19.9247C26.1963 18.683 27.3974 17.509 29.0621 17.0378L33.3031 23.1069C33.2646 23.1205 33.2261 23.1367 33.1875 23.1557L29.0421 25.18C28.8162 25.2897 28.6023 25.3398 28.3459 25.3398H25.7245C25.4535 25.3398 25.0509 25.371 24.6895 25.6418L22.2594 27.4658C22.0522 27.6215 21.9073 27.8232 21.7904 28.1198L20.6359 31.0379C20.5243 31.3209 20.5309 31.6161 20.6558 31.8923C20.7807 32.1699 20.9973 32.3662 21.2803 32.4637L21.3347 32.4827C21.8595 32.6628 22.4375 32.3947 22.6501 31.8733L23.5934 29.5592C23.6665 29.3791 23.7847 29.2559 23.9773 29.092L24.7493 28.4339L24.1301 32.1958C24.0584 32.6331 24.2218 33.0678 24.5938 33.4537C24.5859 33.4659 24.5792 33.4781 24.5726 33.4916L21.2789 40.9661C21.0863 41.4021 21.1115 41.8693 21.348 42.281C21.5845 42.694 21.9711 42.9445 22.4388 42.9892L22.4853 42.9932C22.5305 42.9973 22.5743 43 22.6195 43C23.1576 43 23.6452 42.6926 23.8857 42.1916L27.1541 35.3616L28.0775 36.0318C28.3485 36.2282 28.4508 36.5586 28.4003 37.0691L28.0004 41.0989C27.9167 41.9479 28.2103 42.5803 28.8082 42.8349L28.864 42.8592C29.0434 42.9351 29.2267 42.9743 29.4101 42.9743C29.616 42.9743 29.8219 42.9256 30.0199 42.8281C30.4637 42.6101 30.7228 42.2878 30.7719 41.8951L31.4881 36.1227C31.5771 35.4037 31.4256 34.8674 31.0217 34.4829L28.9291 32.4829C28.8056 32.365 28.7538 32.212 28.7817 32.0414L29.4128 28.0237C29.438 27.8626 29.527 27.738 29.6692 27.6622L34.2116 25.2424C34.3591 25.1639 34.4813 25.0569 34.577 24.9323L37.1213 28.5735C37.1625 28.6318 37.2263 28.6629 37.2927 28.6629C37.3352 28.6629 37.3777 28.6494 37.4136 28.6236C37.5066 28.5505 37.5282 28.4164 37.4604 28.3203ZM24.6339 19.6135C23.4527 20.7685 22.2317 21.9615 20.6187 22.4923L17.0432 17.2329C18.6854 16.6561 19.8998 15.4631 21.0768 14.3067C22.3297 13.0758 23.5148 11.9113 25.1624 11.4549L28.8028 16.6655C27.1088 17.1935 25.8519 18.4231 24.6335 19.6133L24.6339 19.6135ZM23.5059 42.0022C23.3199 42.3895 22.9439 42.6062 22.5214 42.5669L22.4749 42.5628C22.1427 42.5317 21.877 42.3597 21.7082 42.0645C21.5395 41.7707 21.5236 41.4511 21.6604 41.1397L24.9208 33.7394C24.9315 33.7475 24.9421 33.757 24.9541 33.7638L26.8048 35.1084L23.5059 42.0022ZM34.0151 24.8579L29.4727 27.2777C29.2123 27.4159 29.0436 27.6555 28.9971 27.9507L28.366 31.9684C28.3168 32.2812 28.4151 32.5723 28.641 32.789L30.7336 34.789C31.0352 35.0774 31.1428 35.4823 31.0697 36.0646L30.3536 41.837C30.315 42.143 30.0507 42.3326 29.8354 42.4382C29.5684 42.5696 29.296 42.5764 29.0223 42.4599L28.9665 42.4355C28.3992 42.1945 28.3779 41.5188 28.4151 41.1383L28.8151 37.1085C28.8815 36.4382 28.7194 35.971 28.3182 35.6799L25.1959 33.4131C24.9142 33.2086 24.4545 32.7875 24.5409 32.2621L25.2544 27.9304C25.269 27.8424 25.2278 27.7543 25.1521 27.7097C25.1188 27.6907 25.0843 27.6812 25.0484 27.6812C25.0006 27.6812 24.9528 27.6988 24.9142 27.7313L23.7065 28.7591C23.5165 28.9202 23.3212 29.103 23.2043 29.3901L22.261 31.7043C22.1321 32.0198 21.784 32.1809 21.4665 32.0712L21.412 32.0523C21.2353 31.9913 21.113 31.8789 21.0346 31.707C20.9576 31.535 20.9523 31.3657 21.0227 31.191L22.1773 28.2729C22.2649 28.0509 22.3633 27.91 22.5054 27.8031L24.9355 25.9791C25.1374 25.8274 25.3792 25.7597 25.7207 25.7597H28.342C28.6596 25.7597 28.9386 25.6961 29.2203 25.558L33.3657 23.5336C33.5451 23.4456 33.7231 23.4361 33.9092 23.5038C34.0965 23.5715 34.228 23.692 34.3144 23.8748L34.3263 23.9005C34.4087 24.0779 34.4154 24.2702 34.3596 24.4422C34.3582 24.4462 34.3569 24.449 34.3556 24.453C34.2984 24.6236 34.1812 24.7699 34.0151 24.8579Z" fill="#631015"/>
<path d="M27.5583 25.1058C28.7222 25.1058 29.6695 24.0889 29.6695 22.839C29.6695 21.5892 28.7221 20.5722 27.5583 20.5722C26.3944 20.5722 25.4471 21.5892 25.4471 22.839C25.4471 24.0889 26.3944 25.1058 27.5583 25.1058ZM27.5583 21.0001C28.491 21.0001 29.2496 21.8247 29.2496 22.839C29.2496 23.8532 28.491 24.6778 27.5583 24.6778C26.6256 24.6778 25.8669 23.8532 25.8669 22.839C25.8669 21.8247 26.6256 21.0001 27.5583 21.0001ZM37.4604 28.3203L34.7846 24.4895C34.8444 24.2417 34.8231 23.9722 34.7062 23.7217L34.6942 23.696C34.56 23.4089 34.3448 23.2112 34.0512 23.1042C33.9582 23.0704 33.8665 23.0514 33.7735 23.0419L25.4203 11.0867C25.4203 11.0853 25.419 11.0853 25.419 11.0853C25.4123 11.0758 25.4044 11.0664 25.3951 11.0582C25.3924 11.0555 25.3884 11.0528 25.3857 11.0501C25.3791 11.0447 25.3725 11.0393 25.3658 11.0352C25.3618 11.0325 25.3592 11.0311 25.3552 11.0284C25.3459 11.023 25.3353 11.0176 25.326 11.0135C25.3246 11.0135 25.3246 11.0122 25.3233 11.0122C25.3113 11.0081 25.3007 11.0054 25.2888 11.0027C25.2848 11.0014 25.2821 11.0014 25.2781 11.0014C25.2688 11 25.2609 11 25.2516 11H25.2396C25.2303 11 25.221 11.0014 25.2117 11.0041C25.209 11.0054 25.2051 11.0054 25.2024 11.0054H25.1997C23.3702 11.4617 22.0562 12.7522 20.7849 14.002C19.5798 15.1855 18.3336 16.4096 16.6503 16.9147C16.5852 16.9337 16.5347 16.9838 16.5121 17.0488C16.4895 17.1138 16.4988 17.1855 16.5374 17.241L20.3624 22.8672C20.4023 22.9254 20.4674 22.9593 20.5352 22.9593C20.5551 22.9593 20.575 22.9565 20.5949 22.9511C22.378 22.4163 23.6734 21.1502 24.9261 19.9247C26.1963 18.683 27.3974 17.509 29.0621 17.0378L33.3031 23.1069C33.2646 23.1205 33.2261 23.1367 33.1875 23.1557L29.0421 25.18C28.8162 25.2897 28.6023 25.3398 28.3459 25.3398H25.7245C25.4535 25.3398 25.0509 25.371 24.6895 25.6418L22.2594 27.4658C22.0522 27.6215 21.9073 27.8232 21.7904 28.1198L20.6359 31.0379C20.5243 31.3209 20.5309 31.6161 20.6558 31.8923C20.7807 32.1699 20.9973 32.3662 21.2803 32.4637L21.3347 32.4827C21.8595 32.6628 22.4375 32.3947 22.6501 31.8733L23.5934 29.5592C23.6665 29.3791 23.7847 29.2559 23.9773 29.092L24.7493 28.4339L24.1301 32.1958C24.0584 32.6331 24.2218 33.0678 24.5938 33.4537C24.5859 33.4659 24.5792 33.4781 24.5726 33.4916L21.2789 40.9661C21.0863 41.4021 21.1115 41.8693 21.348 42.281C21.5845 42.694 21.9711 42.9445 22.4388 42.9892L22.4853 42.9932C22.5305 42.9973 22.5743 43 22.6195 43C23.1576 43 23.6452 42.6926 23.8857 42.1916L27.1541 35.3616L28.0775 36.0318C28.3485 36.2282 28.4508 36.5586 28.4003 37.0691L28.0004 41.0989C27.9167 41.9479 28.2103 42.5803 28.8082 42.8349L28.864 42.8592C29.0434 42.9351 29.2267 42.9743 29.4101 42.9743C29.616 42.9743 29.8219 42.9256 30.0199 42.8281C30.4637 42.6101 30.7228 42.2878 30.7719 41.8951L31.4881 36.1227C31.5771 35.4037 31.4256 34.8674 31.0217 34.4829L28.9291 32.4829C28.8056 32.365 28.7538 32.212 28.7817 32.0414L29.4128 28.0237C29.438 27.8626 29.527 27.738 29.6692 27.6622L34.2116 25.2424C34.3591 25.1639 34.4813 25.0569 34.577 24.9323L37.1213 28.5735C37.1625 28.6318 37.2263 28.6629 37.2927 28.6629C37.3352 28.6629 37.3777 28.6494 37.4136 28.6236C37.5066 28.5505 37.5282 28.4164 37.4604 28.3203ZM24.6339 19.6135C23.4527 20.7685 22.2317 21.9615 20.6187 22.4923L17.0432 17.2329C18.6854 16.6561 19.8998 15.4631 21.0768 14.3067C22.3297 13.0758 23.5148 11.9113 25.1624 11.4549L28.8028 16.6655C27.1088 17.1935 25.8519 18.4231 24.6335 19.6133L24.6339 19.6135ZM23.5059 42.0022C23.3199 42.3895 22.9439 42.6062 22.5214 42.5669L22.4749 42.5628C22.1427 42.5317 21.877 42.3597 21.7082 42.0645C21.5395 41.7707 21.5236 41.4511 21.6604 41.1397L24.9208 33.7394C24.9315 33.7475 24.9421 33.757 24.9541 33.7638L26.8048 35.1084L23.5059 42.0022ZM34.0151 24.8579L29.4727 27.2777C29.2123 27.4159 29.0436 27.6555 28.9971 27.9507L28.366 31.9684C28.3168 32.2812 28.4151 32.5723 28.641 32.789L30.7336 34.789C31.0352 35.0774 31.1428 35.4823 31.0697 36.0646L30.3536 41.837C30.315 42.143 30.0507 42.3326 29.8354 42.4382C29.5684 42.5696 29.296 42.5764 29.0223 42.4599L28.9665 42.4355C28.3992 42.1945 28.3779 41.5188 28.4151 41.1383L28.8151 37.1085C28.8815 36.4382 28.7194 35.971 28.3182 35.6799L25.1959 33.4131C24.9142 33.2086 24.4545 32.7875 24.5409 32.2621L25.2544 27.9304C25.269 27.8424 25.2278 27.7543 25.1521 27.7097C25.1188 27.6907 25.0843 27.6812 25.0484 27.6812C25.0006 27.6812 24.9528 27.6988 24.9142 27.7313L23.7065 28.7591C23.5165 28.9202 23.3212 29.103 23.2043 29.3901L22.261 31.7043C22.1321 32.0198 21.784 32.1809 21.4665 32.0712L21.412 32.0523C21.2353 31.9913 21.113 31.8789 21.0346 31.707C20.9576 31.535 20.9523 31.3657 21.0227 31.191L22.1773 28.2729C22.2649 28.0509 22.3633 27.91 22.5054 27.8031L24.9355 25.9791C25.1374 25.8274 25.3792 25.7597 25.7207 25.7597H28.342C28.6596 25.7597 28.9386 25.6961 29.2203 25.558L33.3657 23.5336C33.5451 23.4456 33.7231 23.4361 33.9092 23.5038C34.0965 23.5715 34.228 23.692 34.3144 23.8748L34.3263 23.9005C34.4087 24.0779 34.4154 24.2702 34.3596 24.4422C34.3582 24.4462 34.3569 24.449 34.3556 24.453C34.2984 24.6236 34.1812 24.7699 34.0151 24.8579Z" stroke="#631015" mask="url(#path-1-outside-1_49_3163)"/>
</svg>
