<svg width="22" height="33" viewBox="0 0 22 33" fill="none" xmlns="http://www.w3.org/2000/svg">
<mask id="path-1-outside-1_49_3180" maskUnits="userSpaceOnUse" x="-0.5" y="-0.5" width="23" height="34" fill="black">
<rect fill="white" x="-0.5" y="-0.5" width="23" height="34"/>
<path d="M11.5583 14.6058C12.7222 14.6058 13.6695 13.5889 13.6695 12.339C13.6695 11.0892 12.7221 10.0722 11.5583 10.0722C10.3944 10.0722 9.44711 11.0892 9.44711 12.339C9.44711 13.5889 10.3944 14.6058 11.5583 14.6058ZM11.5583 10.5001C12.491 10.5001 13.2496 11.3247 13.2496 12.339C13.2496 13.3532 12.491 14.1778 11.5583 14.1778C10.6256 14.1778 9.86693 13.3532 9.86693 12.339C9.86693 11.3247 10.6256 10.5001 11.5583 10.5001ZM21.4604 17.8203L18.7846 13.9895C18.8444 13.7417 18.8231 13.4722 18.7062 13.2217L18.6942 13.196C18.56 12.9089 18.3448 12.7112 18.0512 12.6042C17.9582 12.5704 17.8665 12.5514 17.7735 12.5419L9.42029 0.586663C9.42029 0.585309 9.41897 0.585309 9.41897 0.585309C9.41232 0.57583 9.40435 0.566351 9.39505 0.558227C9.39239 0.555518 9.38841 0.55281 9.38575 0.550102C9.37911 0.544685 9.37246 0.539269 9.36582 0.535207C9.36183 0.532499 9.35918 0.531144 9.35519 0.528436C9.34589 0.52302 9.33526 0.517603 9.32596 0.513541C9.32463 0.513541 9.32463 0.512187 9.3233 0.512187C9.31135 0.508125 9.30072 0.505416 9.28876 0.502708C9.28477 0.501354 9.28212 0.501354 9.27813 0.501354C9.26883 0.5 9.26086 0.5 9.25156 0.5H9.2396C9.2303 0.5 9.221 0.501354 9.2117 0.504062C9.20904 0.505416 9.20506 0.505416 9.2024 0.505416H9.19974C7.37023 0.961747 6.05622 2.25222 4.78489 3.50204C3.57981 4.68554 2.33359 5.90963 0.650297 6.4147C0.585193 6.43366 0.534708 6.48376 0.51212 6.54876C0.489533 6.61375 0.498834 6.68552 0.537364 6.74104L4.36244 12.3672C4.4023 12.4254 4.4674 12.4593 4.53516 12.4593C4.55509 12.4593 4.57502 12.4565 4.59495 12.4511C6.37796 11.9163 7.67337 10.6502 8.92613 9.4247C10.1963 8.183 11.3974 7.00896 13.0621 6.53776L17.3031 12.6069C17.2646 12.6205 17.2261 12.6367 17.1875 12.6557L13.0421 14.68C12.8162 14.7897 12.6023 14.8398 12.3459 14.8398H9.7245C9.45346 14.8398 9.05088 14.871 8.68949 15.1418L6.25945 16.9658C6.05218 17.1215 5.90735 17.3232 5.79045 17.6198L4.63588 20.5379C4.52428 20.8209 4.53092 21.1161 4.65581 21.3923C4.7807 21.6699 4.99727 21.8662 5.28025 21.9637L5.33473 21.9827C5.85954 22.1628 6.43749 21.8947 6.65007 21.3733L7.59338 19.0592C7.66645 18.8791 7.7847 18.7559 7.97735 18.592L8.74927 17.9339L8.13013 21.6958C8.05839 22.1331 8.22181 22.5678 8.59383 22.9537C8.58586 22.9659 8.57922 22.9781 8.57257 22.9916L5.27891 30.4661C5.08626 30.9021 5.11151 31.3693 5.348 31.781C5.58449 32.194 5.97111 32.4445 6.43879 32.4892L6.48529 32.4932C6.53046 32.4973 6.57431 32.5 6.61948 32.5C7.15756 32.5 7.64517 32.1926 7.88567 31.6916L11.1541 24.8616L12.0775 25.5318C12.3485 25.7282 12.4508 26.0586 12.4003 26.5691L12.0004 30.5989C11.9167 31.4479 12.2103 32.0803 12.8082 32.3349L12.864 32.3592C13.0434 32.4351 13.2267 32.4743 13.4101 32.4743C13.616 32.4743 13.8219 32.4256 14.0199 32.3281C14.4637 32.1101 14.7228 31.7878 14.7719 31.3951L15.4881 25.6227C15.5771 24.9037 15.4256 24.3674 15.0217 23.9829L12.9291 21.9829C12.8056 21.865 12.7538 21.712 12.7817 21.5414L13.4128 17.5237C13.438 17.3626 13.527 17.238 13.6692 17.1622L18.2116 14.7424C18.3591 14.6639 18.4813 14.5569 18.577 14.4323L21.1213 18.0735C21.1625 18.1318 21.2263 18.1629 21.2927 18.1629C21.3352 18.1629 21.3777 18.1494 21.4136 18.1236C21.5066 18.0505 21.5282 17.9164 21.4604 17.8203ZM8.63386 9.11347C7.4527 10.2685 6.23171 11.4615 4.61866 11.9923L1.04324 6.73292C2.68541 6.15606 3.89976 4.9631 5.07681 3.8067C6.3297 2.57582 7.51484 1.41128 9.16242 0.954947L12.8028 6.16545C11.1088 6.69354 9.85193 7.92308 8.63352 9.11333L8.63386 9.11347ZM7.50586 31.5022C7.31985 31.8895 6.94387 32.1062 6.52136 32.0669L6.47486 32.0628C6.14271 32.0317 5.87699 31.8597 5.70825 31.5645C5.53952 31.2707 5.52357 30.9511 5.66042 30.6397L8.92085 23.2394C8.93148 23.2475 8.94211 23.257 8.95406 23.2638L10.8048 24.6084L7.50586 31.5022ZM18.0151 14.3579L13.4727 16.7777C13.2123 16.9159 13.0436 17.1555 12.9971 17.4507L12.366 21.4684C12.3168 21.7812 12.4151 22.0723 12.641 22.289L14.7336 24.289C15.0352 24.5774 15.1428 24.9823 15.0697 25.5646L14.3536 31.337C14.315 31.643 14.0507 31.8326 13.8354 31.9382C13.5684 32.0696 13.296 32.0764 13.0223 31.9599L12.9665 31.9355C12.3992 31.6945 12.3779 31.0188 12.4151 30.6383L12.8151 26.6085C12.8815 25.9382 12.7194 25.471 12.3182 25.1799L9.19589 22.9131C8.91423 22.7086 8.45452 22.2875 8.54087 21.7621L9.25436 17.4304C9.26898 17.3424 9.22779 17.2543 9.15206 17.2097C9.11884 17.1907 9.0843 17.1812 9.04842 17.1812C9.00059 17.1812 8.95276 17.1988 8.91423 17.2313L7.70651 18.2591C7.51652 18.4202 7.32121 18.603 7.20428 18.8901L6.26097 21.2043C6.13209 21.5198 5.78401 21.6809 5.46646 21.5712L5.41199 21.5523C5.23528 21.4913 5.11305 21.3789 5.03465 21.207C4.95759 21.035 4.95227 20.8657 5.02269 20.691L6.17726 17.7729C6.26494 17.5509 6.36326 17.41 6.50542 17.3031L8.93547 15.4791C9.13742 15.3274 9.37923 15.2597 9.72068 15.2597H12.342C12.6596 15.2597 12.9386 15.1961 13.2203 15.058L17.3657 13.0336C17.5451 12.9456 17.7231 12.9361 17.9092 13.0038C18.0965 13.0715 18.228 13.192 18.3144 13.3748L18.3263 13.4005C18.4087 13.5779 18.4154 13.7702 18.3596 13.9422C18.3582 13.9462 18.3569 13.949 18.3556 13.953C18.2984 14.1236 18.1812 14.2699 18.0151 14.3579Z"/>
</mask>
<path d="M11.5583 14.6058C12.7222 14.6058 13.6695 13.5889 13.6695 12.339C13.6695 11.0892 12.7221 10.0722 11.5583 10.0722C10.3944 10.0722 9.44711 11.0892 9.44711 12.339C9.44711 13.5889 10.3944 14.6058 11.5583 14.6058ZM11.5583 10.5001C12.491 10.5001 13.2496 11.3247 13.2496 12.339C13.2496 13.3532 12.491 14.1778 11.5583 14.1778C10.6256 14.1778 9.86693 13.3532 9.86693 12.339C9.86693 11.3247 10.6256 10.5001 11.5583 10.5001ZM21.4604 17.8203L18.7846 13.9895C18.8444 13.7417 18.8231 13.4722 18.7062 13.2217L18.6942 13.196C18.56 12.9089 18.3448 12.7112 18.0512 12.6042C17.9582 12.5704 17.8665 12.5514 17.7735 12.5419L9.42029 0.586663C9.42029 0.585309 9.41897 0.585309 9.41897 0.585309C9.41232 0.57583 9.40435 0.566351 9.39505 0.558227C9.39239 0.555518 9.38841 0.55281 9.38575 0.550102C9.37911 0.544685 9.37246 0.539269 9.36582 0.535207C9.36183 0.532499 9.35918 0.531144 9.35519 0.528436C9.34589 0.52302 9.33526 0.517603 9.32596 0.513541C9.32463 0.513541 9.32463 0.512187 9.3233 0.512187C9.31135 0.508125 9.30072 0.505416 9.28876 0.502708C9.28477 0.501354 9.28212 0.501354 9.27813 0.501354C9.26883 0.5 9.26086 0.5 9.25156 0.5H9.2396C9.2303 0.5 9.221 0.501354 9.2117 0.504062C9.20904 0.505416 9.20506 0.505416 9.2024 0.505416H9.19974C7.37023 0.961747 6.05622 2.25222 4.78489 3.50204C3.57981 4.68554 2.33359 5.90963 0.650297 6.4147C0.585193 6.43366 0.534708 6.48376 0.51212 6.54876C0.489533 6.61375 0.498834 6.68552 0.537364 6.74104L4.36244 12.3672C4.4023 12.4254 4.4674 12.4593 4.53516 12.4593C4.55509 12.4593 4.57502 12.4565 4.59495 12.4511C6.37796 11.9163 7.67337 10.6502 8.92613 9.4247C10.1963 8.183 11.3974 7.00896 13.0621 6.53776L17.3031 12.6069C17.2646 12.6205 17.2261 12.6367 17.1875 12.6557L13.0421 14.68C12.8162 14.7897 12.6023 14.8398 12.3459 14.8398H9.7245C9.45346 14.8398 9.05088 14.871 8.68949 15.1418L6.25945 16.9658C6.05218 17.1215 5.90735 17.3232 5.79045 17.6198L4.63588 20.5379C4.52428 20.8209 4.53092 21.1161 4.65581 21.3923C4.7807 21.6699 4.99727 21.8662 5.28025 21.9637L5.33473 21.9827C5.85954 22.1628 6.43749 21.8947 6.65007 21.3733L7.59338 19.0592C7.66645 18.8791 7.7847 18.7559 7.97735 18.592L8.74927 17.9339L8.13013 21.6958C8.05839 22.1331 8.22181 22.5678 8.59383 22.9537C8.58586 22.9659 8.57922 22.9781 8.57257 22.9916L5.27891 30.4661C5.08626 30.9021 5.11151 31.3693 5.348 31.781C5.58449 32.194 5.97111 32.4445 6.43879 32.4892L6.48529 32.4932C6.53046 32.4973 6.57431 32.5 6.61948 32.5C7.15756 32.5 7.64517 32.1926 7.88567 31.6916L11.1541 24.8616L12.0775 25.5318C12.3485 25.7282 12.4508 26.0586 12.4003 26.5691L12.0004 30.5989C11.9167 31.4479 12.2103 32.0803 12.8082 32.3349L12.864 32.3592C13.0434 32.4351 13.2267 32.4743 13.4101 32.4743C13.616 32.4743 13.8219 32.4256 14.0199 32.3281C14.4637 32.1101 14.7228 31.7878 14.7719 31.3951L15.4881 25.6227C15.5771 24.9037 15.4256 24.3674 15.0217 23.9829L12.9291 21.9829C12.8056 21.865 12.7538 21.712 12.7817 21.5414L13.4128 17.5237C13.438 17.3626 13.527 17.238 13.6692 17.1622L18.2116 14.7424C18.3591 14.6639 18.4813 14.5569 18.577 14.4323L21.1213 18.0735C21.1625 18.1318 21.2263 18.1629 21.2927 18.1629C21.3352 18.1629 21.3777 18.1494 21.4136 18.1236C21.5066 18.0505 21.5282 17.9164 21.4604 17.8203ZM8.63386 9.11347C7.4527 10.2685 6.23171 11.4615 4.61866 11.9923L1.04324 6.73292C2.68541 6.15606 3.89976 4.9631 5.07681 3.8067C6.3297 2.57582 7.51484 1.41128 9.16242 0.954947L12.8028 6.16545C11.1088 6.69354 9.85193 7.92308 8.63352 9.11333L8.63386 9.11347ZM7.50586 31.5022C7.31985 31.8895 6.94387 32.1062 6.52136 32.0669L6.47486 32.0628C6.14271 32.0317 5.87699 31.8597 5.70825 31.5645C5.53952 31.2707 5.52357 30.9511 5.66042 30.6397L8.92085 23.2394C8.93148 23.2475 8.94211 23.257 8.95406 23.2638L10.8048 24.6084L7.50586 31.5022ZM18.0151 14.3579L13.4727 16.7777C13.2123 16.9159 13.0436 17.1555 12.9971 17.4507L12.366 21.4684C12.3168 21.7812 12.4151 22.0723 12.641 22.289L14.7336 24.289C15.0352 24.5774 15.1428 24.9823 15.0697 25.5646L14.3536 31.337C14.315 31.643 14.0507 31.8326 13.8354 31.9382C13.5684 32.0696 13.296 32.0764 13.0223 31.9599L12.9665 31.9355C12.3992 31.6945 12.3779 31.0188 12.4151 30.6383L12.8151 26.6085C12.8815 25.9382 12.7194 25.471 12.3182 25.1799L9.19589 22.9131C8.91423 22.7086 8.45452 22.2875 8.54087 21.7621L9.25436 17.4304C9.26898 17.3424 9.22779 17.2543 9.15206 17.2097C9.11884 17.1907 9.0843 17.1812 9.04842 17.1812C9.00059 17.1812 8.95276 17.1988 8.91423 17.2313L7.70651 18.2591C7.51652 18.4202 7.32121 18.603 7.20428 18.8901L6.26097 21.2043C6.13209 21.5198 5.78401 21.6809 5.46646 21.5712L5.41199 21.5523C5.23528 21.4913 5.11305 21.3789 5.03465 21.207C4.95759 21.035 4.95227 20.8657 5.02269 20.691L6.17726 17.7729C6.26494 17.5509 6.36326 17.41 6.50542 17.3031L8.93547 15.4791C9.13742 15.3274 9.37923 15.2597 9.72068 15.2597H12.342C12.6596 15.2597 12.9386 15.1961 13.2203 15.058L17.3657 13.0336C17.5451 12.9456 17.7231 12.9361 17.9092 13.0038C18.0965 13.0715 18.228 13.192 18.3144 13.3748L18.3263 13.4005C18.4087 13.5779 18.4154 13.7702 18.3596 13.9422C18.3582 13.9462 18.3569 13.949 18.3556 13.953C18.2984 14.1236 18.1812 14.2699 18.0151 14.3579Z" fill="#631015"/>
<path d="M11.5583 14.6058C12.7222 14.6058 13.6695 13.5889 13.6695 12.339C13.6695 11.0892 12.7221 10.0722 11.5583 10.0722C10.3944 10.0722 9.44711 11.0892 9.44711 12.339C9.44711 13.5889 10.3944 14.6058 11.5583 14.6058ZM11.5583 10.5001C12.491 10.5001 13.2496 11.3247 13.2496 12.339C13.2496 13.3532 12.491 14.1778 11.5583 14.1778C10.6256 14.1778 9.86693 13.3532 9.86693 12.339C9.86693 11.3247 10.6256 10.5001 11.5583 10.5001ZM21.4604 17.8203L18.7846 13.9895C18.8444 13.7417 18.8231 13.4722 18.7062 13.2217L18.6942 13.196C18.56 12.9089 18.3448 12.7112 18.0512 12.6042C17.9582 12.5704 17.8665 12.5514 17.7735 12.5419L9.42029 0.586663C9.42029 0.585309 9.41897 0.585309 9.41897 0.585309C9.41232 0.57583 9.40435 0.566351 9.39505 0.558227C9.39239 0.555518 9.38841 0.55281 9.38575 0.550102C9.37911 0.544685 9.37246 0.539269 9.36582 0.535207C9.36183 0.532499 9.35918 0.531144 9.35519 0.528436C9.34589 0.52302 9.33526 0.517603 9.32596 0.513541C9.32463 0.513541 9.32463 0.512187 9.3233 0.512187C9.31135 0.508125 9.30072 0.505416 9.28876 0.502708C9.28477 0.501354 9.28212 0.501354 9.27813 0.501354C9.26883 0.5 9.26086 0.5 9.25156 0.5H9.2396C9.2303 0.5 9.221 0.501354 9.2117 0.504062C9.20904 0.505416 9.20506 0.505416 9.2024 0.505416H9.19974C7.37023 0.961747 6.05622 2.25222 4.78489 3.50204C3.57981 4.68554 2.33359 5.90963 0.650297 6.4147C0.585193 6.43366 0.534708 6.48376 0.51212 6.54876C0.489533 6.61375 0.498834 6.68552 0.537364 6.74104L4.36244 12.3672C4.4023 12.4254 4.4674 12.4593 4.53516 12.4593C4.55509 12.4593 4.57502 12.4565 4.59495 12.4511C6.37796 11.9163 7.67337 10.6502 8.92613 9.4247C10.1963 8.183 11.3974 7.00896 13.0621 6.53776L17.3031 12.6069C17.2646 12.6205 17.2261 12.6367 17.1875 12.6557L13.0421 14.68C12.8162 14.7897 12.6023 14.8398 12.3459 14.8398H9.7245C9.45346 14.8398 9.05088 14.871 8.68949 15.1418L6.25945 16.9658C6.05218 17.1215 5.90735 17.3232 5.79045 17.6198L4.63588 20.5379C4.52428 20.8209 4.53092 21.1161 4.65581 21.3923C4.7807 21.6699 4.99727 21.8662 5.28025 21.9637L5.33473 21.9827C5.85954 22.1628 6.43749 21.8947 6.65007 21.3733L7.59338 19.0592C7.66645 18.8791 7.7847 18.7559 7.97735 18.592L8.74927 17.9339L8.13013 21.6958C8.05839 22.1331 8.22181 22.5678 8.59383 22.9537C8.58586 22.9659 8.57922 22.9781 8.57257 22.9916L5.27891 30.4661C5.08626 30.9021 5.11151 31.3693 5.348 31.781C5.58449 32.194 5.97111 32.4445 6.43879 32.4892L6.48529 32.4932C6.53046 32.4973 6.57431 32.5 6.61948 32.5C7.15756 32.5 7.64517 32.1926 7.88567 31.6916L11.1541 24.8616L12.0775 25.5318C12.3485 25.7282 12.4508 26.0586 12.4003 26.5691L12.0004 30.5989C11.9167 31.4479 12.2103 32.0803 12.8082 32.3349L12.864 32.3592C13.0434 32.4351 13.2267 32.4743 13.4101 32.4743C13.616 32.4743 13.8219 32.4256 14.0199 32.3281C14.4637 32.1101 14.7228 31.7878 14.7719 31.3951L15.4881 25.6227C15.5771 24.9037 15.4256 24.3674 15.0217 23.9829L12.9291 21.9829C12.8056 21.865 12.7538 21.712 12.7817 21.5414L13.4128 17.5237C13.438 17.3626 13.527 17.238 13.6692 17.1622L18.2116 14.7424C18.3591 14.6639 18.4813 14.5569 18.577 14.4323L21.1213 18.0735C21.1625 18.1318 21.2263 18.1629 21.2927 18.1629C21.3352 18.1629 21.3777 18.1494 21.4136 18.1236C21.5066 18.0505 21.5282 17.9164 21.4604 17.8203ZM8.63386 9.11347C7.4527 10.2685 6.23171 11.4615 4.61866 11.9923L1.04324 6.73292C2.68541 6.15606 3.89976 4.9631 5.07681 3.8067C6.3297 2.57582 7.51484 1.41128 9.16242 0.954947L12.8028 6.16545C11.1088 6.69354 9.85193 7.92308 8.63352 9.11333L8.63386 9.11347ZM7.50586 31.5022C7.31985 31.8895 6.94387 32.1062 6.52136 32.0669L6.47486 32.0628C6.14271 32.0317 5.87699 31.8597 5.70825 31.5645C5.53952 31.2707 5.52357 30.9511 5.66042 30.6397L8.92085 23.2394C8.93148 23.2475 8.94211 23.257 8.95406 23.2638L10.8048 24.6084L7.50586 31.5022ZM18.0151 14.3579L13.4727 16.7777C13.2123 16.9159 13.0436 17.1555 12.9971 17.4507L12.366 21.4684C12.3168 21.7812 12.4151 22.0723 12.641 22.289L14.7336 24.289C15.0352 24.5774 15.1428 24.9823 15.0697 25.5646L14.3536 31.337C14.315 31.643 14.0507 31.8326 13.8354 31.9382C13.5684 32.0696 13.296 32.0764 13.0223 31.9599L12.9665 31.9355C12.3992 31.6945 12.3779 31.0188 12.4151 30.6383L12.8151 26.6085C12.8815 25.9382 12.7194 25.471 12.3182 25.1799L9.19589 22.9131C8.91423 22.7086 8.45452 22.2875 8.54087 21.7621L9.25436 17.4304C9.26898 17.3424 9.22779 17.2543 9.15206 17.2097C9.11884 17.1907 9.0843 17.1812 9.04842 17.1812C9.00059 17.1812 8.95276 17.1988 8.91423 17.2313L7.70651 18.2591C7.51652 18.4202 7.32121 18.603 7.20428 18.8901L6.26097 21.2043C6.13209 21.5198 5.78401 21.6809 5.46646 21.5712L5.41199 21.5523C5.23528 21.4913 5.11305 21.3789 5.03465 21.207C4.95759 21.035 4.95227 20.8657 5.02269 20.691L6.17726 17.7729C6.26494 17.5509 6.36326 17.41 6.50542 17.3031L8.93547 15.4791C9.13742 15.3274 9.37923 15.2597 9.72068 15.2597H12.342C12.6596 15.2597 12.9386 15.1961 13.2203 15.058L17.3657 13.0336C17.5451 12.9456 17.7231 12.9361 17.9092 13.0038C18.0965 13.0715 18.228 13.192 18.3144 13.3748L18.3263 13.4005C18.4087 13.5779 18.4154 13.7702 18.3596 13.9422C18.3582 13.9462 18.3569 13.949 18.3556 13.953C18.2984 14.1236 18.1812 14.2699 18.0151 14.3579Z" stroke="#631015" mask="url(#path-1-outside-1_49_3180)"/>
</svg>
