<svg width="18" height="18" viewBox="0 0 18 18" fill="none" xmlns="http://www.w3.org/2000/svg">
<path d="M4.0649 5.91907H0.303711V17.9133H4.0649V5.91907Z" fill="#631015"/>
<path d="M14.2387 5.65908C14.1 5.64174 13.9527 5.63308 13.8053 5.62441C11.6994 5.53775 10.5121 6.7857 10.0962 7.32301C9.98349 7.47034 9.93149 7.557 9.93149 7.557V5.95373H6.33496V17.9479H9.93149H10.0962C10.0962 16.726 10.0962 15.5127 10.0962 14.2907C10.0962 13.6321 10.0962 12.9735 10.0962 12.3148C10.0962 11.5002 10.0355 10.6336 10.4428 9.88825C10.7895 9.26427 11.4134 8.95228 12.1154 8.95228C14.1953 8.95228 14.2387 10.8329 14.2387 11.0062C14.2387 11.0149 14.2387 11.0235 14.2387 11.0235V17.9999H17.9998V10.1742C17.9998 7.49634 16.6392 5.91907 14.2387 5.65908Z" fill="#631015"/>
<path d="M2.18391 4.36783C3.39006 4.36783 4.36784 3.39006 4.36784 2.18392C4.36784 0.977773 3.39006 0 2.18391 0C0.977768 0 0 0.977773 0 2.18392C0 3.39006 0.977768 4.36783 2.18391 4.36783Z" fill="#631015"/>
</svg>
