<svg width="64" height="64" viewBox="0 0 64 64" fill="none" xmlns="http://www.w3.org/2000/svg">
<path fill-rule="evenodd" clip-rule="evenodd" d="M57.8159 11.4015C60.1381 11.4015 62.023 13.2622 62.023 15.5443C62.023 17.8179 60.1381 19.6786 57.8159 19.6786C55.4936 19.6786 53.6087 17.8179 53.6087 15.5443C53.6087 13.2623 55.4936 11.4015 57.8159 11.4015ZM57.8159 21.6104C61.2231 21.6104 64 18.89 64 15.5418C64 12.1852 61.2231 9.46476 57.8159 9.46476C54.4087 9.46476 51.6318 12.1852 51.6318 15.5418C51.6318 18.8928 54.4087 21.6104 57.8159 21.6104ZM28.5385 62.0659L32.1384 54.9878L35.7298 62.0659H28.5385ZM33.0132 52.392C32.6708 51.685 31.6147 51.668 31.255 52.392L26.055 62.603C25.7298 63.2421 26.1989 64 26.9384 64H37.3294C38.069 64 38.538 63.2421 38.2129 62.603L33.0132 52.392ZM1.9685 18.5366V12.2361C1.9685 11.6903 2.42318 11.252 2.97857 11.252H9.39004C9.9368 11.252 10.3915 11.6903 10.3915 12.2361V18.5366C10.3915 19.0823 9.93681 19.5207 9.39004 19.5207H2.97857C2.42318 19.5207 1.9685 19.0824 1.9685 18.5366ZM9.38989 21.4634C11.0302 21.4634 12.3596 20.1485 12.3596 18.5366V12.2361C12.3596 10.6242 11.0301 9.30926 9.38989 9.30926H2.97843C1.33812 9.30926 0 10.6242 0 12.2361V18.5366C0 20.1485 1.33812 21.4634 2.97843 21.4634H9.38989ZM23.079 57.8721C22.8862 58.3811 22.3193 58.6413 21.8157 58.4603C15.0417 56.0792 9.31195 51.4076 5.67787 45.2913C1.99156 39.0983 0.687992 31.7994 1.98581 24.7215C2.08653 24.1927 2.59876 23.8449 3.13976 23.9438C3.66926 24.0343 4.03182 24.5405 3.93111 25.0693C1.42468 38.7024 9.22318 51.9793 22.4838 56.6342C22.9932 56.8152 23.2551 57.3694 23.0795 57.8728L23.079 57.8721ZM12.207 8.52314C11.853 8.11027 11.9048 7.49661 12.3163 7.15165C17.8444 2.54788 24.8776 0 32.1376 0C39.3895 0 46.4227 2.54506 51.9508 7.15165C52.6357 7.72571 52.2444 8.86252 51.312 8.86252C51.0847 8.86252 50.8573 8.789 50.6732 8.63064C39.9308 -0.330916 24.3395 -0.330916 13.5972 8.63064C13.1741 8.97847 12.5523 8.93035 12.207 8.52314ZM62.2848 24.7211C63.5797 31.7992 62.2761 39.0977 58.5927 45.2909C54.9582 51.4076 49.2287 56.0876 42.4548 58.46C41.9743 58.6438 41.3901 58.3921 41.2002 57.8718C41.016 57.3684 41.2836 56.8142 41.7988 56.6304C55.0503 51.9757 62.8489 38.6986 60.3426 25.0655C60.2419 24.5367 60.6045 24.0333 61.134 23.94C61.6692 23.8439 62.1812 24.1923 62.2848 24.7211ZM39.9713 42.2569C40.2648 42.0759 40.6446 42.059 40.9554 42.2145L42.8662 43.1731C42.9238 43.1986 42.9756 43.1901 43.0274 43.1392L45.3986 40.809C45.4504 40.7666 45.4562 40.7185 45.4245 40.6506L44.449 38.7729C44.2878 38.4675 44.3137 38.1027 44.5008 37.8143C45.4102 36.4088 46.0576 34.8705 46.4202 33.2501C46.5037 32.9108 46.7483 32.6478 47.085 32.5403L49.1223 31.8871C49.1885 31.8701 49.2231 31.8305 49.2231 31.7627V31.0755H43.2404C42.7368 36.6634 37.9483 41.0549 32.1444 41.0549C26.3315 41.0549 21.5427 36.666 21.0396 31.0755H15.0655V31.7627C15.0655 31.8277 15.0914 31.8701 15.1575 31.8871L17.1949 32.5403C17.5316 32.6478 17.7762 32.9136 17.8597 33.2501C18.2223 34.8705 18.8697 36.4088 19.7791 37.8143C19.9719 38.1027 19.9892 38.4675 19.8309 38.7729L18.8554 40.6506C18.8209 40.7157 18.8295 40.7666 18.8813 40.809L21.2525 43.1392C21.3043 43.1901 21.3533 43.1958 21.4137 43.1731L23.3245 42.2145C23.6353 42.0561 24.0123 42.0759 24.3086 42.2569C25.7302 43.1505 27.2957 43.7868 28.9532 44.1516C29.2899 44.2251 29.5662 44.474 29.6755 44.7963L30.3316 46.8041C30.3575 46.8607 30.3978 46.8946 30.4669 46.8946H33.8252C33.8913 46.8946 33.9345 46.8607 33.9604 46.8041L34.6165 44.7963C34.7259 44.474 35.0021 44.2251 35.3388 44.1516C36.9849 43.7868 38.541 43.1505 39.9713 42.2569ZM22.967 25.6716V30.1114C22.967 33.5246 24.9095 36.5023 27.7612 38.0319L27.7641 24.7383H23.8591C23.3641 24.7383 22.967 25.1598 22.967 25.6716ZM30.633 17.901H34.538V38.8103C32.9208 39.2288 31.3467 39.2288 29.7352 38.8103V18.837C29.7323 18.3223 30.1351 17.901 30.633 17.901ZM37.3984 11.0632C36.9092 11.0632 36.5064 11.4846 36.5064 11.9964V38.0326C39.3668 36.5028 41.3006 33.5278 41.3006 30.1121V11.9971C41.3006 11.4853 40.9064 11.0639 40.4086 11.0639L37.3984 11.0632ZM44.4229 44.5139L46.7942 42.1837C47.4416 41.5475 47.6028 40.5804 47.1798 39.7772L46.4575 38.3803C47.2402 37.0738 47.8301 35.6853 48.2157 34.2205L49.7294 33.7341C50.5956 33.4541 51.1855 32.6679 51.1855 31.7659V30.1115C51.1855 29.5742 50.7481 29.1444 50.2014 29.1444H43.2777V11.9959C43.2777 10.4095 41.9914 9.11996 40.4087 9.11996H37.3958C35.8217 9.11996 34.5354 10.4094 34.5354 11.9959V15.955H30.6303C29.0476 15.955 27.7613 17.2444 27.7613 18.8309V22.7984H23.8563C22.2736 22.7984 20.9872 24.0794 20.9872 25.6659V29.1385H14.0636C13.5168 29.1385 13.0794 29.5683 13.0794 30.1056V31.7599C13.0794 32.662 13.6693 33.4453 14.5356 33.7281L16.0492 34.2145C16.4348 35.6765 17.0247 37.0679 17.8075 38.3743L17.0852 39.7713C16.665 40.5744 16.8233 41.5415 17.4708 42.1778L19.842 44.508C20.4895 45.1443 21.4737 45.3027 22.2996 44.8869L23.7125 44.1771C25.042 44.9463 26.4636 45.526 27.9513 45.9049L28.4405 47.3924C28.7254 48.2521 29.5341 48.8318 30.4521 48.8318H33.8103C34.7283 48.8318 35.534 48.2521 35.8219 47.3924L36.3111 45.9049C37.7988 45.526 39.2233 44.9463 40.5528 44.1771L41.9657 44.8869C42.783 45.3083 43.7754 45.1502 44.4229 44.5139Z" fill="black"/>
</svg>
