<svg width="45" height="32" viewBox="0 0 45 32" fill="none" xmlns="http://www.w3.org/2000/svg">
<path d="M22.4962 8.11429e-05C22.1096 8.11429e-05 21.7977 0.313771 21.7959 0.70026V9.37888C21.1291 9.55626 20.5259 9.99321 20.1766 10.6878L15.4065 20.1805L12.5471 14.4874C12.125 13.6472 11.2902 13.2271 10.4553 13.2271C9.62046 13.2271 8.7856 13.6472 8.36351 14.4874L0.0747346 30.9824C-0.0354589 31.2008 -0.0223822 31.4604 0.104617 31.6658C0.231617 31.873 0.457608 32 0.702274 32H44.2977C44.5405 32 44.7665 31.8749 44.8954 31.6676C45.0224 31.4604 45.0355 31.2008 44.9253 30.9824L36.6365 14.4874C36.2144 13.6472 35.3795 13.2271 34.5447 13.2271C33.7098 13.2271 32.8731 13.6472 32.451 14.4874L29.586 20.1824L24.8178 10.6897C24.4685 9.99513 23.8672 9.56005 23.2023 9.3808V7.14016H30.8838C31.1434 7.14016 31.3806 6.99825 31.5039 6.77045C31.6253 6.54266 31.6141 6.2663 31.4703 6.04972L29.8454 3.56822L31.4703 1.08858C31.6141 0.873847 31.6253 0.597523 31.5039 0.369706C31.3806 0.141909 31.1434 0 30.8838 0L22.4962 8.11429e-05ZM23.2022 1.40608H29.5823L28.4206 3.1874V3.18554C28.2675 3.41894 28.2675 3.71956 28.4206 3.95297L29.5823 5.73243H23.2022V1.40608ZM22.3543 10.6468C22.401 10.6562 22.4496 10.6618 22.4963 10.6636C22.5448 10.6618 22.5934 10.658 22.6401 10.6468C23.008 10.6935 23.3591 10.9157 23.5608 11.3171L33.2467 30.5959L11.7478 30.5941L16.0173 22.0947V22.0966C16.0304 22.0723 16.0416 22.0499 16.0528 22.0256L21.4317 11.3174C21.6334 10.9141 21.9864 10.6916 22.3543 10.6468ZM10.4533 14.5754C10.7801 14.5754 11.107 14.7566 11.2882 15.1169L14.6163 21.7492L10.1694 30.5961L1.84523 30.5942L9.61859 15.1151C9.79976 14.7547 10.1285 14.5736 10.4553 14.5736L10.4533 14.5754ZM34.5408 14.5754C34.8676 14.5754 35.1926 14.7566 35.3738 15.1169L43.1543 30.5961L34.8206 30.5942L30.3736 21.7454L33.7074 15.1151C33.8886 14.7547 34.2155 14.5736 34.5404 14.5736L34.5408 14.5754Z" fill="#631015"/>
</svg>
