<svg width="42" height="42" viewBox="0 0 42 42" fill="none" xmlns="http://www.w3.org/2000/svg">
<rect width="42" height="42" fill="#C9A96E" fill-opacity="0.1"/>
<path d="M10.2853 11.4773C10.2324 11.4852 10.1817 11.504 10.1366 11.5328C10.0914 11.5615 10.0529 11.5994 10.0234 11.644L5.07077 18.8824C5.04136 18.9236 5.02047 18.9703 5.00933 19.0198C4.99818 19.0692 4.99701 19.1204 5.00588 19.1702C5.01475 19.2201 5.03348 19.2678 5.06098 19.3103C5.08847 19.3529 5.12418 19.3895 5.16602 19.4181L7.45182 20.942C7.53572 20.9965 7.63768 21.0158 7.73569 20.9957C7.8337 20.9757 7.91989 20.9179 7.97566 20.8348L8.22567 20.4777L11.3329 22.9659L10.821 23.4778C10.1696 24.1292 10.1696 25.1956 10.821 25.847C11.2143 26.2402 11.7395 26.3493 12.202 26.3113C12.3475 26.2993 12.4828 26.276 12.6187 26.2398C12.6096 26.6572 12.7662 27.0778 13.083 27.3946C13.5357 27.8473 14.197 27.9644 14.7616 27.7518C14.7692 28.1511 14.9101 28.5788 15.2498 28.9185C15.7753 29.4441 16.5946 29.5317 17.226 29.1923C17.292 29.5013 17.4418 29.801 17.6784 30.0376C18.3298 30.689 19.3962 30.689 20.0476 30.0376L21 29.0852L21.9524 30.0376C22.6038 30.689 23.6702 30.689 24.3216 30.0376C24.557 29.8022 24.6957 29.5097 24.7621 29.2042C25.3913 29.5536 26.2268 29.4419 26.7502 28.9185C27.0844 28.5844 27.2359 28.1596 27.2503 27.7637C27.8117 27.9711 28.4705 27.8411 28.917 27.3946C29.2221 27.0895 29.3698 26.6961 29.3694 26.2993C29.522 26.3392 29.6803 26.3673 29.8456 26.3708C30.2986 26.3803 30.7964 26.2295 31.179 25.847C31.8316 25.1943 31.7397 24.1934 31.2028 23.5135L30.7385 22.9183L33.7862 20.4896L34.0243 20.8348C34.0801 20.9179 34.1663 20.9757 34.2643 20.9957C34.3623 21.0158 34.4643 20.9965 34.5482 20.942L36.834 19.4181C36.8758 19.3895 36.9115 19.3529 36.939 19.3103C36.9665 19.2678 36.9853 19.2201 36.9941 19.1702C37.003 19.1204 37.0018 19.0692 36.9907 19.0198C36.9795 18.9703 36.9586 18.9236 36.9292 18.8824L31.9766 11.644C31.938 11.5863 31.8842 11.5403 31.8213 11.5109C31.7583 11.4815 31.6886 11.4699 31.6195 11.4773C31.56 11.4838 31.5029 11.5042 31.4528 11.5368L29.167 13.0607C29.1252 13.0893 29.0895 13.126 29.062 13.1685C29.0345 13.2111 29.0157 13.2587 29.0069 13.3086C28.998 13.3585 28.9992 13.4096 29.0103 13.459C29.0215 13.5085 29.0423 13.5552 29.0718 13.5964L29.3218 13.9655C28.5758 14.3933 27.7493 14.5251 27.0955 14.5251C26.3591 14.5251 25.8936 14.3562 25.4049 14.1679C24.9163 13.9796 24.3947 13.7631 23.6668 13.7631C22.8794 13.7631 21.9476 13.9396 20.9762 14.4655C20.0941 14.0378 19.0859 13.7631 18.3332 13.7631C17.6053 13.7631 17.0837 13.9796 16.5951 14.1679C16.1064 14.3562 15.6409 14.5251 14.9045 14.5251C14.2507 14.5251 13.4242 14.3933 12.6782 13.9655L12.9282 13.5964C12.9577 13.5552 12.9785 13.5085 12.9897 13.459C13.0008 13.4096 13.002 13.3585 12.9931 13.3086C12.9843 13.2587 12.9655 13.2111 12.938 13.1685C12.9105 13.126 12.8748 13.0893 12.833 13.0607L10.5472 11.5368C10.47 11.4859 10.3769 11.4647 10.2853 11.4773ZM10.4281 12.3821L12.083 13.4893L7.57088 20.0967L5.91605 18.9895L10.4281 12.3821ZM31.5719 12.3821L36.084 18.9895L34.4291 20.0967L29.917 13.4893L31.5719 12.3821ZM18.3332 14.5251C18.8196 14.5251 19.6395 14.7376 20.369 15.0489L16.1427 19.9896C16.0999 20.0397 16.0708 20.1 16.0583 20.1647C16.0457 20.2294 16.0502 20.2962 16.0712 20.3586C16.203 20.7473 16.5095 21.0798 16.9046 21.3349C17.2997 21.5899 17.7911 21.7634 18.3332 21.7634C19.438 21.7634 20.4463 21.1335 21.3333 20.3943C22.1771 19.6912 22.9033 18.8922 23.4525 18.3347H26.1431L30.6075 23.9778C30.959 24.423 30.9924 24.9383 30.6314 25.2993C30.4065 25.5241 30.1419 25.6149 29.8575 25.6088C29.5732 25.6028 29.2802 25.4938 29.0956 25.3588C29.0774 25.341 29.0574 25.3251 29.036 25.3112C29.0012 25.2632 28.9691 25.2131 28.9289 25.1684L27.0122 23.0373C26.9704 22.988 26.9168 22.9501 26.8565 22.9272C26.7961 22.9043 26.7308 22.8971 26.6669 22.9064C26.599 22.9167 26.5352 22.9452 26.4822 22.9889C26.4291 23.0326 26.3889 23.0898 26.3657 23.1544C26.3426 23.2191 26.3373 23.2888 26.3505 23.3562C26.3637 23.4236 26.3949 23.4862 26.4407 23.5373L28.3574 25.6803C28.683 26.0428 28.7079 26.5323 28.3813 26.8589C28.0545 27.1856 27.5277 27.1971 27.2264 26.8708L25.2026 24.6683C25.1682 24.6316 25.1269 24.602 25.081 24.5812C25.0352 24.5604 24.9857 24.5488 24.9354 24.5471C24.8851 24.5455 24.8349 24.5537 24.7878 24.5715C24.7407 24.5892 24.6975 24.616 24.6608 24.6504C24.624 24.6848 24.5944 24.7261 24.5737 24.7719C24.5529 24.8178 24.5413 24.8673 24.5397 24.9176C24.538 24.9679 24.5463 25.018 24.564 25.0652C24.5818 25.1123 24.6086 25.1554 24.643 25.1922L26.2859 26.966C26.2927 26.9825 26.3007 26.9984 26.3097 27.0137C26.4186 27.2132 26.4939 27.4853 26.4883 27.728C26.4827 27.9707 26.4095 28.1878 26.2145 28.3828C25.9104 28.6869 25.2193 28.6966 24.9406 28.3947L23.1549 26.466C23.118 26.4236 23.0722 26.3898 23.0207 26.3672C22.9692 26.3446 22.9134 26.3336 22.8572 26.3351C22.784 26.3379 22.7132 26.3617 22.6532 26.4037C22.5932 26.4458 22.5466 26.5042 22.5189 26.572C22.4913 26.6399 22.4838 26.7143 22.4973 26.7862C22.5109 26.8582 22.5449 26.9248 22.5953 26.9779L24.0239 28.5256C24.0884 28.806 23.9764 29.2875 23.7739 29.49C23.4117 29.8522 22.8504 29.8522 22.4882 29.49L21.5 28.5137C21.9045 27.8674 21.8345 27.0029 21.2738 26.4422C20.9778 26.1462 20.5915 26.0015 20.2023 25.966C20.3305 25.4205 20.1896 24.8223 19.7738 24.4064C19.3783 24.0109 18.863 23.8848 18.4047 23.9183C18.2368 23.9306 18.0809 23.9672 17.9284 24.0135C17.9057 23.6409 17.7712 23.273 17.488 22.9897C16.8719 22.3736 15.8658 22.3736 15.2498 22.9897L14.8926 23.3468C14.8588 22.9694 14.7322 22.5674 14.4164 22.2516C14.0907 21.9259 13.6551 21.7634 13.2259 21.7634C12.7966 21.7634 12.373 21.9259 12.0473 22.2516L11.8687 22.4301L8.65425 19.8467L12.2377 14.5965C13.1491 15.1371 14.135 15.287 14.9045 15.287C15.7623 15.287 16.3687 15.0749 16.8689 14.8822C17.3691 14.6895 17.7533 14.5251 18.3332 14.5251ZM23.6668 14.5251C24.2467 14.5251 24.6309 14.6895 25.1311 14.8822C25.6313 15.0749 26.2377 15.287 27.0955 15.287C27.865 15.287 28.8509 15.1371 29.7623 14.5965L33.3577 19.8586L30.2623 22.323L26.6312 17.7157C26.5955 17.6711 26.5502 17.6351 26.4986 17.6103C26.4471 17.5856 26.3907 17.5728 26.3336 17.5728H23.2858C23.2353 17.5716 23.1852 17.5805 23.1381 17.5989C23.0911 17.6173 23.0483 17.6448 23.012 17.6799C22.4256 18.2664 21.6845 19.1096 20.8571 19.7991C20.0298 20.4885 19.1333 21.0015 18.3332 21.0015C17.9601 21.0015 17.5926 20.8748 17.3094 20.692C17.097 20.5549 17.0041 20.4025 16.9165 20.2634L21.2262 15.2037C22.1263 14.6888 22.9589 14.5251 23.6668 14.5251ZM13.2259 22.5254C13.4568 22.5254 13.6876 22.6181 13.8688 22.7992C14.0596 22.99 14.1403 23.2425 14.1426 23.5492V24.0969L13.083 25.1564C13.067 25.1725 13.0506 25.1875 13.0354 25.2041C13.0051 25.2201 12.977 25.2401 12.9521 25.2636C12.7598 25.4041 12.4423 25.5366 12.1425 25.5612C11.8426 25.5859 11.5828 25.5135 11.3687 25.2993C11.0064 24.9371 11.0064 24.3758 11.3687 24.0135L12.583 22.7992C12.7641 22.6181 12.995 22.5254 13.2259 22.5254ZM16.3689 23.2873C16.5776 23.2873 16.7769 23.362 16.9403 23.5254C17.2672 23.8523 17.2672 24.3653 16.9403 24.6921L14.7855 26.8589C14.4586 27.1858 13.9456 27.1858 13.6187 26.8589C13.2919 26.532 13.2919 26.0191 13.6187 25.6922L15.7855 23.5254C15.9489 23.362 16.1601 23.2873 16.3689 23.2873ZM18.4642 24.6683C18.7479 24.6476 19.0075 24.7235 19.238 24.9541C19.5451 25.2612 19.5451 25.9089 19.238 26.216L17.0713 28.3828C16.767 28.6871 16.0898 28.6871 15.7855 28.3828C15.5896 28.1868 15.5281 27.9655 15.5236 27.728C15.5191 27.4905 15.592 27.2395 15.7022 27.0375C15.7165 27.015 15.7285 26.991 15.7379 26.966L17.488 25.2279C17.565 25.1509 17.6326 25.0656 17.6903 24.9779C17.6944 24.974 17.6984 24.97 17.7022 24.966C17.8855 24.8199 18.1804 24.6891 18.4642 24.6683ZM19.9881 26.7279C20.2552 26.7425 20.5771 26.8408 20.7262 26.9899C21.0884 27.3521 21.0884 27.9134 20.7262 28.2756L19.5118 29.49C19.1496 29.8522 18.5883 29.8522 18.2261 29.49C18.0302 29.294 17.922 28.8318 17.9761 28.5494L19.7738 26.7517C19.7777 26.7478 19.7818 26.7438 19.7857 26.7398C19.8483 26.7289 19.9123 26.7238 19.9881 26.7279Z" fill="#631015"/>
</svg>
