<svg width="70" height="89" viewBox="0 0 70 89" fill="none" xmlns="http://www.w3.org/2000/svg">
<path opacity="0.3" d="M35.712 70.888C32.9813 70.888 30.7627 69.9067 29.056 67.944C27.4347 65.896 26.624 63.1227 26.624 59.624C26.624 55.6133 27.8613 51.7307 30.336 47.976C32.8107 44.2213 36.736 40.936 42.112 38.12L44.288 41.192C39.68 43.9227 36.5653 46.696 34.944 49.512C33.408 52.2427 32.64 55.2293 32.64 58.472L29.696 63.848C29.696 61.8 30.336 60.136 31.616 58.856C32.9813 57.4907 34.6453 56.808 36.608 56.808C38.5707 56.808 40.192 57.448 41.472 58.728C42.8373 60.008 43.52 61.672 43.52 63.72C43.52 65.768 42.7947 67.4747 41.344 68.84C39.8933 70.2053 38.016 70.888 35.712 70.888ZM14.08 70.888C11.3493 70.888 9.13067 69.9067 7.424 67.944C5.80267 65.896 4.992 63.1227 4.992 59.624C4.992 55.6133 6.22933 51.7307 8.704 47.976C11.1787 44.2213 15.104 40.936 20.48 38.12L22.656 41.192C18.048 43.9227 14.9333 46.696 13.312 49.512C11.776 52.2427 11.008 55.2293 11.008 58.472L8.064 63.848C8.064 61.8 8.704 60.136 9.984 58.856C11.3493 57.4907 13.0133 56.808 14.976 56.808C16.9387 56.808 18.56 57.448 19.84 58.728C21.2053 60.008 21.888 61.672 21.888 63.72C21.888 65.768 21.1627 67.4747 19.712 68.84C18.2613 70.2053 16.384 70.888 14.08 70.888Z" fill="#C9A96E"/>
</svg>
