<svg width="275" height="259" viewBox="0 0 275 259" fill="none" xmlns="http://www.w3.org/2000/svg">
<path d="M273.62 255.772C272.293 254.854 265.684 255.285 263.644 255.285L263.497 159.405C264.313 159.394 265.299 159.53 265.911 158.884C266.92 157.818 265.809 154.168 266.263 153.749C266.818 153.227 268.133 153.624 268.065 152.32C268.042 151.98 260.878 119.899 260.867 119.844C260.697 119.175 260.515 118.597 260.141 118.007C259.586 117.656 258.554 117.645 257.897 117.611C255.482 117.52 206.566 117.792 191.673 117.588C191.661 114.743 191.945 103.679 191.378 101.808C190.992 101.457 190.392 101.412 189.882 101.366C189.53 101.332 174.306 101.332 174.261 101.344L174.227 75.5769C174.657 75.5882 175.904 75.7356 176.222 75.4068C176.925 74.6587 176.8 69.8634 176.652 68.7412C176.584 68.1857 176.437 67.5056 176.006 67.1315C175.519 66.7007 169.477 66.9615 168.456 66.9501L168.377 42.7819C169.454 42.8045 171.154 43.0879 172.027 42.3965C172.605 41.1608 172.628 36.5358 172.129 35.2549C172.027 35.0055 171.925 34.8581 171.71 34.6881C170.157 34.28 168.275 34.6541 166.665 34.5861C160.306 24.7239 142.304 14.1928 138.563 11.1999C138.563 9.56753 138.869 1.46221 138.314 0.464787C137.94 0.147393 137.6 0.0793701 137.124 0C136.727 0.14737 136.466 0.249393 136.251 0.646162C135.627 1.80244 135.82 9.38616 135.786 11.1433C116.435 24.6444 113.409 26.719 108.239 34.5295C106.811 34.5862 103.932 34.3028 102.719 34.8356C101.982 35.9352 101.959 40.6396 102.288 41.9545C102.379 42.2946 102.617 42.51 102.923 42.68C103.875 43.1901 105.315 42.8047 106.369 42.8047C106.369 50.8418 106.528 58.9019 106.392 66.939C104.555 66.9617 99.7602 66.6329 98.366 67.1657C97.5045 68.3106 97.6632 72.7997 97.8333 74.2733C97.8786 74.6701 97.9353 75.1235 98.3094 75.3502C98.7855 75.6563 99.783 75.5769 100.339 75.5996C100.667 84.1696 100.202 92.7511 100.577 101.321C97.6746 101.321 85.3297 100.97 83.5046 101.525C83.1645 101.876 83.1305 102.296 83.0625 102.783C82.8018 104.767 83.1985 112.305 82.9378 117.577C82.8811 117.577 16.1799 117.588 16.1335 117.588C15.6687 117.6 15.0906 117.566 14.6825 117.792C14.2744 118.268 14.0817 118.745 13.9003 119.345C13.8776 119.402 6.92878 148.309 6.91747 148.366C6.6454 149.578 6.08993 151.222 6.15795 152.458C6.16929 152.753 6.30532 152.945 6.53205 153.127C6.98549 153.478 7.68833 153.546 8.25512 153.592C8.25512 154.963 7.77902 158.024 8.77658 158.988C9.32071 159.509 10.1709 159.407 10.8624 159.407C10.8624 159.464 10.8851 255.107 10.8851 255.162C8.69722 255.218 6.50942 255.241 4.33291 255.23C3.43738 255.23 2.46248 255.082 1.57826 255.184C0.365308 255.32 -0.088132 256.057 0.0139028 256.874C0.0592439 257.225 0.297302 257.486 0.580695 257.667C1.54425 258.245 187.897 258.086 271.771 258.052C272.417 258.052 273.063 258.064 273.539 257.554C273.834 257.236 274.106 256.828 274.083 256.386C274.004 256.125 273.835 255.908 273.62 255.772ZM191.603 120.556C191.671 120.556 254.812 120.363 258.248 120.511C258.384 121.429 264.596 148.953 264.755 150.721C261.376 150.789 203.154 150.686 203.098 150.686C203.064 150.074 203.098 149.462 203.121 148.85C204.311 148.827 207.792 149.258 208.596 148.465C209.458 147.614 209.05 144.848 209.016 143.715C208.098 142.763 191.649 134.714 191.604 134.691C191.513 129.976 191.592 125.26 191.603 120.556ZM137.112 13.5442C143.789 17.8519 158.752 28.0429 163.366 34.5045C140.377 34.7426 127.091 34.5272 111.707 34.4932C114.893 28.1451 134.822 14.9725 137.112 13.5442ZM104.905 40.025V37.3497C110.074 37.2477 98.7612 37.3611 169.667 37.2704L169.644 39.9683C169.599 39.957 105.7 40.025 104.905 40.025ZM160.235 49.6832C160.076 48.731 159.748 47.9261 159.09 47.212C155.701 43.5392 149.851 45.3642 148.933 49.5245C148.65 50.8168 148.752 66.846 148.763 66.8913L143.254 66.914C142.971 60.1239 143.379 52.0978 142.925 49.638C142.449 47.0421 140.035 45.2171 137.427 45.1602C134.48 45.0922 132.122 47.246 131.646 49.2297C131.147 51.3155 131.589 50.9528 131.385 66.8458H125.865C125.865 66.7891 126.5 49.2297 124.334 46.9397C121.659 44.1171 115.481 44.6612 114.597 49.2183C114.313 50.6693 114.347 66.8117 114.347 66.8796C112.556 66.9136 110.754 66.9136 108.963 66.891C108.883 64.0003 108.951 48.0392 109.019 42.6092C112.386 42.5186 161.993 42.4619 165.71 42.5526C165.823 50.6918 165.687 58.8311 165.71 66.9704L160.348 66.9591C160.371 66.891 160.45 50.9415 160.235 49.6832ZM151.563 66.9139H151.586H151.54H151.552H151.518C151.563 51.259 151.291 52.7892 151.495 50.8507C151.665 49.207 152.583 48.2774 154.182 47.9147C155.848 47.9487 156.834 48.6516 157.322 49.5925C157.866 50.658 157.628 66.8345 157.616 66.9024C152.946 66.9137 151.79 66.9139 151.563 66.9139ZM134.536 49.5584C134.956 48.6289 135.931 47.8807 137.234 47.858C139.195 47.824 140.034 48.7423 140.306 50.5787C140.442 51.5422 140.42 66.8685 140.42 66.9138C135.761 66.9025 134.536 66.9025 134.276 66.9025H134.23H134.208C134.23 64.1365 133.811 51.1569 134.536 49.5584ZM117.283 49.6151C117.578 48.7876 118.609 47.8694 119.777 47.8694C122.123 47.8807 122.826 48.7989 123.076 50.7714C123.212 51.8483 123.11 66.8573 123.11 66.9138H117.181H117.079C117.079 64.1932 116.762 51.0774 117.283 49.6151ZM100.494 72.9104C100.449 71.8902 100.472 70.87 100.472 69.8497C100.97 69.8157 173.849 69.8044 173.907 69.8044C173.93 70.8246 173.907 71.8562 173.896 72.8764L100.494 72.9104ZM171.536 101.398C168.849 101.851 167.092 101.069 103.034 101.511C102.954 92.8504 102.943 84.1896 103.011 75.5404C103.068 75.5404 169.699 75.5404 171.559 75.5744C171.65 84.1783 171.558 92.7939 171.536 101.398ZM188.88 104.096C189.016 106.873 188.891 133.455 188.891 133.513C188.834 133.479 137.438 107.441 137.38 107.429C135.102 108.37 85.7332 133.332 85.6897 133.366L85.667 104.041C85.7804 104.03 188.688 104.096 188.88 104.096ZM137.427 110.5C137.484 110.512 205.601 144.463 206.089 144.927C206.259 145.086 206.655 146.083 205.794 146.344C204.966 146.593 203.311 146.163 202.507 145.857C201.362 145.437 138.787 114.297 137.948 113.923C137.393 113.673 137.121 113.912 136.588 114.127C128.505 117.992 71.9602 146.107 71.9051 146.116C70.4994 146.592 68.425 146.252 66.9513 146.172C70.1255 144.041 134.299 112.155 137.427 110.5ZM213.921 244.492L60.6253 244.538C60.6139 243.869 60.4212 242.486 60.8633 241.976C67.1888 241.783 210.941 242.021 214.124 242.021C214.124 242.667 214.25 243.925 213.921 244.492ZM219.635 247.213L219.646 249.877C219.589 249.877 55.0467 249.831 54.9684 249.831L54.9911 247.27C55.0477 247.258 197.382 246.929 219.635 247.213ZM207.959 239.346L67.0312 239.289L67.0198 236.909C218.615 236.909 204.616 236.863 207.994 236.999C208.005 237.781 208.004 238.564 207.959 239.346ZM94.4755 159.642L103 159.676C103.034 160.764 102.898 161.864 102.955 162.952C102.989 163.576 103.102 164.188 103.612 164.596C104.292 165.14 105.211 164.913 106.004 164.811L106.118 229.483C106.05 229.539 105.982 229.585 105.914 229.641C105.789 229.743 105.596 229.857 105.494 229.981C104.825 230.854 105.165 232.974 105.177 234.051C95.8586 234.074 93.1153 234.085 92.4124 234.085H92.4011H92.3784H92.3671H92.3558H92.3331H92.3218H92.2651H92.2764H92.2084H92.1971H92.1857C92.1744 232.793 92.1971 231.5 92.1971 230.208C91.9703 229.902 91.721 229.63 91.4829 229.347C91.3582 207.922 91.6983 186.484 91.4149 165.061C92.2537 165.072 93.3647 165.22 94.0108 164.596C94.929 163.769 94.4755 160.866 94.4755 159.642ZM120.061 159.71C122.94 159.642 126.08 159.472 128.937 159.812C129.016 160.946 128.551 163.723 129.345 164.55C129.991 165.219 130.955 165.083 131.805 165.072C131.85 165.117 131.907 165.151 131.93 165.208C132.213 165.786 131.975 223.123 131.964 229.575C131.76 229.711 131.567 229.869 131.397 230.039C130.705 230.765 131.113 233.214 131.113 234.222H117.828H117.612C117.624 233.1 117.748 231.774 117.533 230.685C117.295 229.552 116.762 229.427 116.762 228.055L116.728 164.879L117.159 164.901C117.998 164.947 119.029 165.083 119.687 164.425C120.412 163.7 120.027 160.821 120.061 159.71ZM146.281 159.653L154.806 159.665C154.862 162.057 154.432 163.519 155.373 164.403C156.019 165.015 156.846 164.947 157.662 164.959C157.662 233.609 157.753 228.257 157.583 229.438C157.413 229.586 157.232 229.665 157.073 229.824C156.268 230.572 156.653 233.417 156.619 234.063H153.933L143.379 234.143C143.39 233.156 143.526 232.159 143.47 231.184C143.413 230.391 143.243 230.039 142.631 229.529C142.506 226.276 142.506 164.901 142.506 164.858C143.436 164.926 145.023 165.22 145.771 164.484C146.678 163.577 146.281 160.9 146.281 159.653ZM171.606 159.665C174.508 159.631 177.455 159.574 180.346 159.744C180.391 161.014 179.881 163.508 180.811 164.448C181.355 165.004 182.114 164.947 182.828 164.936L182.964 229.517C182.772 229.631 182.602 229.744 182.432 229.891C181.536 230.708 181.967 233.077 181.99 234.21C175.755 234.21 173.567 234.222 169.089 234.176C169.033 232.975 169.429 231.671 169.135 230.515C168.987 229.914 168.636 229.687 168.126 229.404L168.205 164.901C168.67 164.935 169.135 164.969 169.599 164.98C170.155 164.992 170.722 164.844 171.118 164.425C171.935 163.563 171.594 160.866 171.606 159.665ZM168.93 162.091C165.088 162.215 161.245 162.102 157.39 162.193C157.368 161.388 157.379 160.572 157.379 159.767C161.244 159.733 165.122 159.71 168.987 159.721C169.01 160.526 168.987 161.297 168.93 162.091ZM166.482 232.136C166.482 232.817 166.459 233.497 166.448 234.177C164.067 234.256 161.676 234.2 159.295 234.2C159.284 233.519 159.318 232.851 159.363 232.182C161.732 232.148 164.101 232.125 166.482 232.136ZM160.417 166.296C160.429 165.842 160.417 165.377 160.621 164.969L161.086 164.856C162.492 164.833 163.909 164.833 165.314 164.879C165.348 172.168 165.36 226.967 165.314 228.247C165.303 228.587 165.314 229.063 165.099 229.358C164.986 229.517 164.759 229.471 164.577 229.483H160.428C160.372 227.431 160.417 166.351 160.417 166.296ZM143.447 162.192L131.692 162.215V159.789C135.591 159.607 139.547 159.732 143.447 159.743V162.192ZM140.851 232.156C140.851 232.814 140.829 233.471 140.817 234.14C138.448 234.242 136.056 234.163 133.687 234.174L133.721 232.168C136.102 232.134 138.482 232.134 140.851 232.156ZM134.957 229.447C135.081 161.34 134.945 166.656 135.036 164.935L139.831 164.947C139.82 228.588 139.865 226.342 139.684 229.482L134.957 229.447ZM117.386 162.065L105.778 162.077C105.732 161.317 105.744 160.546 105.744 159.775L117.397 159.798L117.386 162.065ZM115.051 232.065L114.926 234.128L107.875 234.117L107.886 232.053C110.255 231.974 112.67 231.974 115.051 232.065ZM108.963 164.921C110.629 164.853 112.296 164.887 113.962 164.898C113.962 164.989 114.053 226.781 113.974 229.277L108.94 229.299C108.952 207.852 108.532 186.37 108.963 164.921ZM91.6645 162.2L76.973 162.189L76.9844 159.752C81.8702 159.627 86.8013 159.684 91.6871 159.729L91.6645 162.2ZM89.4539 232.052L89.4879 234.115L84.1941 234.126L84.1714 232.04C85.9285 232.029 87.6855 232.029 89.4539 232.052ZM84.194 229.274L84.2054 164.977C85.7017 164.955 87.1979 164.989 88.6832 164.989C88.6718 186.414 89.0233 207.84 88.8532 229.263C87.3002 229.285 85.7472 229.263 84.194 229.274ZM81.5754 228.436C81.5641 228.764 81.5528 228.991 81.3487 229.263L80.8499 229.308H77.0297C77.0297 158.743 76.9504 166.404 77.0637 165.203C77.5285 164.818 80.5099 164.897 81.292 165.124C81.7 166.303 81.53 225.161 81.5073 226.008C81.5073 226.813 81.5981 227.631 81.5754 228.436ZM81.4734 232.074L81.4394 234.149L76.5536 234.138L76.5422 232.063C78.186 232.052 79.8297 232.063 81.4734 232.074ZM183.021 162.075L182.987 159.762C187.498 159.57 192.123 159.706 196.635 159.762L196.646 162.098L183.021 162.075ZM197.179 164.852C197.179 164.909 197.225 224.048 197.145 229.5L193.03 229.523C192.94 226.326 192.985 164.887 192.985 164.829C194.379 164.783 195.785 164.83 197.179 164.852ZM185.617 229.524L185.605 164.919C187.147 164.862 188.711 164.908 190.264 164.919C190.049 186.446 190.468 207.985 190.219 229.512C188.689 229.557 187.147 229.524 185.617 229.524ZM190.174 234.183L184.562 234.171L184.551 232.188C186.421 232.165 188.281 232.131 190.151 232.21C190.185 232.857 190.162 233.525 190.174 234.183ZM197.893 234.228L192.6 234.217C192.588 233.582 192.622 232.959 192.668 232.324C194.413 232.21 196.17 232.256 197.916 232.278L197.893 234.228ZM72.5613 156.95C72.55 154.275 72.5727 151.611 72.6293 148.947C74.5905 148.879 76.5517 148.913 78.5126 148.891L200.397 148.879L200.431 156.939C190.603 156.928 77.0479 156.95 72.5613 156.95ZM78.5354 145.977C80.1791 145.059 134.489 118.306 137.617 116.594C140.089 118.397 197.086 146.239 197.155 146.273C197.087 146.273 78.6138 145.977 78.5354 145.977ZM9.18311 150.637C9.19444 150.58 15.2707 124.314 16.6308 120.267C16.6875 120.267 78.4698 120.21 82.9679 120.346C83.07 125.153 82.9906 129.971 83.002 134.788C76.3932 138.439 65.7034 143.268 64.7738 144.073C64.4564 144.345 64.4791 144.741 64.4678 145.138C64.4338 146.17 64.207 147.655 65.0119 148.471C65.8621 149.344 68.6394 148.958 69.8411 148.947L69.7844 150.806L9.18311 150.637ZM11.0195 153.482C11.0875 153.482 69.7069 153.414 69.7737 153.414V156.599C45.2427 156.588 11.9134 156.577 10.9963 156.531C10.9963 155.5 11.0082 154.514 11.0195 153.482ZM45.5042 255.244C34.9051 255.403 24.2719 255.267 13.6604 255.267C13.6604 255.21 13.581 160.374 13.5923 159.285C20.7339 159.274 77.901 159.625 74.0471 159.705C74.6026 162.176 74.4439 223.584 74.4325 225.702C74.4212 228.57 73.911 231.336 73.9337 234.204C72.0633 234.193 65.9645 233.796 64.5814 234.635C63.9806 235.723 64.3093 238.025 64.3207 239.237L58.7546 239.215C58.5732 239.26 58.3918 239.306 58.2445 239.442C57.4736 240.144 57.791 243.387 57.7344 244.452C56.6234 244.475 53.4948 244.089 52.6558 244.758C51.817 245.438 52.2138 248.511 52.2251 249.61C51.0235 249.621 46.8177 249.247 46.0357 249.95C45.1174 250.812 45.4928 253.986 45.5042 255.244ZM225.995 255.108C224.487 255.142 181.443 255.153 48.3046 255.221L48.3499 252.58C50.4471 252.546 225.135 252.569 226.02 252.58C226.031 253.43 226.006 254.269 225.995 255.108ZM228.625 255.221C228.557 252.863 229.022 250.857 228.183 250.154C227.469 249.553 223.614 249.848 222.447 249.848C222.401 248.805 222.469 247.762 222.458 246.708C222.458 246.084 222.469 245.234 221.936 244.804C221.211 244.214 217.787 244.52 216.688 244.531C216.677 243.318 217.062 240.496 216.11 239.68C215.362 239.033 211.836 239.339 210.691 239.339C210.646 237.911 210.929 236.279 210.566 234.896C209.523 233.91 202.348 234.363 200.613 234.374C200.625 233.23 200.749 231.937 200.523 230.815C200.341 229.919 199.809 229.5 199.82 228.502L199.854 159.693C204.332 159.795 194.821 158.672 260.773 159.455L260.807 255.209C250.231 255.221 242.943 255.278 228.625 255.221ZM263.484 156.666C243.351 156.893 223.195 156.7 203.064 156.689C203.019 155.6 203.041 154.512 203.041 153.424C203.098 153.424 261.273 153.401 263.484 153.503L263.484 156.666Z" fill="#631015" fill-opacity="0.3"/>
<path d="M145.681 97.2847C147.053 97.6135 153.265 97.3527 155.079 97.3414C155.51 97.2847 155.612 97.2847 155.974 97.0127C156.36 96.2532 156.314 81.7998 155.895 80.9268C155.748 80.6208 155.544 80.6094 155.238 80.5414C153.299 80.122 148.13 80.4054 145.874 80.4054C145.523 80.4847 145.205 80.4847 145.012 80.8361C144.616 81.505 144.604 95.8564 144.978 96.7067C145.092 97.0128 145.364 97.2167 145.681 97.2847ZM147.393 82.956C149.433 82.956 151.474 82.9674 153.515 83.0014C153.492 86.9351 153.492 90.8798 153.526 94.8135L147.382 94.7794L147.393 82.956Z" fill="#631015" fill-opacity="0.3"/>
<path d="M105.506 97.0902C105.925 97.3736 115.016 97.6683 116.093 97.0222C116.32 96.5914 116.365 96.172 116.399 95.6959C116.49 94.3582 116.535 81.6507 116.32 81.1066C115.889 80.0183 106.322 80.2677 105.494 80.7212C105.177 81.2653 105.052 81.8094 104.973 82.4442C104.768 84.19 104.746 95.1292 105.086 96.5576C105.165 96.8523 105.233 96.9088 105.506 97.0902ZM107.41 83.0563L113.849 83.0677C113.94 86.9787 113.86 90.9008 113.86 94.8118L107.387 94.8005C107.365 90.8895 107.376 86.9787 107.41 83.0563Z" fill="#631015" fill-opacity="0.3"/>
<path d="M131.92 97.1019C133.655 97.7367 140.127 97.3286 142.361 97.2833C142.746 96.9886 142.826 96.6938 142.882 96.2404C143.109 94.4039 143.2 82.1044 142.769 80.9256C141.59 80.1207 133.904 80.3701 132.17 80.5175C131.603 81.0276 131.546 81.413 131.49 82.1612C131.388 83.7483 131.365 94.3474 131.467 95.413C131.512 95.9684 131.58 96.6372 131.92 97.1019ZM134.142 82.9999C136.194 82.9205 138.257 82.9999 140.309 83.0112C140.275 86.9449 140.275 90.867 140.32 94.8006L134.063 94.778C134.097 90.8556 134.063 86.9222 134.142 82.9999Z" fill="#631015" fill-opacity="0.3"/>
<path d="M129.425 97.0002C129.867 95.98 129.833 82.2862 129.481 80.7899C128.257 80.0757 121.274 80.4045 119.528 80.4158C119.086 80.4838 118.769 80.5178 118.417 80.8239C117.998 81.6741 117.828 95.9915 118.621 97.125C119.812 97.4878 128.722 97.6464 129.425 97.0002ZM120.809 83.0456L127.044 83.0683L127.032 94.8238C124.947 94.8578 122.861 94.8124 120.775 94.8011L120.809 83.0456Z" fill="#631015" fill-opacity="0.3"/>
<path d="M169.815 97.0555C170.359 95.5251 170.325 82.6589 169.872 80.8109C169.555 80.4368 169.022 80.4255 168.557 80.3915C166.913 80.2894 165.213 80.3915 163.569 80.4141C162.447 80.4028 158.932 80.1307 158.162 80.7202C157.561 82.3526 157.674 95.0489 158.139 97.044C159.454 97.1687 168.614 97.8943 169.815 97.0555ZM160.61 83.1122C166.324 82.9421 162.866 82.9308 167.695 82.9988C167.695 83.0555 167.729 93.6208 167.616 94.6974C161.959 94.8221 160.746 94.8448 160.542 94.8561H160.531H160.52H160.497C160.497 94.7994 160.452 83.7698 160.61 83.1122Z" fill="#631015" fill-opacity="0.3"/>
<path d="M59.0067 205.623C57.4877 205.113 50.1419 205.441 47.9993 205.453C47.5686 205.509 47.2285 205.521 46.9224 205.861C46.6957 206.291 46.6504 206.722 46.6164 207.198C46.503 209.363 46.435 224.293 46.7751 225.529C46.8317 225.721 46.9224 225.869 47.0358 226.016C48.4528 226.719 56.2973 226.333 58.4172 226.322C58.8026 226.231 59.4034 226.107 59.5961 225.71C59.9589 224.95 59.9362 207.017 59.5961 206.133C59.4828 205.815 59.3128 205.713 59.0067 205.623ZM57.1022 223.726C54.4609 223.783 51.8197 223.726 49.1783 223.726L49.201 208.014L57.0228 208.048C56.9887 213.274 57.1703 218.501 57.1022 223.726Z" fill="#631015" fill-opacity="0.3"/>
<path d="M46.9771 187.111C48.2467 187.337 58.8687 187.156 59.254 187.122C59.5034 186.839 59.6621 186.612 59.7302 186.238C59.9115 185.025 59.9455 170.254 59.8095 168.395C59.7642 167.828 59.7075 167.262 59.4694 166.751C58.1771 166.185 48.9609 166.355 47.0337 166.445C46.807 166.763 46.6369 167.012 46.5916 167.42C46.3989 168.917 46.4102 184.617 46.6596 186.068C46.7276 186.431 46.7844 186.793 46.9771 187.111ZM49.1989 169.098C51.8289 168.996 54.5041 169.087 57.1455 169.143L57.1795 184.594C54.5042 184.606 51.8404 184.606 49.165 184.583L49.1989 169.098Z" fill="#631015" fill-opacity="0.3"/>
<path d="M33.9766 205.643C33.1945 205.257 24.2729 205.473 22.6408 205.45C22.1193 205.518 21.6432 205.541 21.3145 206.017C20.8837 206.64 21.0424 224.427 21.4392 225.912C22.6635 226.762 31.3014 226.343 33.3308 226.343C33.7615 226.24 34.0223 226.184 34.3623 225.878C34.555 225.47 34.5777 225.096 34.6004 224.653C34.6911 222.738 34.7818 207.185 34.4984 206.301C34.4077 205.994 34.2487 205.779 33.9766 205.643ZM32.0269 223.747C29.3062 223.849 26.5743 223.781 23.8536 223.781C23.8083 218.532 23.8083 213.283 23.8423 208.035C26.5516 207.967 29.2723 208.057 31.9816 208.08C31.9816 213.306 32.0609 218.532 32.0269 223.747Z" fill="#631015" fill-opacity="0.3"/>
<path d="M21.7105 166.309C21.1324 166.842 21.1324 167.329 21.0983 168.066C21.019 169.857 20.9963 183.37 21.1777 185.036C21.2457 185.682 21.3477 186.385 21.6992 186.941C22.9348 187.451 31.9241 187.201 33.7947 187.077C34.1575 186.839 34.4409 186.68 34.5656 186.238C34.8603 185.206 34.7016 167.942 34.3616 166.638C33.1486 165.947 23.7056 166.207 21.7105 166.309ZM31.9468 184.583C29.2488 184.594 26.5621 184.583 23.8641 184.549C23.728 179.357 23.8301 174.142 23.8187 168.95C26.5054 168.928 29.2034 168.939 31.8898 168.973C32.0598 174.165 31.9468 179.391 31.9468 184.583Z" fill="#631015" fill-opacity="0.3"/>
<path d="M227.835 205.837C227.392 205.384 226.429 205.418 225.817 205.395C222.575 205.316 219.276 205.361 216.022 205.418C215.614 205.565 215.444 205.645 215.161 205.973C214.719 207.13 214.866 222.059 214.991 223.85C215.036 224.463 215.104 225.188 215.354 225.744C215.478 226.016 215.467 226.038 215.773 226.14C217.292 226.616 224.887 226.254 227.052 226.231C227.574 225.993 227.891 225.846 228.073 225.256C228.39 224.259 228.209 209.533 228.129 207.799C228.095 207.141 228.005 206.484 227.835 205.837ZM217.689 223.669L217.723 207.957H225.409L225.42 223.658C222.847 223.726 220.262 223.669 217.689 223.669Z" fill="#631015" fill-opacity="0.3"/>
<path d="M227.675 166.274C225.93 165.775 218.879 166.093 216.543 166.07C216.079 166.104 215.716 166.104 215.308 166.365C215.013 166.796 214.979 167.226 214.945 167.737C214.832 169.539 214.99 185.455 215.081 185.953C215.149 186.361 215.217 186.679 215.546 186.951C217.258 187.563 224.195 187.132 226.553 187.2C227.109 187.098 227.619 187.019 228.004 186.554C228.174 186.339 228.186 185.999 228.208 185.738C228.22 185.534 228.401 168.473 227.88 166.637C227.812 166.41 227.834 166.478 227.675 166.274ZM225.499 184.559C222.914 184.661 220.295 184.582 217.711 184.582C217.53 179.333 217.575 174.006 217.7 168.757C220.318 168.746 222.948 168.757 225.567 168.791C225.578 174.04 225.555 179.299 225.499 184.559Z" fill="#631015" fill-opacity="0.3"/>
<path d="M253.092 205.747C252.275 205.022 242.697 205.407 240.928 205.419C240.531 205.668 240.169 205.872 240.066 206.371C239.749 207.913 239.919 224.214 240.282 225.721C240.645 226.164 241.245 226.243 241.79 226.3C242.436 226.368 252.298 226.277 252.355 226.277C252.785 226.13 253.023 226.028 253.33 225.676C253.681 224.701 253.579 209.806 253.454 207.765C253.409 207.085 253.318 206.393 253.092 205.747ZM250.643 223.647L242.776 223.658C242.776 218.455 242.81 213.241 242.889 208.037L250.768 208.06C250.802 213.263 250.756 218.455 250.643 223.647Z" fill="#631015" fill-opacity="0.3"/>
<path d="M240.269 186.702C240.756 187.03 241.21 187.132 241.788 187.189C242.82 187.291 251.752 187.223 252.625 187.166C252.954 186.996 253.215 186.815 253.339 186.441C253.679 185.455 253.532 170.151 253.441 168.043C253.419 167.487 253.339 166.943 253.215 166.41L253.124 166.467L253.147 166.286C251.696 165.741 243.114 165.968 240.995 166.025C240.62 166.263 240.28 166.444 240.144 166.886C239.918 167.657 239.986 183.131 240.054 184.797C240.065 185.432 240.11 186.078 240.269 186.702ZM242.831 168.813C245.461 168.768 248.091 168.779 250.721 168.847C250.948 174.062 250.766 179.378 250.744 184.604C248.102 184.638 245.472 184.604 242.831 184.593C242.808 179.333 242.729 174.062 242.831 168.813Z" fill="#631015" fill-opacity="0.3"/>
</svg>
