<svg width="18" height="18" viewBox="0 0 18 18" fill="none" xmlns="http://www.w3.org/2000/svg">
<path d="M7.97141 -1.93189e-05C3.57788 -1.93189e-05 0 3.57786 0 7.9714C0 12.3649 3.57788 15.9428 7.97141 15.9428C9.89093 15.9428 11.6547 15.2598 13.033 14.1237L16.6831 17.7739C16.9845 18.0752 17.4726 18.0752 17.774 17.7739C18.0753 17.4725 18.0753 16.9834 17.774 16.683L14.1239 13.0329C15.2599 11.6548 15.9429 9.89086 15.9429 7.97129C15.9429 3.57776 12.3649 -1.93189e-05 7.97141 -1.93189e-05ZM7.97141 1.54283C11.5313 1.54283 14.4 4.41152 14.4 7.9714C14.4 11.5313 11.5313 14.4 7.97141 14.4C4.41153 14.4 1.54285 11.5313 1.54285 7.9714C1.54285 4.41152 4.41153 1.54283 7.97141 1.54283Z" fill="#1A1C1B" fill-opacity="0.8"/>
</svg>
