<svg width="48" height="65" viewBox="0 0 48 65" fill="none" xmlns="http://www.w3.org/2000/svg">
<path d="M32.3213 2.07617C35.9122 0.331381 39.786 -0.0316468 42.2842 0.44043L42.2852 0.439453C42.2868 0.439708 42.2884 0.441142 42.29 0.441406C42.2915 0.441679 42.2935 0.441133 42.2949 0.441406L42.2939 0.442383C42.6384 0.498022 42.9095 0.755332 42.9951 1.08008L43.123 1.59375C45.5827 12.2641 35.6441 21.8663 25.126 19.002V27.126H31.3486C33.0781 27.126 34.4844 28.5385 34.4844 30.2725V33.4268H42.6084L42.6201 33.4258H42.6299C45.4566 33.4258 47.7498 35.7299 47.75 38.5654V59.5977C47.75 62.4326 45.4575 64.75 42.6299 64.75H5.37012C2.54285 64.75 0.25 62.4454 0.25 59.5977V38.5664C0.25 35.7306 2.54334 33.4268 5.37012 33.4268H14.0342V30.2725C14.0342 28.5385 15.4404 27.126 17.1699 27.126H23.3926V19.002C12.7059 21.9125 2.61738 11.9532 5.52344 1.08008C5.61129 0.734262 5.89076 0.491056 6.2334 0.439453V0.44043C8.73081 -0.0254543 12.5964 0.327323 16.1836 2.06641C19.5889 3.71737 22.7537 6.62337 24.2578 11.2705C25.7467 6.6397 28.9126 3.73246 32.3213 2.07617ZM1.96973 59.6113C1.96973 61.4931 3.48782 63.0254 5.35742 63.0254H42.6299C44.4995 63.0254 46.0166 61.4931 46.0166 59.6113V46.1699H30.1309V48.0742C30.1309 49.1162 29.2786 49.9707 28.2285 49.9707H19.376C18.3369 49.9707 17.4863 49.115 17.4863 48.0742V46.1699H1.96973V59.6113ZM19.3643 43.0381C19.2863 43.0381 19.2072 43.1062 19.207 43.209V48.0615C19.207 48.1472 19.2814 48.2207 19.3643 48.2207H28.2168C28.3169 48.2207 28.3857 48.1424 28.3857 48.0615V43.209C28.3856 43.1186 28.3072 43.0381 28.2168 43.0381H19.3643ZM5.35742 35.165C3.48685 35.1652 1.9707 36.6868 1.9707 38.5674V38.8174H1.95801V44.4199H17.4736V43.209C17.4738 42.1572 18.3232 41.301 19.3633 41.3008H28.2168C29.268 41.301 30.118 42.1561 30.1182 43.209V44.4199H46.0049V38.5674C46.0049 36.6867 44.4879 35.165 42.6172 35.165H5.35742ZM17.1572 28.8643C16.3838 28.8643 15.7549 29.4945 15.7549 30.2734V33.4268H32.75V30.2734C32.75 29.4945 32.121 28.8643 31.3477 28.8643H17.1572ZM41.4512 2.08203C39.5002 1.90437 33.6056 1.80356 29.1494 6.43066L29.1484 6.42969C26.13 9.70037 25.2648 13.0601 25.1611 15.7959L31.1035 10.2344C31.2996 10.0469 31.5335 9.9737 31.7607 9.99902C31.9813 10.0237 32.1766 10.1386 32.3164 10.29C32.4563 10.4417 32.5544 10.6459 32.5625 10.8672C32.5708 11.0944 32.4825 11.3209 32.2832 11.502L25.9824 17.4053C35.0484 19.5734 43.5188 11.2874 41.4512 2.08203ZM23.3516 15.8047C22.9595 6.35066 14.3239 1.22564 7.06934 2.08887C6.13734 6.46032 7.48675 11.0207 10.6494 14.1123L10.7275 14.1895L10.7266 14.1982C13.842 17.1806 18.3221 18.3674 22.5293 17.4131L16.2334 11.5156V11.5146C16.0358 11.3287 15.9462 11.1002 15.9531 10.8721C15.9599 10.6503 16.0567 10.4473 16.1973 10.2969C16.3379 10.1464 16.5338 10.0363 16.7539 10.0137C16.9801 9.99048 17.2135 10.0624 17.4121 10.2451L17.4141 10.2461L23.3516 15.8047Z" fill="black" stroke="#631015" stroke-width="0.5"/>
</svg>
