<svg width="24" height="24" viewBox="0 0 24 24" fill="none" xmlns="http://www.w3.org/2000/svg">
<path d="M11.9999 13.6687C14.3854 13.6687 16.3192 11.735 16.3192 9.3495C16.3192 6.96404 14.3854 5.03025 11.9999 5.03025C9.61446 5.03025 7.68066 6.96404 7.68066 9.3495C7.68066 11.735 9.61446 13.6687 11.9999 13.6687Z" fill="#1A1C1B"/>
<path d="M12 0C9.62663 0 7.30655 0.703787 5.33316 2.02236C3.35977 3.34094 1.8217 5.21508 0.913451 7.4078C0.00519937 9.60051 -0.232441 12.0133 0.230582 14.3411C0.693604 16.6689 1.83649 18.807 3.51472 20.4853C5.19295 22.1635 7.33115 23.3064 9.65892 23.7694C11.9867 24.2324 14.3995 23.9948 16.5922 23.0865C18.7849 22.1783 20.6591 20.6402 21.9776 18.6668C23.2962 16.6934 24 14.3734 24 12C23.9962 8.81856 22.7307 5.7685 20.4811 3.51888C18.2315 1.26926 15.1814 0.00377125 12 0ZM20.118 18.6502C19.602 16.788 17.5283 15.2895 14.7488 14.6115C13.9844 15.2701 13.009 15.6323 12 15.6323C10.9911 15.6323 10.0156 15.2701 9.25125 14.6115C6.47025 15.222 4.39575 16.7707 3.88125 18.6487C2.62001 17.1111 1.82139 15.2469 1.57834 13.273C1.33529 11.2992 1.6578 9.29688 2.50834 7.49918C3.35888 5.70149 4.70247 4.1823 6.38274 3.11844C8.06302 2.05457 10.0109 1.48977 11.9996 1.48977C13.9884 1.48977 15.9362 2.05457 17.6165 3.11844C19.2968 4.1823 20.6404 5.70149 21.4909 7.49918C22.3415 9.29688 22.664 11.2992 22.4209 13.273C22.1779 15.2469 21.3792 17.1111 20.118 18.6487V18.6502Z" fill="#1A1C1B"/>
</svg>
