<svg width="64" height="64" viewBox="0 0 64 64" fill="none" xmlns="http://www.w3.org/2000/svg">
<path fill-rule="evenodd" clip-rule="evenodd" d="M16.1406 35.8753C16.1406 36.3421 15.7629 36.7199 15.2961 36.7199C14.8294 36.7199 14.4516 36.3422 14.4516 35.8753V5.22913C14.4516 2.35012 16.8042 0 19.6802 0H40.9344C41.1691 0 41.3822 0.0971322 41.536 0.250933L49.2902 8.00591C49.4548 8.1705 49.5384 8.38635 49.5384 8.60221V37.7405C49.5384 38.2073 49.1607 38.5851 48.6939 38.5851C48.2272 38.5851 47.8495 38.2073 47.8495 37.7405L47.8522 9.44975H40.9371C40.4704 9.44975 40.0926 9.07201 40.0926 8.60518V1.6867H19.6825C17.7373 1.6867 16.1401 3.28135 16.1401 5.22945L16.1406 35.8753ZM46.6601 7.76002L41.7823 2.88164V7.76002H46.6601ZM32.3314 8.3914C32.1237 8.30235 31.8835 8.29426 31.6596 8.3914L21.9715 12.6114C21.2026 12.946 20.7224 13.6772 20.7224 14.5137V21.9177C20.7224 28.5257 25.1578 34.3028 31.4195 36.1104C31.8215 36.2265 32.1722 36.2265 32.5716 36.1104C38.8335 34.3026 43.2687 28.5261 43.2687 21.9177V14.5164C43.2687 13.68 42.7885 12.9488 42.0196 12.6142L32.3314 8.3914ZM41.3482 14.1548L31.9971 10.0805L22.6461 14.1548C22.495 14.2196 22.4114 14.3491 22.4114 14.5137V21.9178C22.4114 27.7756 26.3503 32.8971 31.8895 34.4941H32.1053C37.6442 32.8968 41.5834 27.7755 41.5834 21.9178V14.5164C41.5834 14.3492 41.4992 14.2223 41.3482 14.1548ZM24.7664 23.6981L28.6245 27.5566C28.9536 27.8857 29.4878 27.8857 29.817 27.5566L39.2247 18.1507C39.5538 17.8215 39.5538 17.2873 39.2247 16.9581C38.8955 16.6289 38.3613 16.6289 38.0322 16.9581L29.2233 25.7678L25.9614 22.5056C25.6323 22.1764 25.0981 22.1764 24.7689 22.5056C24.4371 22.8348 24.4373 23.3689 24.7664 23.6981ZM10.2195 41.9165L9.04586 39.882C8.2473 38.5005 6.47199 38.0311 5.09603 38.8244L1.44298 40.9344C0.0670185 41.7303 -0.410514 43.5004 0.38542 44.8791L10.5646 62.5117C11.3119 63.904 13.1276 64.4275 14.536 63.6154L18.1917 61.5053C19.5757 60.7067 20.0479 58.9366 19.252 57.5551L18.1485 55.6448C19.2061 54.9325 20.2313 54.6869 21.4859 55.0296L33.8966 58.4185C35.823 58.9447 37.7223 58.6964 39.4544 57.6981L61.5263 44.9546C64.9985 42.9498 64.4994 38.7513 61.9795 36.7734C60.5901 35.6833 58.6584 35.3244 56.643 36.4874L39.7539 46.2386C39.6433 46.3034 39.5327 46.3573 39.4221 46.4032C41.3807 44.304 40.941 40.5076 37.6846 39.4771L26.1966 35.8372C24.2082 35.2086 22.2279 35.3974 20.3907 36.3958L10.2195 41.9165ZM21.195 37.8718L11.0614 43.3735L17.3045 54.185C18.7155 53.2352 20.2803 52.96 21.926 53.4079L34.3368 56.7968C35.8369 57.2069 37.2641 57.0235 38.6103 56.2437L60.6877 43.4974C64.3543 41.382 61.1545 35.8212 57.4772 37.9444L40.5909 47.6957C39.5225 48.3109 38.3516 48.4377 37.1807 48.0572L28.0403 44.9435C27.6005 44.7924 27.3658 44.3121 27.5169 43.8723C27.668 43.4325 28.1482 43.1977 28.588 43.3488L36.1177 45.9418C37.1052 46.0686 37.866 45.6828 38.3381 45.0784C39.3391 43.7886 39.0827 41.6867 37.1807 41.0851L25.6927 37.4452C24.1252 36.9487 22.6329 37.0894 21.195 37.8718ZM17.7928 58.4028C18.122 58.9721 17.9196 59.7223 17.3531 60.0514L13.6973 62.1614C13.1281 62.4906 12.378 62.2936 12.0462 61.7189L1.84287 44.0428C1.51372 43.4735 1.71067 42.7233 2.28533 42.3915L5.93837 40.2815C6.49415 39.9523 7.25225 40.1493 7.58681 40.724L17.7928 58.4028Z" fill="#631015"/>
</svg>
