<svg width="41" height="42" viewBox="0 0 41 42" fill="none" xmlns="http://www.w3.org/2000/svg">
<path d="M15.0781 8.4686L20.3536 12.3879C20.3848 12.4119 20.3964 12.4458 20.3848 12.4838L18.3606 18.8366C18.2515 19.1765 18.3684 19.5465 18.6509 19.7564C18.7912 19.8604 18.9568 19.9144 19.1204 19.9144C19.286 19.9144 19.4516 19.8624 19.5919 19.7564L24.8539 15.8172C24.8851 15.7932 24.9201 15.7932 24.9533 15.8172L30.2133 19.7544C30.4938 19.9644 30.8737 19.9664 31.1562 19.7544C31.4387 19.5445 31.5556 19.1746 31.4465 18.8346L29.4223 12.4818C29.4106 12.4438 29.4204 12.4099 29.4535 12.3859L34.729 8.4666C35.0115 8.25664 35.1284 7.88671 35.0212 7.54676C34.9141 7.20682 34.6082 6.97885 34.2595 6.97885H34.2576L27.7447 6.99084C27.7058 6.99084 27.6766 6.96885 27.6649 6.93085L25.6641 0.569906C25.557 0.229969 25.2511 0 24.9024 0C24.5537 0 24.2479 0.227957 24.1407 0.569906L22.14 6.93085C22.1283 6.96885 22.0991 6.99084 22.0601 6.99084L15.5473 6.97885H15.5453C15.1986 6.97885 14.8927 7.20681 14.7836 7.54676C14.6784 7.8887 14.7956 8.25861 15.0781 8.4686ZM15.4677 7.77671C15.4794 7.73871 15.5086 7.71672 15.5476 7.71672L22.0604 7.72871H22.0624C22.4111 7.72871 22.7169 7.50076 22.8241 7.15881L24.8248 0.797858C24.8365 0.759864 24.8657 0.737867 24.9047 0.737867C24.9436 0.737867 24.9729 0.759863 24.9846 0.797858L26.9853 7.15881C27.0924 7.49874 27.3983 7.72871 27.747 7.72871H27.7489L34.2618 7.71672C34.3007 7.71672 34.33 7.73871 34.3417 7.77671C34.3533 7.8167 34.3436 7.84869 34.3105 7.87269L29.033 11.7919C28.7505 12.0019 28.6336 12.3718 28.7408 12.7118L30.7649 19.0645C30.7766 19.1025 30.7668 19.1365 30.7337 19.1605C30.7025 19.1845 30.6675 19.1845 30.6344 19.1605L25.3743 15.2213C25.0918 15.0093 24.7139 15.0093 24.4314 15.2213L19.1714 19.1605C19.1402 19.1845 19.1051 19.1845 19.072 19.1605C19.0409 19.1365 19.0292 19.1025 19.0409 19.0645L21.065 12.7118C21.1741 12.3719 21.0572 12.0019 20.7728 11.7919L15.4972 7.87269C15.4661 7.84869 15.456 7.8147 15.4677 7.77671ZM18.6782 2.67162C18.5614 2.50765 18.5984 2.27769 18.7581 2.15771C18.9179 2.03773 19.1419 2.07573 19.2588 2.2397L20.9498 4.62928C21.0667 4.79325 21.0296 5.02321 20.8699 5.14318C20.8056 5.19117 20.7335 5.21317 20.6595 5.21317C20.5484 5.21317 20.4393 5.16118 20.3692 5.06119L18.6782 2.67162ZM28.937 5.14315C28.7773 5.02317 28.7422 4.79322 28.8571 4.62925L30.5481 2.23967C30.665 2.0757 30.889 2.03971 31.0488 2.15768C31.2085 2.27766 31.2436 2.50762 31.1286 2.67159L29.4377 5.06116C29.3675 5.16114 29.2584 5.21314 29.1474 5.21314C29.0734 5.21314 29.0013 5.18914 28.937 5.14315ZM18.1461 13.4816L15.409 14.3955C15.3719 14.4074 15.3349 14.4134 15.2979 14.4134C15.1479 14.4134 15.0057 14.3155 14.957 14.1595C14.8966 13.9655 14.9979 13.7596 15.1869 13.6956L17.924 12.7817C18.113 12.7197 18.3137 12.8237 18.376 13.0177C18.4383 13.2116 18.3351 13.4196 18.1461 13.4816ZM25.2609 18.2527V21.2062C25.2609 21.4101 25.1012 21.5741 24.9025 21.5741C24.7037 21.5741 24.544 21.4101 24.544 21.2062V18.2527C24.544 18.0488 24.7037 17.8848 24.9025 17.8848C25.1012 17.8868 25.2609 18.0508 25.2609 18.2527ZM34.62 13.6956C34.8089 13.7576 34.9102 13.9655 34.8498 14.1595C34.8011 14.3155 34.6609 14.4134 34.5089 14.4134C34.4719 14.4134 34.4349 14.4074 34.3979 14.3954L31.6607 13.4836C31.4718 13.4216 31.3705 13.2137 31.4308 13.0197C31.4912 12.8258 31.6938 12.7218 31.8828 12.7838L34.62 13.6956ZM40.6825 21.2421C39.8136 20.0123 38.0661 18.9105 34.6803 20.6462L26.0499 25.0754C25.7947 23.8396 24.7252 22.9097 23.4452 22.9077H16.1728C13.2525 21.9219 9.06997 21.2281 6.22924 26.2791L3.84474 30.5183C2.9213 30.1704 1.85763 30.5383 1.34918 31.4421L0.275772 33.3518C0.0010843 33.8397 -0.0709963 34.4116 0.0712149 34.9575C0.213431 35.5054 0.554354 35.9613 1.03166 36.2433L10.264 41.7161C10.5816 41.904 10.9322 42 11.2888 42C11.468 42 11.6492 41.976 11.8284 41.926C12.3622 41.78 12.8063 41.4301 13.081 40.9402L14.1544 39.0305C14.6629 38.1267 14.4428 36.9989 13.6869 36.351L14.2888 35.2792C15.0681 33.8934 16.4084 33.0996 17.9689 33.0996H20.9223C23.2328 33.0996 25.2413 32.5477 27.2441 31.3619L40.174 23.6992C40.5792 23.4592 40.8675 23.0533 40.965 22.5874C41.0604 22.1214 40.9591 21.63 40.6825 21.2421ZM13.5349 38.6648L12.4615 40.5745C12.2823 40.8924 11.992 41.1204 11.6433 41.2164C11.2946 41.3124 10.9322 41.2644 10.6225 41.0804L1.38808 35.6076C0.745171 35.2257 0.523089 34.3799 0.895197 33.72L1.9686 31.8103C2.21796 31.3684 2.6719 31.1204 3.13751 31.1204C3.36544 31.1204 3.59727 31.1804 3.8077 31.3044L13.0421 36.7756C13.685 37.1576 13.907 38.0049 13.5349 38.6648ZM40.2635 22.4338C40.209 22.7018 40.0492 22.9237 39.8155 23.0617L26.8855 30.7244C24.9978 31.8442 23.1023 32.3641 20.9223 32.3641H17.9689C16.1474 32.3641 14.5791 33.292 13.6693 34.9117L13.0849 35.9515L4.48189 30.8544L6.84889 26.6472C9.41652 22.082 13.0889 22.6339 16.0015 23.6237C16.0385 23.6357 16.0755 23.6417 16.1145 23.6417H23.4452C24.5186 23.6417 25.3914 24.5376 25.3914 25.6394C25.3914 26.1693 25.1888 26.6711 24.8206 27.0491C24.4524 27.427 23.9634 27.635 23.4472 27.635L17.9243 27.637C17.7256 27.637 17.5658 27.8009 17.5658 28.0049C17.5658 28.2069 17.7256 28.3728 17.9243 28.3728L23.4452 28.3708C24.1543 28.3708 24.8205 28.0869 25.3251 27.569C25.7751 27.1071 26.044 26.5112 26.0966 25.8713L34.9998 21.3021C37.3571 20.0923 39.0753 20.2163 40.1017 21.6721C40.2615 21.896 40.3181 22.1679 40.2635 22.4338Z" fill="#631015"/>
</svg>
