<svg width="64" height="64" viewBox="0 0 64 64" fill="none" xmlns="http://www.w3.org/2000/svg">
<path d="M62.9337 53.3412H59.7337V36.272C59.7337 35.6824 59.2561 35.2052 58.6671 35.2052H43.7339V13.8687C43.7339 13.279 43.2563 12.8019 42.6672 12.8019H22.4007C21.8116 12.8019 21.334 13.279 21.334 13.8687V27.7374H13.8674C13.2784 27.7374 12.8008 28.2146 12.8008 28.8043V38.4057C12.8008 38.9953 13.2784 39.4725 13.8674 39.4725C14.4565 39.4725 14.9341 38.9953 14.9341 38.4057V37.3389H21.334C21.9231 37.3389 22.4007 36.8617 22.4007 36.272C22.4007 35.6824 21.9231 35.2052 21.334 35.2052H14.9341V29.8711C18.3817 29.8711 25.3766 29.8711 28.8006 29.8711V53.3412H26.6673C25.2714 53.363 25.2603 55.4509 26.6674 55.4749C36.6852 55.4751 51.8174 55.4747 61.867 55.4749V58.6754H25.6007C24.2141 58.6937 24.1863 60.7847 25.6007 60.809L62.9337 60.809C63.5228 60.809 64.0004 60.3318 64.0004 59.7422V54.4081C64.0004 53.8184 63.5228 53.3412 62.9337 53.3412ZM29.8673 27.7374H23.4674V14.9355H41.6005C41.6005 24.4311 41.6005 43.939 41.6005 53.3412H30.934V28.8043C30.934 28.2146 30.4564 27.7374 29.8673 27.7374ZM43.7339 53.3412V37.3389H57.6004V53.3412H43.7339Z" fill="black"/>
<path d="M34.1337 6.40095C34.7229 6.40095 35.2006 5.9238 35.2006 5.33413V1.06683C35.2006 0.477154 34.7229 0 34.1337 0C33.5446 0 33.0669 0.477154 33.0669 1.06683V5.33413C33.0669 5.9238 33.5446 6.40095 34.1337 6.40095Z" fill="black"/>
<path d="M16.7868 12.9623C17.7764 13.944 19.2783 12.4447 18.2953 11.4537L15.2777 8.43662C14.2883 7.45524 12.786 8.95389 13.7692 9.94522L16.7868 12.9623Z" fill="black"/>
<path d="M57.5998 29.8711H61.8664C63.2672 29.848 63.2693 27.7608 61.8663 27.7374L57.5998 27.7374C56.1989 27.7605 56.1968 29.8477 57.5998 29.8711Z" fill="black"/>
<path d="M50.7271 13.2749C51.0001 13.2749 51.273 13.1708 51.4814 12.9624L54.4991 9.94528C55.4805 8.95604 53.9817 7.45353 52.9904 8.43677L49.9728 11.4538C49.2929 12.0874 49.8144 13.3074 50.7271 13.2749Z" fill="black"/>
<path d="M32.0003 26.6706H38.4002C38.9893 26.6706 39.4669 26.1934 39.4669 25.6038V19.2028C39.4669 18.6131 38.9893 18.136 38.4002 18.136H32.0003C31.4112 18.136 30.9336 18.6131 30.9336 19.2028V25.6038C30.9336 26.1934 31.4112 26.6706 32.0003 26.6706ZM33.0669 20.2696H37.3335V24.5369H33.0669V20.2696Z" fill="black"/>
<path d="M38.4001 29.8711H34.1335C32.7318 29.8945 32.7313 31.9814 34.1335 32.0047L37.3335 32.0047V36.272H34.1335C32.7332 36.2944 32.7303 38.3826 34.1335 38.4057L38.4001 38.4057C38.9892 38.4057 39.4668 37.9285 39.4668 37.3389V30.9379C39.4668 30.3482 38.9892 29.8711 38.4001 29.8711Z" fill="black"/>
<path d="M10.1824 48.6864H15.6126C17.0143 48.663 17.0148 46.576 15.6126 46.5527H12.8006V45.2911C12.8006 44.7014 12.323 44.2242 11.734 44.2242C11.1449 44.2242 10.6673 44.7014 10.6673 45.2911V46.5527C5.87172 46.1872 5.38252 53.1037 10.1825 53.3413L13.2855 53.3412C14.3771 53.3078 14.9719 54.7445 14.1766 55.4916C13.9376 55.7312 13.621 55.8624 13.2855 55.8624H7.85538C6.45538 55.8838 6.45222 57.9736 7.85542 57.9961L10.6673 57.9961V59.2577C10.6673 59.8474 11.1449 60.3245 11.734 60.3245C12.323 60.3245 12.8006 59.8474 12.8006 59.2577V57.9961C17.5953 58.3624 18.0861 51.445 13.2855 51.2075L10.1824 51.2076C8.52596 51.1793 8.52779 48.714 10.1824 48.6864Z" fill="black"/>
<path d="M14.0792 40.7738C6.93132 39.2459 -0.0819234 44.9506 0.000723328 52.2745C-0.0669319 62.6734 12.9046 67.9763 20.1125 60.488C26.6197 54.0084 23.0798 42.5002 14.0792 40.7738ZM21.1416 54.1966C20.3164 58.5551 16.1941 61.9562 11.7338 61.8758C-1.00044 61.349 -0.999323 43.1991 11.7339 42.673C17.6288 42.5257 22.4648 48.448 21.1416 54.1966Z" fill="black"/>
</svg>
